<?xml version="1.0" encoding="UTF-8" standalone="no"?>
<!-- Created with Inkscape (http://www.inkscape.org/) -->

<svg
   width="268.43478mm"
   height="16.374868mm"
   viewBox="0 0 268.43478 16.374869"
   version="1.1"
   id="svg1"
   xml:space="preserve"
   inkscape:export-filename="consolidation.png"
   inkscape:export-xdpi="100"
   inkscape:export-ydpi="100"
   inkscape:version="1.3 (0e150ed6c4, 2023-07-21)"
   sodipodi:docname="ripples.svg"
   xmlns:inkscape="http://www.inkscape.org/namespaces/inkscape"
   xmlns:sodipodi="http://sodipodi.sourceforge.net/DTD/sodipodi-0.dtd"
   xmlns="http://www.w3.org/2000/svg"
   xmlns:svg="http://www.w3.org/2000/svg"><sodipodi:namedview
     id="namedview1"
     pagecolor="#ffffff"
     bordercolor="#000000"
     borderopacity="0.25"
     inkscape:showpageshadow="2"
     inkscape:pageopacity="0.0"
     inkscape:pagecheckerboard="0"
     inkscape:deskcolor="#d1d1d1"
     inkscape:document-units="mm"
     inkscape:zoom="1.3699484"
     inkscape:cx="534.69167"
     inkscape:cy="59.126315"
     inkscape:window-width="2560"
     inkscape:window-height="1346"
     inkscape:window-x="-11"
     inkscape:window-y="-11"
     inkscape:window-maximized="1"
     inkscape:current-layer="g1"><inkscape:page
       x="0"
       y="3.0944552e-08"
       width="268.43478"
       height="16.37487"
       id="page3"
       margin="0"
       bleed="0" /></sodipodi:namedview><defs
     id="defs1"><clipPath
       clipPathUnits="userSpaceOnUse"
       id="clipPath4"><path
         d="M 0.1135,0 H 1024.0507 V 765.41481 H 0.1135 Z"
         transform="matrix(19.723866,0,0,0.70680629,-197.23866,-540.00001)"
         clip-rule="evenodd"
         id="path4" /></clipPath></defs><g
     inkscape:label="Layer 1"
     inkscape:groupmode="layer"
     id="layer1"
     transform="translate(-48.63017,-187.52257)" /><g
     id="g1"
     inkscape:groupmode="layer"
     inkscape:label="1"
     transform="matrix(0.26458334,0,0,0.26458333,-6.805521,-104.30201)"><path
       id="path3"
       d="m 0,-205 1,1 h 1 l 1,2 1,-1 1,1 h 1 1 1 l 1,1 1,1 1,-1 1,1 1,-1 h 1 1 l 1,1 h 1 l 1,-1 h 1 l 1,1 h 1 1 1 l 1,-1 1,1 1,2 h 1 l 1,-1 1,1 1,1 1,-1 h 1 1 1 l 1,-2 h 1 1 1 l 1,-1 1,-1 1,1 h 1 l 1,1 1,-1 1,1 h 1 1 1 1 l 1,-1 h 1 l 1,2 h 1 1 1 l 1,1 h 1 l 1,-1 h 1 1 l 1,-1 1,1 1,-1 h 1 1 l 1,-1 h 1 1 l 1,-1 1,1 1,-1 1,-1 h 1 l 1,1 1,-1 1,1 h 1 l 1,1 h 1 1 l 1,-1 h 1 1 1 l 1,-1 1,1 1,-1 1,1 h 1 l 1,-1 1,1 h 1 l 1,-1 1,-1 h 1 l 1,1 h 1 l 1,-1 h 1 1 l 1,-1 h 1 l 1,1 1,-1 h 1 1 l 1,1 h 1 1 l 1,-1 1,-1 1,1 h 1 1 1 1 l 1,-1 h 1 1 1 1 1 l 1,1 1,-1 1,-1 h 1 l 1,-1 h 1 1 1 1 l 1,-1 h 1 1 1 1 1 1 1 l 1,1 1,-1 h 1 1 l 1,-2 1,1 1,-1 h 1 l 1,-1 h 1 l 1,1 1,-1 1,-1 h 1 l 1,1 1,-1 h 1 l 1,-1 1,-1 h 1 1 l 1,1 h 1 l 1,-1 h 1 1 1 l 1,1 h 1 1 l 1,-1 h 1 l 1,1 1,-1 h 1 1 1 1 1 1 1 1 1 1 1 1 l 1,-1 h 1 l 1,1 h 1 1 l 1,-1 h 1 1 1 l 1,-1 1,-1 1,-1 h 1 l 1,2 1,-1 h 1 1 l 1,-1 1,-1 h 1 1 1 1 l 1,1 h 1 1 l 1,-1 1,1 1,1 h 1 l 1,-1 1,-1 1,-1 1,-1 h 1 1 l 1,1 h 1 1 l 1,-1 1,2 h 1 1 l 1,-1 h 1 l 1,-1 1,-2 h 1 1 l 1,1 h 1 1 1 l 1,1 1,-1 h 1 1 1 1 l 1,-1 1,-1 h 1 1 l 1,1 1,-1 h 1 1 1 l 1,-1 1,1 1,-1 h 1 1 1 1 l 1,1 1,-1 1,1 1,1 h 1 l 1,-1 1,-1 h 1 l 1,-1 1,1 h 1 1 1 l 1,-1 h 1 1 1 l 1,1 1,-1 h 1 l 1,1 h 1 l 1,1 1,-1 h 1 l 1,1 1,-1 1,1 h 1 1 l 1,1 h 1 l 1,-1 h 1 l 1,1 1,1 1,-1 h 1 l 1,1 h 1 l 1,1 h 1 1 1 l 1,-1 1,-1 1,1 h 1 1 1 1 1 1 1 1 1 1 l 1,-1 h 1 l 1,1 h 1 l 1,-2 1,1 h 1 1 1 l 1,1 h 1 1 1 l 1,-1 h 1 l 1,1 h 1 1 l 1,-1 h 1 l 1,-1 h 1 1 1 1 l 1,1 1,-1 h 1 1 l 1,-1 h 1 1 l 1,1 h 1 1 1 l 1,-1 h 1 l 1,-1 1,-1 h 1 1 1 1 l 1,1 1,1 1,-1 1,1 1,1 h 1 l 1,1 h 1 l 1,-1 h 1 1 1 1 1 1 1 l 1,1 1,2 1,-1 h 1 l 1,-1 h 1 l 1,-1 h 1 1 1 1 1 1 l 1,-2 1,1 h 1 l 1,1 h 1 l 1,1 1,-1 h 1 l 1,1 1,-1 h 1 l 1,1 h 1 1 l 1,1 h 1 1 1 1 l 1,1 1,-2 h 1 l 1,-1 h 1 l 1,1 1,2 1,-1 h 1 l 1,1 1,-1 1,-1 1,1 1,2 h 1 l 1,-1 1,-1 h 1 l 1,-1 h 1 1 1 l 1,-2 h 1 l 1,1 1,-1 1,-1 1,1 1,1 1,1 h 1 1 1 1 l 1,1 h 1 1 l 1,-1 h 1 l 1,-1 1,-1 1,2 1,-1 1,-1 h 1 l 1,1 h 1 l 1,1 h 1 1 l 1,-1 1,-1 h 1 l 1,-1 h 1 1 1 l 1,1 1,1 h 1 1 l 1,-2 1,-1 1,-1 1,-1 1,1 1,-1 1,1 1,1 1,1 h 1 l 1,-1 1,-1 h 1 1 1 l 1,-2 h 1 l 1,-1 h 1 1 1 1 l 1,-1 h 1 1 1 1 1 l 1,-1 1,1 1,-1 1,1 1,-1 h 1 1 1 1 1 l 1,-1 1,1 1,1 h 1 1 l 1,-1 h 1 l 1,-1 1,-1 h 1 1 l 1,1 h 1 1 l 1,-1 1,-1 h 1 l 1,-1 1,-1 h 1 1 l 1,-1 h 1 l 1,-1 1,1 1,1 h 1 l 1,1 1,-1 h 1 1 l 1,-1 1,-1 1,2 h 1 1 l 1,-1 h 1 1 1 1 l 1,-1 1,-1 h 1 l 1,-1 1,-1 h 1 1 1 1 l 1,1 1,-1 1,1 1,-1 1,1 h 1 1 1 1 l 1,-1 1,1 1,-1 1,-1 1,-1 h 1 1 l 1,-1 1,1 1,-1 1,-1 h 1 1 1 l 1,-1 h 1 l 1,1 h 1 1 1 l 1,1 1,-1 1,-1 h 1 l 1,-1 h 1 1 l 1,1 1,1 1,1 1,1 1,-1 1,1 1,1 1,-1 h 1 1 l 1,1 1,2 1,1 1,-1 1,-1 h 1 l 1,-1 h 1 l 1,-1 1,1 h 1 l 1,1 1,1 1,-1 h 1 1 l 1,2 h 1 l 1,-1 h 1 l 1,-1 h 1 1 l 1,1 h 1 1 1 1 1 1 l 1,-1 1,1 h 1 1 l 1,1 1,-1 1,1 h 1 l 1,-2 h 1 1 1 l 1,1 h 1 1 l 1,2 1,1 h 1 l 1,-3 1,-1 1,-2 1,1 1,-1 1,2 1,-1 h 1 l 1,1 h 1 l 1,2 1,-1 h 1 l 1,-1 h 1 l 1,-1 h 1 l 1,-1 1,1 1,1 h 1 l 1,1 h 1 1 l 1,-1 1,1 h 1 1 1 l 1,1 h 1 1 l 1,3 1,1 1,-2 1,-2 1,-1 h 1 1 l 1,1 1,1 1,-1 1,1 h 1 1 1 1 1 l 1,1 1,-1 1,-1 1,-1 h 1 l 1,1 h 1 l 1,1 1,1 h 1 l 1,-1 h 1 l 1,-1 h 1 1 1 l 1,1 1,1 1,-1 1,1 h 1 1 1 1 l 1,1 1,-1 h 1 l 1,1 1,-1 1,-1 1,1 h 1 l 1,-1 h 1 1 l 1,-2 1,1 1,1 h 1 1 1 1 1 l 1,-1 h 1 1 1 1 1 1 1 l 1,-2 h 1 l 1,1 1,-1 1,2 1,1 h 1 1 l 1,-1 1,1 1,-1 1,-1 1,1 1,1 h 1 l 1,-1 1,1 h 1 1 1 1 l 1,1 h 1 1 1 1 1 l 1,-1 h 1 l 1,-1 h 1 1 l 1,2 h 1 1 1 1 1 1 1 l 1,1 h 1 1 1 1 l 1,-1 h 1 1 1 l 1,1 h 1 1 1 l 1,2 1,-2 1,1 1,1 1,1 1,-1 1,1 1,1 1,-1 1,-1 h 1 l 1,-1 1,1 h 1 l 1,2 1,-1 h 1 l 1,1 1,-1 1,-1 1,-1 h 1 l 1,2 h 1 1 l 1,1 1,-1 h 1 1 l 1,1 h 1 1 l 1,1 h 1 l 1,-1 1,-1 1,-1 h 1 l 1,1 h 1 l 1,1 h 1 l 1,-1 h 1 l 1,-1 1,1 1,1 h 1 1 1 1 1 l 1,-1 h 1 l 1,-1 h 1 1 1 1 l 1,1 1,-1 1,-1 1,-1 1,1 h 1 l 1,1 h 1 1 l 1,1 1,1 h 1 l 1,-1 1,-1 1,-1 1,-1 1,-1 h 1 l 1,1 h 1 1 l 1,1 1,-1 h 1 l 1,1 1,-1 1,3 1,3 1,-2 1,-1 h 1 1 l 1,-1 1,-2 1,-1 h 1 1 l 1,1 h 1 1 l 1,1 1,1 1,-1 1,-1 1,1 1,-3 h 1 1 l 1,1 1,1 1,-1 1,2 h 1 l 1,1 1,-1 1,-1 h 1 l 1,1 1,1 h 1 l 1,-1 1,1 1,-2 h 1 l 1,-1 h 1 l 1,2 h 1 1 1 1 1 1 1 1 l 1,1 h 1 1 1 1 l 1,1 h 1 l 1,2 1,1 h 1 l 1,2 h 1 l 1,-2 1,-1 h 1 l 1,1 h 1 1 l 1,-2 h 1 l 1,-1 1,1 h 1 l 1,-1 1,1 h 1 1 l 1,-1 1,-1 1,1 h 1 l 1,-1 1,-1 h 1 l 1,-1 1,1 1,1 1,1 1,2 h 1 l 1,-1 1,-1 1,-1 h 1 1 1 1 l 1,1 1,-1 1,1 1,1 h 1 l 1,1 1,-1 h 1 1 1 1 l 1,-2 1,-1 h 1 1 1 l 1,-1 1,-3 h 1 l 1,-1 h 1 l 1,1 1,1 h 1 l 1,1 1,1 h 1 1 1 l 1,-1 1,1 1,-1 1,1 h 1 1 l 1,1 h 1 l 1,-1 1,-1 1,-1 1,-1 h 1 l 1,1 1,-1 h 1 l 1,1 h 1 1 1 l 1,1 h 1 1 1 l 1,1 h 1 1 l 1,-1 1,1 1,-1 h 1 1 1 l 1,1 1,-1 h 1 1 1 1 l 1,-2 h 1 l 1,-1 h 1 1 l 1,1 1,1 1,-1 h 1 l 1,-1 h 1 l 1,1 1,-1 h 1 1 1 1 l 1,-1 1,1 1,-1 h 1 l 1,-1 h 1 l 1,-1 1,1 1,-1 h 1 l 1,-1 h 1 l 1,-1 1,-3 1,2 1,-1 h 1 1 l 1,1 h 1 1 1 l 1,-1 1,-1 h 1 1 1 1 1 1 l 1,-2 1,1 h 1 1 1 1 1 1 l 1,1 h 1 l 1,-1 h 1 l 1,1 1,-1 1,-1 h 1 1 1 1 1 1 l 1,1 1,-1 h 1 l 1,1 h 1 1 1 l 1,-1 h 1 1 l 1,1 h 1 1 l 1,1 1,1 1,1 h 1 l 1,-1 1,-2 1,-2 1,-1 1,2 1,2 h 1 1 1 l 1,2 1,-2 1,-1 h 1 1 1 l 1,-1 h 1 l 1,-1 1,2 1,1 h 1 l 1,-1 1,-1 1,1 1,-1 h 1 l 1,-1 h 1 l 1,2 1,-1 h 1 l 1,1 1,-1 1,1 h 1 l 1,1 h 1 l 1,-1 1,1 1,-1 1,-1 h 1 1 l 1,1 1,-1 1,1 1,1 h 1 1 1 1 l 1,3 1,2 h 1 l 1,-1 1,-1 1,2 1,-2 1,-1 1,-1 1,2 h 1 1 l 1,-1 1,-1 h 1 l 1,1 1,1 h 1 1 l 1,-1 h 1 l 1,-2 h 1 1 l 1,1 h 1 1 1 l 1,1 1,-1 1,-1 h 1 l 1,1 1,-2 h 1 1 l 1,1 1,1 h 1 1 1 1 l 1,1 1,-1 1,-1 1,1 1,-1 1,1 1,1 1,-1 h 1 1 l 1,1 1,1 1,1 1,-1 h 1 l 1,-1 1,1 h 1 l 1,1 h 1 l 1,1 1,1 h 1 1 1 l 1,1 h 1 1 l 1,1 1,-2 h 1 1 1 l 1,1 h 1 l 1,1 h 1 1 l 1,1 h 1 l 1,2 1,2 1,1 h 1 l 1,-1 h 1 l 1,1 1,-1 1,-1 h 1 l 1,-1 1,2 1,1 1,1 1,-1 1,1 1,-1 1,-1 1,1 1,2 1,1 h 1 l 1,-1 1,1 1,1 1,-1 1,-1 h 1 1 1 l 1,-1 1,-2 1,-2 1,-1 1,-1 h 1 1 l 1,-1 h 1 l 1,2 h 1 1 l 1,-1 h 1 l 1,1 1,-1 1,2 1,1 h 1 l 1,1 h 1 1 1 l 1,-2 h 1 l 1,4 1,2 1,-3 h 1 l 1,-2 1,-3 1,-1 h 1 1 l 1,1 h 1 l 1,-1 1,-1 h 1 1 l 1,2 1,-1 h 1 1 l 1,-2 h 1 l 1,1 1,-1 h 1 l 1,1 h 1 1 1 1 1 1 1 l 1,-1 h 1 1 1 l 1,1 1,1 1,-1 1,1 h 1 l 1,1 1,-1 1,1 1,1 h 1 1 l 1,-1 h 1 l 1,-1 h 1 l 1,2 h 1 l 1,1 h 1 1 l 1,1 h 1 1 l 1,-1 1,1 h 1 1 l 1,1 h 1 1 1 l 1,1 h 1 1 l 1,-1 1,-1 h 1 l 1,1 1,2 1,1 1,1 h 1 l 1,1 h 1 1 l 1,2 1,-1 h 1 l 1,1 1,1 h 1 l 1,-1 h 1 1 1 1 1 l 1,3 1,1 h 1 1 l 1,-2 1,-2 1,1 1,1 1,1 1,3 h 1 l 1,-2 1,-2 1,-3 1,-2 1,-1 h 1 1 l 1,2 1,1 1,2 1,-4 1,-2 h 1 l 1,-1 h 1 l 1,1 h 1 l 1,-1 h 1 l 1,1 1,-1 1,-1 1,-1 h 1 l 1,-2 h 1 l 1,1 1,-1 1,-1 1,1 1,-1 1,-1 1,1 1,1 1,1 1,1 1,-2 h 1 l 1,-1 1,-1 h 1 l 1,-1 h 1 1 l 1,2 h 1 1 l 1,-1 h 1 l 1,1 1,1 1,-2 h 1 l 1,1 h 1 1 l 1,-1 h 1 1 1 l 1,1 1,-1 h 1 1 l 1,1 1,1 h 1 1 l 1,-1 1,1 h 1 1 l 1,1 h 1 l 1,1 1,1 1,-1 1,1 1,1 1,1 1,1 1,1 h 1 l 1,1 1,-1 h 1 l 1,1 h 1 l 1,1 1,1 1,-1 1,1 h 1 1 1 1 1 1 l 1,1 1,1 1,-1 1,1 h 1 1 l 1,-1 1,1 1,1 h 1 l 1,1 h 1 1 1 l 1,1 1,1 1,1 h 1 1 1 1 l 1,1 1,1 h 1 l 1,1 1,1 h 1 l 1,-1 h 1 1 l 1,-1 h 1 1 l 1,1 h 1 1 1 1 l 1,1 h 1 l 1,2 1,1 1,1 1,-2 1,-3 1,-1 1,-2 1,1 1,1 1,1 1,2 1,1 h 1 1 l 1,2 h 1 l 1,-1 1,-2 1,-2 1,-3 1,-2 h 1 l 1,1 h 1 l 1,-1 1,1 h 1 l 1,1 1,1 h 1 l 1,-1 1,-1 1,-1 h 1 l 1,-1 h 1 1 l 1,3 1,1 h 1 1 1 l 1,-2 h 1 l 1,-1 1,-1 1,-1 h 1 l 1,-1 1,1 1,1 h 1 1 l 1,-2 1,1 1,1 h 1 1 l 1,1 h 1 l 1,2 h 1 l 1,-2 1,-1 1,-1 h 1 1 1 l 1,1 h 1 l 1,-1 h 1 1 l 1,1 h 1 l 1,1 1,1 1,1 1,-1 h 1 1 1 l 1,-1 h 1 1 l 1,-1 h 1 1 l 1,-1 1,1 h 1 l 1,-1 h 1 1 l 1,1 1,-1 h 1 1 1 1 1 1 l 1,-1 1,1 h 1 l 1,1 h 1 l 1,1 h 1 1 1 l 1,-2 1,1 h 1 l 1,1 h 1 1 l 1,-1 h 1 l 1,-1 1,1 h 1 1 l 1,1 h 1 1 l 1,2 h 1 1 1 1 1 l 1,-1 1,2 1,1 1,1 h 1 1 1 l 1,-2 1,-1 1,1 1,1 1,1 1,2 1,1 1,-1 h 1 l 1,-2 1,1 1,3 1,-2 1,-2 1,-2 h 1 1 l 1,2 1,-1 1,-1 h 1 l 1,-2 1,-1 1,-1 1,-1 h 1 l 1,2 h 1 1 l 1,1 1,-1 1,-3 1,-2 1,-2 1,-1 1,1 h 1 l 1,2 1,1 h 1 l 1,-1 1,-1 1,-1 1,2 h 1 l 1,-1 1,-1 1,-2 1,-1 h 1 l 1,1 1,-1 h 1 l 1,-2 1,-2 1,1 1,-1 h 1 l 1,1 h 1 l 1,2 1,1 1,1 1,1 1,-2 h 1 l 1,-2 1,-1 h 1 1 l 1,1 h 1 1 1 l 1,-2 h 1 1 l 1,1 1,1 1,2 h 1 l 1,1 1,1 1,-1 h 1 l 1,2 h 1 l 1,1 1,1 1,-1 1,1 h 1 1 l 1,1 h 1 1 1 l 1,1 h 1 1 l 1,1 1,1 1,1 1,1 1,-1 1,1 1,1 h 1 1 1 l 1,1 1,1 1,1 h 1 l 1,1 1,-1 1,-1 1,-1 h 1 l 1,-1 h 1 l 1,1 h 1 l 1,1 h 1 1 l 1,2 1,1 h 1 1 1 l 1,-1 1,-1 1,1 1,1 h 1 1 1 l 1,1 1,1 h 1 1 l 1,1 1,-1 h 1 l 1,1 h 1 l 1,1 1,-1 1,-1 h 1 1 l 1,2 1,2 1,2 h 1 l 1,-2 1,-1 1,-1 1,-1 1,-2 1,-2 1,-2 1,1 1,-1 h 1 1 l 1,-2 h 1 l 1,-1 h 1 l 1,-2 1,1 h 1 1 l 1,2 1,1 h 1 l 1,-1 1,1 1,1 1,-1 1,-2 1,-1 1,-1 1,-2 1,-2 1,1 h 1 1 l 1,1 1,-1 1,-1 1,-1 h 1 l 1,1 1,2 1,2 h 1 l 1,-3 1,-3 1,-2 1,-1 1,-1 h 1 1 1 1 1 1 1 1 l 1,1 h 1 1 l 1,-1 1,1 h 1 1 l 1,-1 1,1 h 1 l 1,2 1,1 1,1 1,1 h 1 l 1,1 1,1 1,-1 h 1 1 1 1 l 1,1 1,1 h 1 l 1,2 1,2 1,-1 1,1 h 1 l 1,2 1,1 h 1 1 1 l 1,2 1,3 1,1 h 1 1 l 1,1 h 1 1 l 1,-1 h 1 1 1 l 1,-1 1,-2 1,1 1,1 1,-1 h 1 l 1,-2 1,-1 1,-1 1,-2 1,1 1,1 1,-3 1,-1 1,-2 1,-1 h 1 l 1,1 1,2 1,4 1,-1 1,-2 1,-4 1,-4 1,-2 h 1 l 1,-2 h 1 1 1 l 1,1 1,1 h 1 l 1,-2 1,-1 1,-1 h 1 l 1,-1 1,-2 1,-1 1,-1 1,1 1,1 h 1 1 1 1 1 l 1,1 h 1 1 1 l 1,-1 1,1 h 1 l 1,1 h 1 1 l 1,-1 1,-1 h 1 l 1,-1 1,1 h 1 1 l 1,1 h 1 l 1,1 h 1 l 1,1 1,1 1,2 1,-2 1,-1 1,1 h 1 l 1,1 h 1 l 1,-1 h 1 l 1,1 1,1 h 1 l 1,2 1,-1 1,1 1,1 h 1 l 1,2 h 1 1 1 1 l 1,2 h 1 l 1,-1 1,1 1,1 1,1 h 1 1 l 1,1 1,1 h 1 1 1 1 l 1,1 1,3 h 1 l 1,1 1,2 1,1 1,2 1,1 h 1 l 1,-1 1,-1 h 1 1 l 1,3 1,-1 h 1 l 1,-1 1,-1 h 1 l 1,1 1,-2 1,-1 1,-3 1,-3 1,-4 1,-1 h 1 1 1 l 1,1 h 1 1 l 1,1 1,-3 1,-4 1,-3 1,-2 1,-3 1,-1 h 1 l 1,1 h 1 1 l 1,2 h 1 l 1,-2 1,-2 1,-2 h 1 1 l 1,1 1,1 1,-1 1,-1 1,1 h 1 1 1 1 l 1,-1 1,1 1,1 1,1 1,-1 h 1 l 1,-1 h 1 1 1 l 1,1 1,1 1,-1 1,-1 1,-1 h 1 1 1 l 1,1 h 1 l 1,2 1,-1 h 1 l 1,1 1,-1 h 1 l 1,1 1,1 1,1 1,-1 h 1 l 1,1 1,1 h 1 l 1,1 1,1 h 1 l 1,1 h 1 l 1,1 1,1 1,1 1,1 1,1 h 1 l 1,-1 1,2 1,2 1,2 1,2 h 1 1 l 1,1 1,-1 1,1 1,2 1,1 1,1 1,2 1,-1 1,-2 1,-1 h 1 l 1,1 1,1 1,1 1,-1 1,-3 h 1 l 1,-2 1,1 h 1 l 1,-2 1,1 1,1 1,2 1,1 1,1 h 1 l 1,-3 1,-1 1,-4 1,-4 1,-1 1,-1 h 1 1 l 1,-1 1,-2 1,-3 1,-2 h 1 l 1,-1 1,-2 1,-1 1,-1 1,-2 1,-4 1,-1 h 1 l 1,-1 1,1 h 1 l 1,-1 1,2 h 1 1 l 1,-2 1,-1 1,-1 1,1 1,-2 h 1 l 1,1 1,-1 1,-1 1,-2 1,1 1,-1 1,-1 1,1 h 1 l 1,1 1,2 1,1 h 1 1 l 1,2 1,1 1,-1 h 1 l 1,2 h 1 l 1,1 h 1 1 1 1 1 l 1,1 1,1 1,1 1,1 1,1 h 1 1 1 1 l 1,1 h 1 l 1,1 1,1 1,1 h 1 l 1,2 h 1 l 1,1 h 1 l 1,1 1,-1 h 1 l 1,2 h 1 l 1,1 h 1 l 1,1 1,1 h 1 1 l 1,1 1,1 1,1 1,2 h 1 1 l 1,-1 1,1 h 1 l 1,1 h 1 l 1,1 1,2 1,-2 1,1 h 1 1 l 1,-1 1,2 1,3 1,2 h 1 1 l 1,2 1,2 h 1 l 1,-2 1,-3 1,-3 1,-3 h 1 l 1,-1 1,1 h 1 l 1,1 1,-1 1,1 h 1 l 1,-1 1,-1 1,-2 1,1 h 1 1 l 1,-2 1,-3 1,-1 1,-1 h 1 1 l 1,1 h 1 l 1,-1 1,2 1,1 1,1 1,-1 h 1 1 l 1,-1 1,-2 1,-1 1,-1 h 1 l 1,1 1,2 1,1 h 1 1 l 1,-2 1,-1 h 1 l 1,-1 h 1 l 1,2 1,2 h 1 l 1,-1 1,-1 h 1 l 1,-1 h 1 1 l 1,1 h 1 l 1,-1 1,-1 1,1 h 1 1 l 1,1 1,1 h 1 1 l 1,1 1,-1 1,1 h 1 l 1,1 1,-1 1,-1 h 1 1 l 1,2 h 1 l 1,2 1,1 h 1 l 1,-1 1,-1 h 1 l 1,1 h 1 1 l 1,1 1,-2 h 1 1 1 l 1,-2 1,2 h 1 l 1,-2 h 1 1 l 1,1 h 1 1 l 1,1 1,1 h 1 1 l 1,1 h 1 l 1,-2 1,-1 1,-3 h 1 l 1,3 1,2 h 1 1 l 1,1 h 1 1 l 1,-2 1,-1 h 1 l 1,-2 1,-2 1,-1 h 1 l 1,1 h 1 l 1,-1 1,1 1,2 h 1 l 1,-1 1,-3 h 1 l 1,-1 1,1 h 1 l 1,1 1,-2 1,-2 1,-1 h 1 l 1,-1 1,2 h 1 l 1,2 1,-2 h 1 l 1,-1 1,1 1,1 1,2 h 1 l 1,-3 1,-3 1,-1 1,-2 h 1 1 1 l 1,-1 h 1 1 1 1 1 1 l 1,1 h 1 l 1,-1 h 1 l 1,1 1,1 h 1 1 1 l 1,1 h 1 l 1,1 h 1 l 1,-1 1,1 1,2 h 1 l 1,-1 1,2 1,2 1,1 1,1 1,1 h 1 l 1,-1 1,-1 h 1 l 1,2 h 1 l 1,1 1,1 1,-1 h 1 l 1,2 1,2 1,1 1,-1 1,1 h 1 l 1,1 h 1 l 1,2 h 1 l 1,1 h 1 l 1,-1 h 1 l 1,-1 h 1 1 l 1,3 1,2 1,-2 h 1 1 l 1,1 h 1 l 1,1 h 1 1 l 1,1 1,1 h 1 1 l 1,2 h 1 l 1,1 1,2 1,1 1,1 h 1 l 1,-1 1,-1 1,-2 1,-1 h 1 l 1,1 h 1 l 1,-2 1,1 1,1 h 1 l 1,-2 1,-1 h 1 1 1 1 1 l 1,2 1,2 1,-1 h 1 1 l 1,-3 1,-1 1,-2 1,-1 1,1 1,2 h 1 l 1,-1 1,1 1,-1 1,-2 1,-2 1,-2 1,-2 1,-1 1,-1 1,-2 h 1 l 1,1 1,-1 1,-1 1,1 1,-1 h 1 l 1,-2 1,-1 h 1 l 1,-1 h 1 l 1,1 h 1 l 1,1 1,-2 h 1 1 1 1 1 l 1,1 1,1 1,-1 1,1 h 1 l 1,-1 1,-1 1,-1 1,-1 1,1 1,-1 1,1 h 1 l 1,-1 1,2 h 1 1 l 1,1 1,1 1,1 1,1 h 1 l 1,-1 h 1 l 1,1 1,1 h 1 1 l 1,1 h 1 l 1,1 h 1 l 1,-1 1,-1 1,1 1,1 h 1 l 1,1 1,-1 h 1 l 1,1 h 1 l 1,1 1,-1 1,2 h 1 1 l 1,2 h 1 1 l 1,1 h 1 l 1,-1 1,2 h 1 1 l 1,1 1,2 h 1 l 1,-1 h 1 l 1,1 1,2 h 1 1 l 1,1 h 1 1 l 1,3 1,2 1,-1 h 1 l 1,-1 1,-1 h 1 l 1,1 1,-1 1,2 h 1 1 l 1,1 h 1 1 1 l 1,1 h 1 1 1 1 1 1 1 1 1 1 1 l 1,1 h 1 1 l 1,1 h 1 l 1,-1 h 1 l 1,-1 h 1 l 1,1 1,2 1,-1 h 1 l 1,1 h 1 1 1 1 1 1 1 1 1 1 l 1,-1 h 1 l 1,2 1,-1 h 1 l 1,-1 1,1 h 1 1 1 l 1,-1 1,-1 h 1 l 1,2 1,-2 h 1 l 1,1 h 1 1 1 l 1,1 h 1 l 1,-1 h 1 l 1,-1 h 1 l 1,-1 h 1 1 l 1,-1 1,1 h 1 1 1 1 1 1 1 1 l 1,-1 h 1 l 1,-1 1,1 h 1 l 1,-1 1,-1 h 1 1 1 1 1 l 1,-1 h 1 l 1,-1 1,-1 h 1 l 1,1 1,1 1,-1 1,1 1,-1 1,-1 1,-1 1,-1 1,1 1,-1 1,-1 1,1 1,-1 1,1 1,-1 h 1 1 l 1,-1 h 1 1 1 1 1 l 1,-1 1,-1 h 1 1 1 l 1,1 1,1 1,-2 h 1 l 1,1 1,-1 h 1 1 1 l 1,-1 h 1 l 1,2 1,-1 h 1 l 1,-1 1,-1 h 1 l 1,1 h 1 l 1,-1 1,-1 1,1 1,1 h 1 l 1,-1 h 1 1 l 1,1 1,-1 h 1 l 1,-1 1,-1 h 1 1 l 1,-1 1,1 h 1 1 1 1 1 l 1,-1 h 1 l 1,-1 h 1 1 1 1 l 1,1 1,1 1,-1 1,-1 h 1 l 1,-1 h 1 l 1,-1 h 1 l 1,1 1,1 1,-2 1,1 1,-1 1,-1 h 1 l 1,-1 h 1 1 1 1 l 1,1 h 1 l 1,-1 1,1 1,-1 h 1 1 l 1,-1 h 1 1 1 1 l 1,1 h 1 l 1,-1 1,-2 1,-1 1,1 1,1 1,1 1,-1 1,1 1,-1 h 1 l 1,1 1,-1 1,-1 h 1 l 1,2 h 1 1 1 l 1,-1 h 1 l 1,-1 h 1 1 1 l 1,1 h 1 1 l 1,-1 h 1 l 1,-1 h 1 1 l 1,-1 h 1 l 1,2 1,-1 h 1 l 1,-1 1,-1 h 1 l 1,1 h 1 l 1,-1 h 1 l 1,1 1,-1 h 1 l 1,-1 1,-1 1,2 h 1 1 l 1,-1 h 1 l 1,-1 1,-1 h 1 1 1 1 1 1 1 l 1,-1 1,1 h 1 l 1,-1 h 1 1 l 1,1 1,-1 1,1 1,-1 1,-1 h 1 1 1 l 1,1 h 1 1 l 1,-1 h 1 l 1,-1 1,1 1,-1 h 1 1 l 1,-1 h 1 1 l 1,-2 1,1 h 1 l 1,1 1,-1 h 1 1 l 1,-1 1,-2 h 1 1 l 1,1 h 1 l 1,1 1,-1 1,-1 h 1 l 1,1 h 1 1 l 1,-2 1,-1 h 1 l 1,1 1,1 1,-2 h 1 l 1,-1 h 1 l 1,1 1,-1 1,1 1,-1 h 1 1 l 1,-1 1,1 1,-1 1,1 h 1 l 1,-1 h 1 1 l 1,-1 1,1 1,-1 1,1 h 1 l 1,-1 h 1 l 1,-1 h 1 1 l 1,1 1,-1 h 1 1 1 l 1,-1 h 1 l 1,1 h 1 1 l 1,1 1,-1 h 1 1 l 1,-1 h 1 l 1,1 1,-1 h 1 1 1 1 l 1,1 1,-3 1,1 1,-1 h 1 1 1 1 l 1,-1 h 1 l 1,1 h 1 l 1,-1 h 1 1 1 l 1,-1 1,-1 1,1 h 1 l 1,-1 1,1 1,-1 1,1 1,-1 h 1 1 l 1,1 h 1 l 1,1 h 1 l 1,-1 1,1 1,-1 h 1 l 1,1 h 1 1 l 1,-1 1,1 1,-1 1,1 1,-1 1,-1 1,2 h 1 l 1,-1 1,-1 h 1 1 1 l 1,2 1,-1 h 1 l 1,1 1,-1 1,-1 h 1 1 1 1 1 l 1,1 1,-1 1,1 1,-1 h 1 1 1 1 1 l 1,1 1,-1 h 1 1 1 l 1,-1 h 1 l 1,-1 1,-1 h 1 l 1,2 1,1 1,-1 h 1 1 1 1 1 1 1 l 1,-1 1,1 h 1 1 1 l 1,-1 1,1 h 1 l 1,1 1,1 h 1 l 1,1 1,-1 h 1 1 1 l 1,-1 1,1 1,1 1,-1 h 1 l 1,1 1,-1 1,1 h 1 l 1,-1 1,1 1,1 1,-1 1,-1 1,-1 1,1 h 1 l 1,1 1,-1 1,1 1,1 h 1 l 1,1 1,1 1,-1 1,1 1,-1 h 1 l 1,-1 h 1 1 l 1,1 1,1 1,1 1,-1 1,1 1,-1 h 1 1 l 1,1 h 1 l 1,-1 h 1 1 l 1,1 h 1 l 1,1 1,-2 1,1 1,1 1,-1 h 1 1 l 1,1 h 1 1 1 1 l 1,-1 h 1 l 1,1 1,1 1,1 1,-1 h 1 l 1,1 1,-1 h 1 l 1,1 1,-1 1,2 1,1 h 1 l 1,-1 h 1 1 1 l 1,1 h 1 1 l 1,1 1,-1 h 1 1 1 1 1 l 1,1 h 1 l 1,-1 h 1 1 l 1,1 h 1 1 1 1 1 1 1 1 1 l 1,1 h 1 1 1 1 l 1,-1 1,1 h 1 1 l 1,1 1,-1 1,1 h 1 1 1 l 1,-1 1,1 1,1 1,-1 1,1 1,-1 1,-1 h 1 l 1,2 1,-2 h 1 l 1,1 h 1 1 1 1 l 1,1 h 1 1 l 1,1 1,-1 h 1 1 1 1 1 1 l 1,1 1,1 1,1 h 1 1 l 1,1 1,-1 1,-1 h 1 l 1,-1 h 1 1 l 1,2 1,-1 1,1 1,1 h 1 l 1,1 h 1 1 l 1,-1 1,-1 h 1 1 l 1,2 h 1 1 l 1,-1 h 1 l 1,1 1,-1 h 1 l 1,-1 1,1 h 1 l 1,1 h 1 l 1,1 1,1 1,-1 h 1 1 1 1 l 1,1 1,-1 h 1 1 l 1,-1 1,1 1,1 h 1 l 1,-1 1,2 1,-1 h 1 l 1,-1 h 1 l 1,1 1,-1 h 1 1 1 1 1 1 l 1,1 1,-1 h 1 l 1,1 1,-1 1,1 1,1 h 1 l 1,-1 1,1 1,-1 1,2 1,1 h 1 l 1,-1 h 1 1 l 1,-1 h 1 1 l 1,-1 1,1 h 1 l 1,1 h 1 l 1,-1 1,1 h 1 1 1 l 1,1 1,-1 1,1 1,-1 h 1 1 l 1,1 1,-1 1,1 h 1 1 1 1 l 1,-1 1,2 h 1 l 1,-1 h 1 l 1,1 h 1 l 1,1 h 1 1 l 1,1 1,-1 h 1 1 l 1,1 h 1 1 l 1,-1 1,1 1,-1 1,-1 1,-1 h 1 l 1,1 1,1 1,-1 1,1 h 1 1 1 1 1 l 1,-1 h 1 1 1 1 l 1,2 h 1 l 1,-1 h 1 1 l 1,-1 h 1 1 l 1,1 h 1 l 1,-1 h 1 1 1 l 1,-1 h 1 l 1,1 h 1 1 1 l 1,-1 1,-1 1,1 h 1 l 1,-1 1,1 1,-1 h 1 l 1,1 h 1 1 1 1 l 1,1 h 1 1 1 1 1 l 1,-1 1,1 h 1 l 1,1 1,-1 1,1 1,-1 1,2 h 1 l 1,-1 h 1 1 l 1,-1 h 1 l 1,1 1,-1 1,1 h 1 l 1,-1 1,1 h 1 1 l 1,1 h 1 1 l 1,1 1,-1 h 1 1 1 l 1,-1 1,1 h 1 l 1,1 h 1 l 1,-1 1,1 1,-1 h 1 l 1,1 h 1 l 1,1 h 1 l 1,1 1,-2 h 1 1 1 1 1 l 1,1 h 1 l 1,1 h 1 1 1 l 1,-1 1,1 h 1 l 1,-1 h 1 l 1,1 h 1 l 1,1 h 1 l 1,-1 h 1 1 1 1 1 l 1,1 h 1 l 1,1 1,-1 h 1 1 1 l 1,-1 1,-1 1,1 h 1 l 1,-1 h 1 1 1 1 1 1 1 1 1 1 l 1,1 h 1 l 1,1 h 1 l 1,-1 h 1 1 1 l 1,-1 h 1 1 1 1 l 1,1 1,-1 1,1 h 1 l 1,1 h 1 l 1,-1 1,1 h 1 1 1 1 l 1,-1 1,1 1,-1 h 1 1 1 1 1 1 l 1,1 h 1 l 1,1 1,-1 1,1 1,-1 h 1 1 l 1,-1 1,1 h 1 1 1 1 1 1 l 1,-1 h 1 l 1,1 h 1 l 1,-1 h 1 l 1,1 h 1 1 l 1,1 1,-1 h 1 1 l 1,1 1,-1 1,1 h 1 l 1,-1 1,-1 1,1 1,1 1,-1 h 1 l 1,1 1,-1 1,1 h 1 1 1 1 1 l 1,1 1,-1 1,1 h 1 1 1 l 1,1 h 1 1 1 1 l 1,-1 h 1 1 1 1 l 1,-1 1,2 h 1 1 1 l 1,1 h 1 l 1,1 1,1 1,-1 h 1 l 1,-1 h 1 l 1,1 h 1 l 1,-1 1,1 h 1 l 1,1 h 1 1 1 1 1 1 1 l 1,-1 h 1 1 l 1,-1 1,1 1,-1 1,1 1,1 1,-1 h 1 l 1,1 1,1 1,1 1,-1 1,-1 h 1 1 l 1,-2 h 1 1 1 l 1,1 h 1 l 1,-1 1,1 h 1 1 l 1,-1 1,1 h 1 1 l 1,1 h 1 1 1 1 l 1,-1 h 1 l 1,-1 1,2 h 1 l 1,1 h 1 l 1,-1 h 1 l 1,-1 1,1 h 1 l 1,-1 h 1 1 1 1 l 1,-1 1,-1 h 1 1 l 1,-1 h 1 l 1,-1 1,1 h 1 l 1,1 1,1 1,-1 1,1 1,-1 h 1 1 1 1 1 l 1,-1 1,-1 1,-1 1,1 h 1 1 l 1,1 1,-1 h 1 l 1,1 1,-2 1,-1 1,1 1,-1 1,1 1,-1 h 1 l 1,1 1,-1 h 1 1 1 l 1,-2 h 1 l 1,1 h 1 1 l 1,-2 1,-1 1,1 h 1 l 1,-1 1,1 1,1 1,-1 h 1 l 1,1 1,-1 1,1 1,-1 h 1 l 1,-1 1,1 1,-1 h 1 l 1,1 1,-2 h 1 l 1,1 h 1 1 l 1,-1 1,-1 h 1 l 1,3 h 1 1 l 1,-1 h 1 l 1,-1 1,1 h 1 1 l 1,1 h 1 l 1,-1 1,-1 h 1 1 1 1 1 1 1 1 l 1,1 h 1 1 1 1 1 l 1,-1 1,-1 1,1 h 1 1 l 1,-1 h 1 l 1,1 h 1 1 1 1 l 1,-1 h 1 l 1,1 h 1 1 1 1 1 l 1,1 1,-1 h 1 1 1 l 1,1 1,1 1,-1 h 1 l 1,2 1,-1 h 1 l 1,-1 h 1 l 1,-1 1,1 h 1 1 1 1 l 1,-1 h 1 l 1,2 1,-1 1,2 1,-1 h 1 l 1,-1 1,1 1,-1 h 1 1 l 1,1 1,1 1,1 h 1 1 1 l 1,-1 h 1 l 1,2 h 1 1 1 l 1,-1 1,1 h 1 1 l 1,-1 h 1 l 1,2 1,-1 1,-1 1,1 1,1 1,-1 h 1 l 1,1 h 1 l 1,-1 1,-1 1,1 h 1 1 1 1 l 1,1 1,-1 1,1 h 1 1 1 1 l 1,1 1,-1 1,1 h 1 1 l 1,1 1,1 1,-1 h 1 1 1 1 l 1,1 1,-1 h 1 1 l 1,-1 1,1 1,1 h 1 1 1 1 1 l 1,-1 1,1 1,-1 1,1 1,1 1,1 h 1 l 1,-1 1,1 1,1 h 1 1 l 1,-1 h 1 l 1,1 h 1 l 1,1 1,1 h 1 1 l 1,-1 h 1 l 1,-1 1,1 1,-1 h 1 1 1 1 l 1,1 1,1 h 1 1 1 1 1 1 1 1 l 1,1 h 1 l 1,-1 h 1 l 1,1 h 1 1 1 1 1 l 1,1 1,1 h 1 l 1,-1 h 1 l 1,1 1,1 1,-1 1,1 h 1 l 1,-1 h 1 1 1 l 1,1 h 1 1 l 1,2 h 1 l 1,-1 1,-1 h 1 l 1,1 1,-1 h 1 1 1 1 1 1 1 l 1,-1 1,1 h 1 l 1,2 h 1 l 1,1 1,-1 h 1 1 1 1 1 1 l 1,1 1,-1 1,1 1,-1 h 1 l 1,1 h 1 1 1 1 l 1,1 1,-1 h 1 1 1 l 1,-1 h 1 l 1,-1 1,1 1,1 1,1 1,1 h 1 1 l 1,1 1,-1 1,-1 1,1 h 1 l 1,-1 1,1 h 1 l 1,-1 1,1 h 1 1 l 1,-1 h 1 1 l 1,-2 1,1 1,1 h 1 l 1,-1 h 1 l 1,-1 1,-1 1,1 h 1 l 1,1 1,-1 1,-1 h 1 l 1,1 1,1 h 1 l 1,-1 h 1 l 1,-1 1,1 1,-1 1,1 1,1 h 1 1 l 1,-1 h 1 1 l 1,1 1,-1 1,-1 h 1 l 1,1 h 1 1 1 1 l 1,1 h 1 1 1 l 1,1 1,-1 1,-1 1,1 h 1 l 1,1 h 1 l 1,1 1,-1 1,1 1,1 1,-1 h 1 l 1,-1 h 1 1 1 l 1,1 h 1 l 1,-1 1,-1 1,1 1,1 h 1 l 1,1 1,1 h 1 1 l 1,-1 1,-1 1,1 h 1 1 l 1,-1 h 1 l 1,1 h 1 l 1,-1 h 1 l 1,1 1,-1 h 1 1 l 1,1 h 1 l 1,1 h 1 1 l 1,-1 1,1 1,-1 h 1 l 1,-1 h 1 1 1 l 1,1 1,1 h 1 1 1 1 l 1,-1 1,1 h 1 1 1 1 1 1 1 1 l 1,-1 h 1 1 l 1,-1 1,1 h 1 1 l 1,1 h 1 1 1 1 1 1 1 1 l 1,-1 1,1 h 1 1 1 1 1 1 1 1 1 1 1 1 1 1 l 1,-1 h 1 l 1,1 h 1 1 1 1 1 1 1 1 1 1 1 1 1 1 1 1 1 1 1 1 l 1,1 1,-1 1,1 1,-1 h 1 1 1 1 1 1 1 1 l 1,1 h 1 l 1,-1 h 1 1 l 1,-1 h 1 l 1,1 h 1 1 1 1 1 1 1 1 l 1,-1 h 1 1 1 1 l 1,-1 h 1 l 1,1 h 1 l 1,1 h 1 l 1,-1 h 1 1 l 1,-1 h 1 1 1 1 l 1,1 1,-1 1,-1 h 1 1 1 1 l 1,-1 1,1 h 1 l 1,1 1,-1 h 1 l 1,1 1,-1 h 1 l 1,-1 h 1 1 l 1,1 h 1 1 1 1 1 1 1 1 1 1 1 1 l 1,-1 1,1 1,-1 1,1 1,-1 h 1 l 1,-1 h 1 1 1 l 1,2 h 1 1 l 1,-1 1,-1 1,1 h 1 l 1,-1 h 1 1 l 1,1 h 1 1 l 1,1 h 1 l 1,-1 1,-1 h 1 1 1 1 1 1 1 l 1,1 1,-1 h 1 1 l 1,-1 1,1 h 1 l 1,-1 h 1 l 1,1 h 1 l 1,-1 1,1 h 1 1 l 1,-2 h 1 1 1 1 l 1,1 h 1 l 1,-1 h 1 l 1,2 1,-1 1,-1 h 1 1 1 1 l 1,-1 1,1 1,1 h 1 1 1 1 l 1,-1 h 1 l 1,1 h 1 l 1,-2 1,1 1,-1 1,2 1,-1 1,1 1,1 1,-1 h 1 l 1,-1 1,1 h 1 1 l 1,1 h 1 1 l 1,-1 1,1 h 1 l 1,-2 1,1 h 1 l 1,-1 1,-1 1,1 h 1 l 1,1 1,-1 1,1 1,1 h 1 1 1 1 l 1,-1 1,1 h 1 1 l 1,1 h 1 l 1,-1 h 1 1 l 1,1 1,-1 h 1 l 1,1 h 1 l 1,-1 h 1 l 1,2 h 1 1 l 1,1 1,-1 1,1 1,-1 h 1 l 1,1 h 1 l 1,-1 1,-1 1,1 h 1 1 1 l 1,1 h 1 1 l 1,1 h 1 1 1 l 1,-1 h 1 l 1,2 1,-1 1,-1 1,2 1,-1 h 1 l 1,1 1,-1 h 1 l 1,1 1,-1 1,1 1,-1 h 1 l 1,1 h 1 l 1,-1 h 1 l 1,1 h 1 l 1,-1 1,1 1,-1 h 1 l 1,-1 h 1 l 1,1 1,-1 h 1 l 1,1 h 1 l 1,-1 h 1 1 l 1,1 1,1 1,-1 h 1 1 1 1 1 l 1,1 1,-2 1,1 1,1 1,-1 h 1 1 l 1,1 h 1 1 1 l 1,-1 1,-1 h 1 l 1,1 h 1 1 1 1 1 1 l 1,1 h 1 1 l 1,-1 1,1 h 1 1 1 1 1 1 1 1 1 1 1 1 1 l 1,-1 1,1 1,-1 1,1 h 1 1 1 1 1 1 l 1,-1 1,1 h 1 1 1 1 1 1 1 l 1,-1 1,1 h 1 1 l 1,1 1,-1 h 1 1 1 l 1,-2 h 1 1 l 1,1 1,1 h 1 1 1 1 1 1 1 1 1 1 1 1 1 1 l 1,1 h 1 1 l 1,1 1,1 h 1 l 1,1 h 1 l 1,1 1,1 h 1 1 1 l 1,-1 1,1 h 1 l 1,-1 1,1 h 1 l 1,1 h 1 1 l 1,1 1,1 1,1 1,-1 h 1 1 1 1 1 1 l 1,1 1,-1 1,-1 1,1 h 1 1 l 1,1 h 1 1 1 1 l 1,2 h 1 l 1,-1 h 1 l 1,1 h 1 1 1 l 1,1 1,-1 1,-1 1,1 h 1 l 1,-1 1,1 h 1 l 1,-1 1,-1 h 1 l 1,1 h 1 l 1,1 h 1 l 1,1 1,-1 h 1 1 1 1 1 l 1,1 1,-1 h 1 1 l 1,-1 1,1 h 1 l 1,1 h 1 1 1 1 l 1,1 1,-2 h 1 1 l 1,-1 1,-1 h 1 l 1,1 h 1 1 l 1,1 h 1 1 l 1,2 h 1 l 1,-1 1,-1 1,1 1,-1 1,2 1,-1 h 1 l 1,-1 1,1 1,-1 h 1 l 1,-1 h 1 1 l 1,-1 1,-1 h 1 l 1,1 h 1 1 l 1,-1 1,1 1,1 1,-1 1,1 h 1 1 1 l 1,-1 1,-1 1,1 h 1 1 l 1,1 h 1 1 1 1 l 1,-1 h 1 l 1,1 1,-1 1,1 1,-1 h 1 1 1 1 l 1,1 h 1 l 1,-1 h 1 1 1 1 1 l 1,1 h 1 1 l 1,-1 1,1 h 1 1 1 1 l 1,1 h 1 1 l 1,-1 h 1 l 1,1 1,1 h 1 l 1,-2 h 1 1 1 1 l 1,1 1,-2 h 1 1 l 1,1 h 1 l 1,-1 h 1 1 l 1,2 h 1 1 l 1,-2 h 1 1 l 1,1 1,-1 h 1 l 1,1 1,-1 h 1 l 1,1 h 1 l 1,1 h 1 1 1 l 1,-1 h 1 1 1 l 1,1 1,-1 h 1 l 1,-1 h 1 1 l 1,-1 h 1 l 1,1 1,-1 h 1 l 1,1 h 1 1 l 1,1 h 1 1 1 l 1,-2 h 1 1 l 1,-1 1,1 h 1 l 1,1 h 1 1 1 l 1,1 h 1 l 1,1 1,-1 1,1 h 1 l 1,1 1,-1 h 1 1 1 1 1 l 1,-1 h 1 l 1,1 h 1 l 1,-1 h 1 l 1,1 1,-1 1,-1 1,1 1,1 h 1 1 l 1,-1 h 1 1 1 1 l 1,-1 h 1 1 l 1,1 1,1 1,-2 h 1 1 1 1 1 l 1,-1 1,1 h 1 1 1 1 1 1 1 l 1,-1 h 1 l 1,1 h 1 1 1 1 1 1 l 1,-1 1,-1 h 1 1 l 1,1 1,1 1,-1 h 1 l 1,-1 1,1 h 1 l 1,-1 1,1 1,-1 1,1 1,-1 h 1 l 1,1 h 1 l 1,-2 1,1 1,-1 h 1 l 1,-1 1,1 h 1 1 1 l 1,-1 h 1 1 1 l 1,-1 h 1 l 1,1 h 1 1 1 1 1 1 l 1,1 1,1 1,-1 1,-1 1,-1 1,1 1,-1 h 1 l 1,1 1,-1 1,-1 h 1 l 1,-1 1,1 h 1 1 1 1 l 1,-2 h 1 l 1,2 h 1 1 l 1,-1 1,1 1,-1 h 1 l 1,-1 h 1 1 l 1,1 h 1 l 1,-2 h 1 l 1,1 h 1 1 l 1,1 h 1 l 1,-1 h 1 l 1,-1 1,1 1,-1 h 1 l 1,-1 h 1 l 1,1 1,-1 1,-1 1,1 h 1 1 l 1,1 1,-1 h 1 1 1 l 1,1 1,-1 h 1 1 1 1 1 1 1 1 1 1 1 1 l 1,-1 1,-1 h 1 l 1,1 1,-1 h 1 l 1,1 h 1 l 1,-1 h 1 1 l 1,-1 h 1 l 1,1 h 1 l 1,-1 h 1 l 1,-1 1,1 h 1 l 1,-1 1,-1 h 1 1 1 l 1,1 h 1 1 1 l 1,-1 1,-1 h 1 l 1,1 1,-2 h 1 l 1,1 1,-1 h 1 l 1,1 1,-1 1,1 h 1 l 1,-1 h 1 l 1,-1 1,-1 h 1 l 1,-1 h 1 l 1,-1 1,1 1,-1 h 1 l 1,1 1,1 h 1 l 1,-1 h 1 1 l 1,-1 1,1 h 1 l 1,1 1,1 1,-2 h 1 1 l 1,-1 1,1 1,-1 h 1 l 1,-2 1,1 1,1 h 1 l 1,1 1,-1 h 1 1 l 1,-1 h 1 l 1,1 1,1 h 1 1 l 1,-1 h 1 1 1 l 1,-2 1,2 1,-1 h 1 1 1 l 1,-1 h 1 1 1 l 1,-2 1,1 h 1 l 1,1 h 1 1 l 1,1 h 1 1 1 l 1,-1 1,1 h 1 l 1,2 h 1 1 l 1,1 1,-1 h 1 1 1 1 l 1,1 1,2 h 1 l 1,-2 h 1 1 1 1 l 1,1 1,1 h 1 l 1,1 1,1 h 1 l 1,-1 1,1 h 1 1 1 1 l 1,1 h 1 1 l 1,-1 1,1 1,2 h 1 1 1 l 1,-1 h 1 1 1 l 1,2 h 1 l 1,1 1,-1 1,-1 1,1 h 1 l 1,1 h 1 1 1 1 1 1 1 1 l 1,-1 1,1 h 1 1 1 1 1 1 1 1 1 1 1 l 1,1 1,1 1,2 1,-1 1,-2 1,-1 h 1 1 1 l 1,1 1,2 1,1 h 1 l 1,-2 h 1 l 1,-1 1,-1 h 1 l 1,-1 h 1 1 1 1 l 1,-1 1,-1 1,2 1,1 h 1 l 1,-1 h 1 l 1,-1 h 1 1 1 l 1,-1 1,-1 1,-1 1,1 1,-1 1,1 h 1 1 l 1,-1 h 1 l 1,-1 1,1 h 1 1 1 1 l 1,2 1,1 h 1 l 1,-1 1,-1 1,-1 1,-1 h 1 l 1,-1 h 1 1 l 1,2 h 1 1 l 1,1 h 1 l 1,-1 1,1 h 1 l 1,-1 1,-1 1,1 1,-1 1,-1 h 1 l 1,1 1,1 h 1 l 1,1 1,1 1,-1 1,-1 1,1 h 1 1 1 1 l 1,-1 1,-1 1,1 1,2 h 1 1 l 1,1 1,-1 1,-1 1,1 h 1 l 1,1 1,-1 1,1 h 1 1 l 1,1 h 1 1 1 1 l 1,-1 h 1 l 1,1 h 1 l 1,-1 h 1 l 1,1 h 1 1 1 1 l 1,-1 h 1 l 1,-1 1,1 h 1 l 1,-1 1,-1 1,1 1,1 1,-1 1,-1 1,-1 h 1 1 1 1 1 1 l 1,-1 1,-1 1,1 h 1 1 1 1 l 1,-1 1,1 h 1 l 1,-1 h 1 l 1,1 h 1 1 l 1,-1 h 1 l 1,1 1,1 1,-2 h 1 1 1 l 1,-1 1,-1 1,1 1,1 h 1 l 1,-1 1,-1 h 1 l 1,-1 h 1 1 1 l 1,1 1,-1 h 1 1 1 1 1 1 l 1,1 1,2 1,-1 h 1 l 1,-1 1,1 h 1 l 1,-1 h 1 l 1,-1 h 1 l 1,1 1,2 h 1 1 1 1 1 1 l 1,-1 h 1 l 1,1 h 1 l 1,1 1,2 1,2 h 1 l 1,-1 1,-3 1,-3 1,-1 1,1 h 1 l 1,1 h 1 1 l 1,1 1,1 1,-1 1,1 h 1 l 1,-1 h 1 1 1 1 1 1 1 l 1,-1 h 1 1 1 1 l 1,-1 h 1 1 l 1,1 h 1 l 1,-2 h 1 1 1 l 1,1 1,1 1,-1 h 1 l 1,-1 h 1 1 1 l 1,1 h 1 l 1,-2 1,1 h 1 l 1,-1 h 1 1 1 l 1,1 h 1 1 1 1 l 1,-1 h 1 l 1,1 1,-1 h 1 1 1 1 l 1,-1 1,1 h 1 l 1,-1 h 1 1 1 l 1,1 1,1 1,-1 h 1 l 1,-1 1,1 1,-1 1,1 1,1 1,-1 h 1 1 1 1 1 l 1,1 h 1 l 1,1 h 1 l 1,-1 h 1 1 1 1 1 l 1,1 1,2 h 1 l 1,2 1,-1 1,-1 1,1 h 1 l 1,1 h 1 1 1 1 1 l 1,1 h 1 1 l 1,-1 h 1 l 1,-1 h 1 l 1,1 1,-1 h 1 l 1,1 h 1 1 l 1,1 h 1 l 1,1 1,1 1,-1 1,-2 1,1 1,1 1,-2 1,2 1,-1 1,-1 1,-1 h 1 1 l 1,1 h 1 l 1,-1 1,2 1,-1 h 1 1 l 1,1 h 1 l 1,1 1,2 1,1 1,-1 1,-2 1,-2 h 1 1 l 1,-1 1,1 1,-1 h 1 l 1,-1 1,-1 1,-3 h 1 1 1 l 1,-2 h 1 1 l 1,-2 h 1 l 1,-1 1,-2 1,-2 h 1 l 1,1 h 1 l 1,-1 1,-1 1,-1 h 1 1 l 1,1 1,-1 h 1 l 1,-1 1,1 1,-1 h 1 l 1,1 h 1 1 1 l 1,-1 1,1 1,1 1,-2 h 1 1 l 1,-1 1,1 1,1 1,-1 1,-1 h 1 l 1,3 h 1 1 l 1,-1 1,-2 h 1 1 1 l 1,-1 h 1 1 l 1,1 h 1 l 1,-1 h 1 1 l 1,1 h 1 l 1,1 h 1 l 1,2 1,-2 1,-1 1,-1 h 1 l 1,1 1,1 1,-1 h 1 1 1 l 1,1 h 1 1 l 1,1 h 1 1 1 l 1,1 1,-1 1,2 1,-1 1,-2 h 1 1 l 1,1 1,1 h 1 l 1,-1 1,-1 h 1 1 1 l 1,-1 h 1 l 1,1 h 1 1 1 1 1 1 l 1,-1 1,1 1,1 h 1 l 1,1 1,1 h 1 1 l 1,1 1,-1 1,1 h 1 l 1,1 h 1 l 1,1 h 1 l 1,2 h 1 1 1 l 1,1 h 1 l 1,-1 1,1 h 1 1 1 l 1,1 h 1 l 1,1 1,-1 h 1 l 1,1 h 1 l 1,1 h 1 1 1 l 1,-3 1,2 h 1 1 1 l 1,1 h 1 l 1,1 1,-1 h 1 l 1,1 1,1 h 1 l 1,1 h 1 l 1,1 1,-2 1,1 1,1 h 1 1 1 1 l 1,-1 1,1 h 1 l 1,1 1,1 1,1 h 1 1 l 1,2 h 1 l 1,1 h 1 1 l 1,-2 h 1 l 1,-1 1,-2 h 1 l 1,2 1,2 h 1 l 1,1 1,-1 1,-2 1,-1 1,-1 h 1 1 1 1 l 1,3 1,2 1,-2 h 1 l 1,-1 1,-1 1,-1 h 1 l 1,-1 1,-1 h 1 l 1,-1 1,1 1,-1 1,1 1,-1 1,1 h 1 1 l 1,-1 1,-1 h 1 l 1,1 1,1 h 1 l 1,-1 h 1 l 1,-1 1,2 h 1 l 1,1 1,-1 h 1 1 1 l 1,-1 1,1 h 1 1 l 1,-1 h 1 l 1,1 1,1 h 1 l 1,1 1,1 1,-1 h 1 1 l 1,-1 1,1 1,1 1,2 h 1 1 1 1 1 l 1,1 h 1 l 1,1 1,1 1,-1 1,1 h 1 1 1 1 1 l 1,1 1,1 h 1 l 1,1 h 1 1 l 1,2 h 1 1 1 1 l 1,1 1,1 1,1 h 1 1 l 1,2 h 1 l 1,1 h 1 l 1,-1 h 1 l 1,1 h 1 1 l 1,-1 h 1 l 1,2 1,-1 1,1 h 1 l 1,2 1,1 1,1 1,-1 1,1 h 1 1 1 l 1,1 h 1 l 1,1 h 1 1 l 1,-1 h 1 l 1,1 h 1 1 1 l 1,1 1,1 1,1 1,-1 h 1 l 1,1 1,1 h 1 l 1,-1 h 1 1 l 1,1 1,1 1,1 h 1 l 1,1 1,-2 h 1 1 l 1,2 1,1 h 1 1 1 l 1,1 h 1 1 l 1,1 h 1 l 1,1 1,-1 1,1 1,1 h 1 1 l 1,1 h 1 1 1 1 l 1,1 1,1 1,-1 h 1 1 1 l 1,1 1,-1 1,-1 h 1 1 l 1,-1 h 1 1 1 l 1,1 h 1 l 1,-1 1,-1 1,-1 1,1 h 1 1 l 1,1 1,1 h 1 1 l 1,-1 1,-2 1,-1 1,-1 h 1 l 1,-1 1,1 1,1 1,-1 h 1 l 1,-1 h 1 l 1,1 h 1 1 1 1 l 1,1 h 1 l 1,-1 h 1 l 1,1 h 1 1 1 l 1,-1 1,-2 h 1 1 1 l 1,-1 1,-1 h 1 1 1 l 1,-1 h 1 1 1 l 1,1 1,2 h 1 l 1,2 1,-1 1,-1 h 1 l 1,1 1,-2 h 1 l 1,-1 1,1 h 1 l 1,-1 h 1 1 l 1,1 1,-1 h 1 l 1,1 h 1 l 1,1 1,-1 1,-1 h 1 1 l 1,-1 h 1 1 1 1 l 1,-1 1,1 h 1 1 1 l 1,-1 h 1 1 1 1 l 1,1 1,-1 1,-1 h 1 l 1,1 h 1 1 l 1,1 h 1 1 1 l 1,1 1,-1 h 1 l 1,1 1,-1 h 1 l 1,2 h 1 1 l 1,-1 1,1 h 1 1 1 l 1,-2 1,1 h 1 1 l 1,2 1,-1 1,-1 1,-1 h 1 1 l 1,1 h 1 l 1,1 h 1 1 l 1,1 1,-1 1,-1 1,1 h 1 l 1,1 1,-1 1,-1 h 1 1 l 1,1 h 1 l 1,-1 h 1 l 1,1 1,-1 1,1 1,-1 h 1 1 1 l 1,-1 1,1 1,1 1,-1 h 1 1 1 l 1,1 1,1 h 1 l 1,-1 h 1 1 1 l 1,1 1,1 h 1 1 1 l 1,-1 1,1 h 1 1 l 1,1 h 1 1 1 l 1,-1 1,1 h 1 l 1,1 1,-1 h 1 1 1 1 l 1,1 h 1 1 1 1 l 1,2 1,1 1,-1 1,-2 h 1 l 1,-1 h 1 l 1,1 h 1 1 1 1 l 1,1 1,-1 1,1 h 1 l 1,1 1,1 1,-1 1,-1 h 1 1 1 l 1,1 1,2 h 1 l 1,-1 1,1 1,-1 h 1 l 1,2 h 1 l 1,-2 h 1 l 1,-1 1,1 1,1 h 1 l 1,1 1,-1 1,1 h 1 1 1 l 1,-1 1,1 h 1 1 1 1 l 1,-1 1,1 1,1 1,-1 h 1 l 1,1 h 1 1 l 1,1 h 1 1 1 1 1 1 1 1 1 1 l 1,-1 1,1 1,2 h 1 l 1,-2 1,-2 h 1 l 1,-1 h 1 l 1,-1 h 1 l 1,1 h 1 l 1,1 h 1 1 l 1,1 h 1 l 1,-1 1,-1 1,-1 h 1 l 1,1 h 1 l 1,-1 1,1 1,-1 h 1 l 1,-1 1,1 h 1 l 1,-1 1,1 h 1 1 1 1 1 l 1,1 1,1 1,-1 h 1 l 1,1 1,-2 h 1 l 1,2 h 1 l 1,-1 h 1 1 1 1 l 1,2 1,-1 h 1 l 1,-1 h 1 l 1,1 1,-1 1,1 1,-1 1,1 h 1 1 l 1,1 1,-1 h 1 l 1,1 h 1 l 1,-1 h 1 1 l 1,1 1,-1 h 1 1 1 l 1,1 h 1 1 l 1,-1 1,1 h 1 1 l 1,1 1,-1 1,1 1,-1 h 1 1 1 l 1,-2 1,1 1,-1 1,1 h 1 1 l 1,-1 1,1 h 1 1 1 l 1,-1 h 1 1 l 1,-1 h 1 l 1,1 1,1 h 1 l 1,1 h 1 l 1,-1 h 1 l 1,-1 h 1 1 1 l 1,1 1,1 1,1 1,-1 1,2 h 1 1 1 1 l 1,-1 1,-1 1,1 h 1 l 1,1 1,-1 1,1 h 1 1 1 l 1,-1 h 1 l 1,-1 1,-1 h 1 1 1 l 1,1 h 1 l 1,1 h 1 1 l 1,-1 1,1 h 1 1 l 1,1 1,-1 h 1 l 1,-1 h 1 l 1,-1 1,1 h 1 1 1 1 1 l 1,1 h 1 l 1,-1 1,1 h 1 1 l 1,1 1,-1 1,-1 1,1 1,1 h 1 l 1,-2 1,1 h 1 l 1,1 h 1 1 l 1,1 1,-1 1,-1 1,1 h 1 l 1,-1 h 1 l 1,1 1,1 h 1 1 l 1,-1 h 1 l 1,1 h 1 1 1 1 l 1,1 1,-1 1,-1 h 1 l 1,2 1,-1 h 1 l 1,1 h 1 1 1 l 1,-1 1,1 h 1 1 l 1,1 h 1 l 1,-1 h 1 l 1,1 h 1 1 1 1 l 1,1 1,-2 1,1 1,1 h 1 1 l 1,-1 h 1 1 1 1 l 1,1 h 1 l 1,1 h 1 l 1,-1 h 1 1 l 1,1 1,1 h 1 l 1,-1 h 1 1 l 1,-1 h 1 1 1 1 l 1,-1 1,1 1,1 h 1 l 1,-1 h 1 l 1,1 1,-2 1,2 1,-1 h 1 1 1 1 1 1 1 1 l 1,-1 h 1 1 1 1 l 1,1 1,-1 h 1 1 l 1,-1 h 1 l 1,1 h 1 l 1,-2 h 1 l 1,1 1,-1 1,-1 1,1 h 1 1 l 1,1 1,-1 1,1 1,-1 h 1 1 1 1 1 l 1,-1 h 1 l 1,2 1,-2 h 1 1 1 l 1,-1 h 1 l 1,1 h 1 1 l 1,-1 h 1 l 1,1 1,-1 h 1 l 1,1 1,-1 1,1 1,-1 1,1 1,-1 h 1 1 l 1,-1 1,1 h 1 l 1,1 h 1 l 1,-1 1,-1 h 1 l 1,1 1,-1 h 1 l 1,2 1,-1 1,-1 h 1 1 l 1,1 1,1 1,-1 1,-1 h 1 1 1 l 1,-1 h 1 l 1,-1 h 1 l 1,1 h 1 1 1 l 1,-1 h 1 1 l 1,-1 1,-1 1,1 1,-1 h 1 l 1,1 h 1 1 l 1,1 1,-2 h 1 1 1 l 1,1 1,-1 1,-1 h 1 l 1,-1 1,2 h 1 l 1,-2 1,2 1,-1 1,-1 h 1 1 1 l 1,-1 h 1 l 1,-1 1,1 1,-1 h 1 1 l 1,1 h 1 l 1,-1 h 1 1 l 1,-1 1,1 1,1 h 1 l 1,-1 1,1 1,1 1,-1 h 1 1 l 1,-1 h 1 l 1,1 h 1 1 1 1 1 l 1,-1 h 1 1 1 1 l 1,1 1,1 1,-1 h 1 l 1,1 1,-1 1,-1 h 1 1 l 1,-1 h 1 1 l 1,1 1,-1 h 1 1 l 1,1 h 1 1 l 1,1 1,-1 h 1 l 1,1 h 1 l 1,-1 h 1 1 l 1,-1 1,1 h 1 1 l 1,-1 1,1 h 1 1 1 1 1 l 1,1 1,-1 h 1 1 l 1,-1 1,-1 h 1 l 1,-1 1,2 1,-1 1,1 h 1 l 1,1 1,1 h 1 l 1,-1 h 1 l 1,1 1,-1 h 1 l 1,1 1,-1 h 1 1 1 1 l 1,-1 h 1 l 1,1 h 1 1 l 1,-1 h 1 1 l 1,1 h 1 1 1 1 1 1 l 1,1 1,-1 1,-1 h 1 1 l 1,1 1,1 1,-1 1,-1 h 1 l 1,1 h 1 1 1 1 1 1 l 1,1 h 1 1 l 1,-1 h 1 l 1,1 1,-1 h 1 1 l 1,2 1,1 h 1 l 1,-1 h 1 l 1,1 1,-1 1,1 h 1 l 1,-1 1,1 h 1 l 1,1 1,1 1,-1 h 1 l 1,1 1,-1 1,2 h 1 1 1 l 1,-1 1,-1 1,1 1,1 1,-1 h 1 l 1,1 1,-1 1,1 h 1 l 1,2 1,-1 1,-1 1,1 h 1 l 1,-1 1,2 1,-1 1,1 1,-1 h 1 1 1 l 1,1 h 1 1 l 1,1 h 1 1 1 1 l 1,-1 h 1 l 1,1 h 1 l 1,-2 h 1 l 1,1 h 1 l 1,-1 h 1 1 l 1,-1 1,1 h 1 l 1,1 h 1 l 1,-1 h 1 1 l 1,-1 1,1 h 1 1 1 1 l 1,1 h 1 l 1,-1 1,-1 h 1 1 l 1,1 1,-1 h 1 1 1 1 l 1,-1 h 1 l 1,1 1,-1 1,-1 1,2 1,-1 1,1 h 1 1 l 1,-1 h 1 1 1 l 1,-1 1,-1 1,1 1,1 1,1 1,-1 1,1 h 1 l 1,-1 1,1 h 1 l 1,-1 h 1 l 1,1 1,-1 1,-2 1,2 h 1 1 1 l 1,1 h 1 l 1,-1 h 1 1 l 1,-1 h 1 1 1 1 1 1 l 1,-1 1,1 1,-1 h 1 l 1,1 1,-1 1,1 h 1 1 l 1,-1 1,-1 1,-1 h 1 l 1,1 h 1 l 1,-1 1,2 1,-1 1,-1 h 1 l 1,-1 h 1 1 1 l 1,-1 1,1 1,-1 1,1 h 1 l 1,-1 1,-1 h 1 l 1,1 h 1 1 l 1,-1 1,2 h 1 1 l 1,-1 h 1 1 l 1,-1 1,1 1,-1 h 1 1 l 1,1 1,-1 h 1 l 1,-1 1,-1 h 1 l 1,1 h 1 1 1 1 l 1,1 1,-1 1,-1 1,1 1,-1 h 1 1 l 1,-1 h 1 1 1 l 1,-1 h 1 1 l 1,1 1,-1 h 1 l 1,1 h 1 l 1,-1 h 1 1 1 l 1,-1 h 1 1 l 1,1 1,-2 1,1 1,-1 1,-2 1,1 1,1 1,1 h 1 1 1 l 1,-1 1,1 h 1 1 l 1,-2 1,1 h 1 1 1 1 l 1,-1 1,-1 h 1 1 l 1,-1 1,2 1,-1 h 1 l 1,-1 h 1 l 1,1 h 1 l 1,-1 1,1 1,-1 1,1 h 1 1 l 1,1 1,1 1,1 h 1 1 l 1,1 1,1 1,1 1,-2 1,-1 h 1 1 1 1 l 1,-1 1,-1 h 1 l 1,1 1,1 h 1 l 1,-1 h 1 l 1,2 h 1 1 l 1,1 1,-1 h 1 l 1,1 h 1 l 1,-1 1,-1 1,1 1,1 h 1 l 1,1 1,2 1,-1 1,1 1,1 1,-1 1,-2 h 1 l 1,1 1,1 h 1 l 1,1 h 1 l 1,-1 1,-1 1,-1 1,1 h 1 l 1,1 h 1 l 1,-1 h 1 l 1,1 h 1 1 1 1 1 1 1 1 l 1,1 1,-1 1,1 h 1 l 1,-1 h 1 l 1,1 h 1 l 1,1 1,1 1,-1 h 1 l 1,-1 1,1 h 1 l 1,1 h 1 1 l 1,-2 1,-1 h 1 l 1,1 1,-1 h 1 1 l 1,1 1,2 h 1 l 1,-1 h 1 1 l 1,1 h 1 1 l 1,-1 1,2 h 1 l 1,1 1,-1 1,-1 h 1 l 1,1 1,1 1,1 1,-1 h 1 l 1,1 1,-1 h 1 l 1,1 h 1 l 1,1 h 1 1 l 1,-3 1,1 h 1 l 1,1 h 1 l 1,2 1,-1 h 1 l 1,-1 h 1 1 1 1 l 1,1 1,1 1,-1 1,-1 1,1 h 1 l 1,1 1,1 h 1 l 1,-1 1,-2 h 1 1 l 1,1 h 1 1 l 1,1 1,-1 h 1 1 1 1 l 1,1 1,-1 1,-1 h 1 1 1 1 1 l 1,1 h 1 1 1 1 1 1 1 1 l 1,-1 h 1 l 1,1 1,-1 h 1 1 l 1,1 1,-1 h 1 1 l 1,-1 h 1 1 1 1 1 l 1,-1 1,1 h 1 l 1,1 h 1 1 1 1 l 1,-1 h 1 1 1 l 1,1 1,-1 h 1 l 1,-1 1,-1 1,1 h 1 1 l 1,-1 1,1 1,1 h 1 l 1,-1 h 1 l 1,1 h 1 1 1 1 l 1,-1 h 1 l 1,-1 1,-1 1,-1 1,1 h 1 l 1,1 1,-1 h 1 l 1,1 1,-1 h 1 1 1 l 1,-1 h 1 l 1,1 h 1 1 l 1,-1 h 1 1 l 1,1 h 1 l 1,-1 1,-1 1,1 1,1 1,-1 1,-1 h 1 1 l 1,1 h 1 1 1 1 l 1,-1 h 1 l 1,1 h 1 l 1,-1 1,1 h 1 1 1 1 l 1,1 1,-1 1,1 h 1 l 1,-1 h 1 1 1 l 1,-1 1,-1 h 1 l 1,1 h 1 l 1,1 h 1 l 1,-1 1,-1 1,2 h 1 1 l 1,-1 h 1 1 l 1,1 h 1 1 l 1,-1 h 1 l 1,-1 h 1 l 1,1 1,-1 h 1 l 1,2 1,-1 1,-1 h 1 1 l 1,1 h 1 1 1 l 1,1 1,1 1,-1 1,-1 1,1 1,-1 h 1 1 1 1 l 1,-1 1,1 h 1 1 l 1,-1 1,1 h 1 l 1,-1 h 1 l 1,1 h 1 1 1 1 1 1 l 1,-1 h 1 1 l 1,1 h 1 1 1 l 1,-1 h 1 l 1,1 h 1 1 l 1,-1 h 1 1 l 1,1 1,-1 h 1 l 1,-1 1,1 1,-1 1,1 h 1 l 1,-1 h 1 l 1,1 1,1 h 1 l 1,-1 1,-1 h 1 l 1,-1 1,1 1,-1 1,1 1,-1 h 1 l 1,-1 1,-1 1,1 h 1 1 1 1 l 1,-1 1,1 h 1 l 1,-1 h 1 1 1 l 1,1 h 1 1 l 1,-1 1,1 1,-1 1,1 h 1 l 1,-2 1,2 h 1 l 1,-1 h 1 1 l 1,-1 h 1 l 1,1 h 1 l 1,-1 1,1 1,-1 h 1 1 l 1,1 h 1 1 l 1,1 h 1 1 1 l 1,-1 h 1 l 1,1 1,-1 1,1 h 1 1 l 1,-1 1,1 1,-2 h 1 l 1,-1 1,1 1,-1 h 1 l 1,1 1,-1 h 1 l 1,1 1,-1 h 1 1 1 1 1 l 1,2 h 1 l 1,-1 1,1 h 1 1 1 1 l 1,-1 h 1 1 l 1,-1 h 1 l 1,1 h 1 l 1,-1 1,1 1,-2 1,1 1,-1 h 1 l 1,1 1,-1 1,-1 h 1 l 1,1 h 1 1 l 1,-1 h 1 l 1,-1 h 1 1 l 1,-1 1,1 1,-1 h 1 l 1,1 h 1 l 1,-1 1,2 1,-1 h 1 l 1,-1 h 1 1 l 1,1 h 1 1 1 1 l 1,-2 1,1 h 1 l 1,-1 h 1 1 1 l 1,1 1,-1 h 1 1 1 l 1,-1 h 1 l 1,1 1,-1 1,1 h 1 1 l 1,1 1,-1 1,-1 1,1 1,1 1,-1 1,-1 1,1 1,-1 1,1 1,-1 h 1 l 1,1 1,-1 h 1 l 1,1 1,-1 h 1 l 1,1 1,-1 h 1 1 1 l 1,-1 h 1 l 1,1 h 1 1 l 1,-1 1,1 h 1 1 1 1 1 1 l 1,-1 1,1 h 1 1 1 1 1 1 1 1 1 1 l 1,-1 h 1 1 l 1,1 h 1 1 1 l 1,1 h 1 1 1 l 1,-1 h 1 1 1 l 1,1 h 1 1 1 1 l 1,-1 h 1 1 1 l 1,-1 h 1 l 1,1 1,1 h 1 1 l 1,-1 h 1 1 1 1 l 1,1 1,-1 1,1 1,1 h 1 l 1,-1 h 1 1 l 1,-1 1,1 1,-2 1,1 h 1 1 1 1 1 1 1 1 1 1 1 l 1,-1 1,1 1,-1 1,2 1,-2 h 1 l 1,1 1,-1 h 1 1 l 1,-1 h 1 1 l 1,-1 h 1 l 1,1 1,-1 h 1 l 1,1 h 1 l 1,-1 1,-1 h 1 1 1 l 1,1 h 1 1 l 1,-1 h 1 l 1,1 1,-1 h 1 l 1,1 h 1 1 1 l 1,1 1,-2 h 1 l 1,1 1,-2 h 1 l 1,1 1,1 h 1 1 l 1,1 1,-1 h 1 1 l 1,-1 h 1 1 1 1 l 1,-1 h 1 1 l 1,1 1,-1 h 1 1 1 l 1,-1 1,1 1,1 h 1 l 1,-1 1,-1 1,1 1,-1 h 1 1 l 1,1 h 1 l 1,-1 h 1 l 1,-1 1,1 h 1 l 1,-1 1,-1 1,1 1,1 1,1 h 1 l 1,-1 1,-1 1,1 1,-1 1,-1 h 1 1 1 1 1 1 l 1,1 1,1 h 1 1 l 1,-1 h 1 l 1,-1 h 1 1 l 1,1 1,-1 1,-1 1,1 1,-1 h 1 l 1,1 1,1 1,1 1,-2 1,-1 h 1 1 1 l 1,-1 h 1 1 1 l 1,-1 1,1 h 1 1 l 1,1 1,-1 h 1 1 1 l 1,-1 1,1 h 1 1 1 1 1 1 1 1 l 1,-1 1,-1 h 1 1 1 1 l 1,-1 h 1 1 l 1,1 1,-1 h 1 1 1 1 1 1 1 l 1,1 1,-1 1,2 1,-2 h 1 1 1 l 1,-1 1,1 h 1 1 1 l 1,-1 1,-1 1,1 h 1 1 1 1 l 1,1 1,1 1,-1 h 1 l 1,1 h 1 l 1,-1 h 1 l 1,-1 h 1 1 l 1,-1 h 1 l 1,2 1,-2 h 1 l 1,1 1,1 1,-2 h 1 l 1,2 h 1 1 l 1,1 1,-1 h 1 l 1,-1 1,1 h 1 1 l 1,-2 1,1 h 1 l 1,-1 1,1 1,1 h 1 l 1,-1 1,-1 1,1 1,-1 h 1 1 l 1,1 1,1 h 1 l 1,-1 h 1 l 1,1 h 1 l 1,-1 1,-1 1,1 1,1 h 1 1 l 1,1 h 1 l 1,-1 h 1 l 1,-1 h 1 l 1,1 1,1 1,1 h 1 l 1,-1 h 1 1 l 1,-2 h 1 1 1 1 1 1 l 1,-1 h 1 l 1,1 1,-1 h 1 l 1,1 h 1 1 1 1 1 l 1,2 h 1 1 l 1,1 1,-1 h 1 l 1,-1 h 1 l 1,-1 1,1 1,1 1,-1 1,1 1,1 h 1 1 l 1,-1 h 1 1 1 l 1,1 1,-1 h 1 l 1,1 h 1 l 1,-1 h 1 1 l 1,-1 1,1 h 1 l 1,1 1,1 h 1 1 1 1 l 1,-1 h 1 1 l 1,-1 h 1 1 l 1,-1 1,1 h 1 1 1 1 1 l 1,1 h 1 l 1,-1 1,-1 h 1 l 1,1 h 1 1 l 1,-2 1,1 h 1 l 1,-1 1,1 h 1 1 1 l 1,-1 h 1 1 l 1,1 1,1 1,-1 1,1 1,-1 1,-1 h 1 1 1 1 1 l 1,1 h 1 1 1 l 1,-1 1,1 1,-2 1,2 1,1 h 1 1 l 1,-1 1,1 h 1 1 1 l 1,-1 h 1 l 1,-1 1,1 h 1 l 1,-2 h 1 l 1,1 h 1 1 l 1,1 1,-1 h 1 l 1,1 1,-1 1,1 h 1 1 l 1,1 1,1 h 1 l 1,-2 h 1 l 1,1 h 1 l 1,-1 h 1 l 1,1 1,-1 h 1 1 1 l 1,1 1,-1 h 1 l 1,1 h 1 l 1,-1 h 1 1 1 1 l 1,-1 1,1 1,-1 1,1 1,1 1,-1 h 1 1 1 1 l 1,-1 h 1 1 l 1,1 1,1 1,-1 1,-2 1,-1 1,2 h 1 l 1,1 1,-1 h 1 1 1 l 1,-1 h 1 1 1 l 1,-1 1,-1 1,-1 h 1 1 l 1,-1 1,-1 h 1 1 1 l 1,1 1,1 1,-1 1,1 1,-1 h 1 1 1 l 1,-1 1,-1 h 1 l 1,-1 1,-1 h 1 l 1,1 1,-2 h 1 l 1,-1 1,-1 1,1 h 1 l 1,-1 h 1 l 1,1 h 1 l 1,-1 h 1 l 1,1 1,-2 h 1 1 l 1,-1 1,1 h 1 l 1,-1 h 1 1 1 1 l 1,-2 h 1 l 1,-1 h 1 l 1,1 1,-1 h 1 l 1,-1 h 1 1 l 1,-1 1,-1 h 1 l 1,-1 1,1 1,1 1,-1 h 1 1 1 l 1,-1 h 1 l 1,-1 h 1 1 l 1,-1 h 1 1 1 l 1,-1 h 1 l 1,-1 1,1 h 1 1 1 l 1,1 h 1 1 l 1,-1 h 1 l 1,-1 1,-1 1,-1 1,1 h 1 l 1,-1 1,1 1,1 h 1 l 1,-1 1,-2 1,1 1,-1 1,-1 1,1 1,-1 1,1 h 1 l 1,-1 1,-1 h 1 1 l 1,-1 1,-1 1,1 h 1 1 l 1,-1 h 1 l 1,-1 h 1 1 l 1,1 h 1 l 1,-1 1,1 h 1 l 1,-1 1,2 h 1 l 1,-1 1,1 h 1 1 l 1,-1 1,1 1,-1 1,1 1,1 1,1 1,1 1,1 1,1 1,-1 h 1 1 l 1,-1 h 1 1 1 l 1,-1 1,1 1,1 1,1 h 1 l 1,1 h 1 l 1,1 1,1 h 1 l 1,-1 h 1 1 1 1 l 1,1 1,-1 1,2 h 1 1 l 1,1 1,1 h 1 1 l 1,1 h 1 l 1,1 h 1 l 1,-1 h 1 l 1,-1 1,1 1,1 1,1 1,-1 1,1 1,1 1,-1 h 1 1 l 1,1 h 1 l 1,2 h 1 1 l 1,1 h 1 1 1 1 l 1,1 1,1 1,-1 1,1 h 1 l 1,1 h 1 l 1,1 1,1 h 1 l 1,1 1,1 1,1 1,-1 h 1 l 1,1 h 1 1 l 1,1 1,1 1,1 1,1 h 1 l 1,1 1,-1 h 1 l 1,1 1,1 h 1 1 l 1,1 1,1 h 1 l 1,-1 h 1 l 1,1 1,1 1,-1 1,1 h 1 1 1 1 1 1 1 1 1 1 1 l 1,2 1,-1 h 1 l 1,1 1,1 1,-1 1,1 1,1 1,-1 1,1 1,1 h 1 1 1 1 l 1,2 h 1 1 1 l 1,1 h 1 1 l 1,1 1,-1 1,-1 h 1 l 1,1 h 1 l 1,2 1,1 1,1 h 1 l 1,-2 h 1 1 l 1,1 h 1 l 1,1 1,-1 1,1 1,-2 h 1 1 l 1,1 h 1 l 1,-1 h 1 1 1 1 l 1,1 h 1 1 l 1,1 h 1 1 l 1,-1 1,1 h 1 l 1,-1 h 1 l 1,1 h 1 1 l 1,-1 1,-1 1,2 1,-1 h 1 1 l 1,-1 1,1 h 1 l 1,-1 1,1 h 1 l 1,-2 1,1 h 1 1 1 l 1,-1 1,-1 h 1 l 1,1 h 1 l 1,-1 h 1 1 1 1 l 1,-1 h 1 l 1,-1 1,2 1,1 1,-1 1,-1 1,1 1,-1 h 1 l 1,-1 1,1 1,-1 h 1 l 1,1 1,1 h 1 l 1,-2 1,1 1,1 h 1 l 1,-2 1,-1 h 1 l 1,1 h 1 1 1 1 1 1 1 1 l 1,-1 h 1 l 1,-1 1,1 h 1 l 1,1 h 1 1 1 1 1 1 l 1,-1 h 1 l 1,1 1,-1 h 1 l 1,1 h 1 l 1,1 h 1 l 1,-1 h 1 1 1 l 1,-1 1,-1 1,1 h 1 l 1,1 1,-1 h 1 l 1,1 1,-1 1,1 1,1 1,-1 h 1 l 1,1 h 1 1 l 1,1 1,1 1,-1 h 1 l 1,1 1,-1 1,1 1,-1 1,1 h 1 l 1,2 1,1 h 1 l 1,1 1,1 1,-1 h 1 l 1,-1 1,-1 1,-1 1,-1 1,1 1,1 h 1 l 1,-1 1,1 1,-2 h 1 1 l 1,-1 1,1 h 1 l 1,-1 1,1 1,-1 h 1 l 1,1 h 1 1 l 1,1 h 1 1 l 1,-1 h 1 l 1,1 1,1 1,-1 1,-1 h 1 1 l 1,1 1,-1 1,-1 h 1 1 1 l 1,-1 1,1 1,2 1,1 h 1 l 1,-1 1,-1 1,-1 h 1 1 1 l 1,-1 1,1 h 1 1 l 1,1 1,1 1,-1 1,-1 h 1 1 l 1,2 1,1 1,1 1,-1 1,-1 h 1 1 l 1,-1 1,1 1,-1 h 1 1 l 1,1 h 1 1 1 l 1,1 h 1 l 1,-2 1,1 1,1 1,-1 1,1 1,1 h 1 1 l 1,1 h 1 l 1,1 h 1 1 l 1,-1 h 1 l 1,1 h 1 1 1 1 1 l 1,1 1,1 h 1 l 1,-1 1,1 1,1 1,2 1,2 1,-1 1,1 1,-1 h 1 l 1,-2 h 1 1 1 1 1 1 l 1,2 h 1 1 1 1 1 l 1,1 1,1 h 1 1 l 1,-1 h 1 l 1,-1 h 1 1 l 1,1 1,1 1,1 1,-1 h 1 l 1,-2 1,2 h 1 l 1,1 1,1 h 1 l 1,2 1,2 1,-2 1,-3 1,-3 1,-1 1,-1 h 1 1 1 1 l 1,1 1,2 h 1 l 1,-1 1,-2 h 1 1 1 1 l 1,1 1,-1 1,-2 1,1 1,1 h 1 1 1 l 1,-1 h 1 1 l 1,-1 1,-1 h 1 l 1,-2 1,-1 h 1 1 l 1,1 1,-1 h 1 l 1,1 1,1 1,1 1,1 1,-2 h 1 l 1,-1 1,-1 h 1 l 1,-1 h 1 l 1,-1 1,1 h 1 l 1,-2 h 1 1 l 1,-1 h 1 1 l 1,1 h 1 l 1,1 1,-1 1,-1 h 1 1 l 1,1 h 1 l 1,-1 h 1 1 1 1 1 l 1,-1 1,1 1,-1 h 1 1 1 1 1 1 l 1,-1 1,-1 1,1 h 1 l 1,1 h 1 1 l 1,1 h 1 1 1 l 1,-1 h 1 l 1,-1 1,1 1,-1 h 1 1 l 1,2 h 1 1 l 1,2 1,1 1,-1 h 1 1 1 1 1 1 1 1 1 l 1,1 h 1 1 1 l 1,1 h 1 1 1 1 1 1 1 l 1,1 1,-1 h 1 1 l 1,-1 1,1 h 1 l 1,-2 1,1 1,2 1,-1 h 1 1 l 1,-1 h 1 l 1,1 1,1 1,-1 h 1 l 1,-1 1,-1 h 1 l 1,1 h 1 1 l 1,1 1,1 1,1 1,2 h 1 l 1,-1 1,-1 1,-1 1,-2 1,-1 h 1 l 1,2 1,1 1,-2 1,-1 1,-1 1,-1 h 1 1 1 1 l 1,-2 h 1 l 1,1 h 1 1 l 1,1 1,-1 1,-1 1,-1 1,-1 h 1 1 l 1,-1 1,-1 1,-1 h 1 l 1,1 1,1 1,-1 1,-1 1,-1 h 1 l 1,-1 1,-1 1,-1 1,2 h 1 l 1,-1 1,-1 1,-1 1,1 h 1 1 l 1,1 1,-1 1,-1 1,1 h 1 1 l 1,-1 h 1 1 l 1,-1 h 1 l 1,-1 h 1 l 1,1 1,1 1,-1 1,1 1,-1 1,1 h 1 1 1 l 1,-1 h 1 l 1,1 1,1 1,-1 1,-1 1,1 1,1 1,-1 1,1 1,1 h 1 l 1,1 1,1 h 1 1 1 1 1 1 1 l 1,1 1,-1 h 1 1 1 1 1 1 1 1 1 l 1,1 h 1 l 1,2 h 1 1 l 1,-1 1,-1 h 1 l 1,1 h 1 1 1 1 l 1,1 h 1 1 l 1,2 1,1 1,-1 h 1 l 1,1 1,-1 1,1 h 1 1 1 l 1,1 h 1 1 l 1,1 h 1 1 l 1,1 1,1 1,1 1,-2 1,1 h 1 1 l 1,2 1,-1 1,1 h 1 l 1,1 h 1 1 1 l 1,2 1,1 h 1 l 1,2 1,1 1,2 1,1 1,1 1,-2 1,-1 1,1 1,1 1,1 1,-1 1,1 1,2 1,3 1,2 h 1 l 1,-2 1,-2 1,-1 h 1 1 l 1,2 1,1 1,1 1,1 1,-1 1,-2 1,-2 1,2 1,1 h 1 l 1,1 1,-1 1,-1 1,-4 1,-1 1,-1 h 1 l 1,-1 h 1 1 1 l 1,-1 h 1 l 1,1 h 1 l 1,-2 1,-1 1,1 h 1 l 1,-1 1,2 h 1 1 l 1,1 h 1 1 1 l 1,-1 1,-1 1,-2 1,-1 1,-2 1,-1 h 1 l 1,1 h 1 l 1,2 1,-1 1,-1 h 1 1 l 1,-1 h 1 l 1,-2 1,1 h 1 l 1,-2 1,-1 1,-1 h 1 1 l 1,-1 1,1 1,1 h 1 l 1,-1 1,1 h 1 1 l 1,1 1,1 h 1 1 1 1 1 1 1 1 l 1,-1 1,1 1,1 1,-1 h 1 1 1 l 1,1 h 1 1 l 1,1 h 1 1 l 1,-1 1,1 1,1 h 1 l 1,1 h 1 1 l 1,1 h 1 l 1,-1 h 1 1 1 1 1 1 l 1,1 h 1 1 l 1,1 1,1 1,1 h 1 l 1,2 h 1 l 1,-1 h 1 1 l 1,2 h 1 1 1 l 1,1 1,1 1,-1 1,-1 1,-1 1,1 h 1 1 l 1,2 1,1 1,-1 h 1 l 1,1 h 1 1 1 l 1,2 h 1 l 1,1 h 1 1 l 1,1 1,1 1,1 h 1 l 1,-2 h 1 l 1,1 1,-1 h 1 1 l 1,1 1,1 1,-1 h 1 l 1,1 h 1 1 l 1,1 h 1 1 1 l 1,1 h 1 l 1,-2 h 1 l 1,-2 1,-2 1,-1 1,1 1,-1 1,2 1,1 1,-1 1,-1 1,3 1,3 h 1 1 l 1,-1 1,-2 1,-4 1,-3 1,-3 1,-1 1,-2 h 1 l 1,1 h 1 l 1,-1 h 1 1 1 1 l 1,-1 h 1 l 1,-1 1,-1 1,-1 1,-2 h 1 1 1 l 1,-2 h 1 l 1,-1 h 1 1 l 1,1 1,-1 1,-1 1,1 1,1 1,2 1,-2 h 1 1 l 1,-1 1,-3 1,-1 h 1 l 1,-1 h 1 1 l 1,-1 1,1 h 1 l 1,1 1,-2 1,1 h 1 1 l 1,1 h 1 1 l 1,-1 h 1 l 1,1 1,-1 h 1 l 1,1 1,-1 h 1 l 1,1 h 1 l 1,-1 1,2 h 1 l 1,-1 1,1 h 1 1 1 1 1 l 1,-1 1,2 h 1 1 l 1,1 h 1 l 1,-1 h 1 1 l 1,1 1,-2 h 1 1 1 1 1 l 1,2 h 1 l 1,1 h 1 1 1 l 1,1 h 1 1 l 1,-1 1,1 h 1 1 l 1,1 1,2 1,-1 1,1 1,-1 h 1 1 l 1,1 1,1 1,2 1,1 1,-1 1,-2 1,-1 h 1 l 1,1 1,1 h 1 l 1,1 1,1 h 1 l 1,1 1,2 1,-1 1,1 1,3 1,1 1,-2 1,-1 1,-1 1,-2 1,-3 h 1 l 1,-1 h 1 l 1,1 1,1 h 1 l 1,-1 1,-2 1,-1 1,-1 1,-1 h 1 l 1,-1 1,-1 h 1 l 1,-2 1,-1 1,2 1,-1 h 1 l 1,1 1,-2 1,1 1,3 1,1 1,-1 1,-1 1,1 1,-1 h 1 l 1,-2 1,-1 1,-1 1,-1 1,-1 1,1 h 1 l 1,1 h 1 l 1,-1 h 1 1 1 l 1,-1 h 1 1 1 1 1 1 1 1 l 1,-1 h 1 1 1 l 1,-1 h 1 l 1,-1 h 1 1 1 1 1 l 1,2 h 1 1 l 1,-2 1,-1 h 1 1 l 1,-1 h 1 1 l 1,1 h 1 l 1,1 1,-1 1,2 1,-1 1,-1 1,-1 1,-1 1,1 1,-1 h 1 l 1,1 1,-1 h 1 l 1,-1 h 1 1 l 1,1 h 1 l 1,1 h 1 l 1,-1 h 1 l 1,-1 1,-1 1,-1 1,3 1,1 h 1 1 l 1,1 1,-1 1,-1 1,-1 1,1 h 1 l 1,-2 1,-1 1,-1 1,1 h 1 1 l 1,1 h 1 1 l 1,-1 1,1 h 1 1 1 1 1 1 l 1,3 h 1 l 1,1 h 1 1 1 l 1,1 1,1 1,-1 1,1 1,1 h 1 l 1,-1 1,1 h 1 1 1 l 1,-1 h 1 1 l 1,2 1,2 h 1 l 1,-1 1,-1 1,-3 1,-2 1,-2 h 1 1 l 1,3 1,2 1,-1 1,-1 h 1 1 l 1,-1 1,1 h 1 1 l 1,-2 1,-2 1,-1 h 1 l 1,-2 1,-1 h 1 l 1,1 1,1 1,2 1,1 h 1 1 1 1 l 1,-2 1,-1 1,-1 1,-1 1,1 1,1 1,-1 1,-1 1,1 1,2 1,1 1,-1 1,-1 h 1 l 1,-1 h 1 1 1 l 1,-1 1,1 h 1 l 1,1 h 1 l 1,-1 h 1 1 l 1,1 h 1 1 1 l 1,1 h 1 l 1,-1 1,1 1,-1 1,-1 h 1 1 1 1 1 1 l 1,1 1,1 h 1 l 1,1 h 1 l 1,1 h 1 l 1,-1 1,1 1,1 h 1 l 1,1 1,1 1,-2 h 1 l 1,-1 h 1 l 1,1 1,-1 1,1 h 1 l 1,1 h 1 l 1,1 h 1 l 1,-1 1,1 h 1 1 l 1,1 1,1 h 1 1 1 1 l 1,-1 1,1 1,2 1,1 1,-1 h 1 l 1,1 h 1 l 1,-1 h 1 1 1 1 l 1,1 h 1 1 1 l 1,1 h 1 l 1,1 h 1 l 1,1 h 1 1 1 l 1,1 h 1 1 1 l 1,-1 1,2 1,2 h 1 l 1,-1 h 1 l 1,1 1,1 1,1 h 1 l 1,-1 1,1 h 1 l 1,1 1,-1 h 1 1 1 1 1 l 1,1 h 1 l 1,2 1,-2 h 1 1 l 1,1 h 1 l 1,1 h 1 l 1,-1 h 1 l 1,-1 1,1 1,1 1,1 h 1 1 l 1,1 1,1 1,-1 h 1 l 1,-1 h 1 l 1,1 h 1 l 1,1 h 1 1 l 1,1 h 1 1 l 1,2 1,1 1,-1 h 1 l 1,-1 h 1 1 l 1,1 h 1 l 1,-1 h 1 l 1,-1 1,2 1,-2 1,1 h 1 1 1 1 1 l 1,-2 h 1 l 1,2 1,-1 1,-1 h 1 l 1,1 h 1 l 1,1 1,-1 1,1 1,-1 h 1 1 1 l 1,-1 1,-1 1,1 h 1 1 1 l 1,-1 h 1 l 1,-1 1,1 1,1 h 1 l 1,-1 h 1 l 1,1 1,1 1,1 1,-1 h 1 l 1,1 1,-1 1,1 h 1 1 l 1,-1 1,1 1,-1 h 1 1 l 1,-1 h 1 1 1 1 l 1,-1 h 1 l 1,2 h 1 l 1,-1 1,1 h 1 1 1 1 1 l 1,-1 h 1 l 1,1 1,1 1,-1 1,1 1,-1 h 1 1 l 1,-1 1,-1 1,1 1,-1 1,1 h 1 1 l 1,-1 1,1 1,1 1,-2 1,1 h 1 l 1,1 h 1 1 1 l 1,-1 h 1 1 1 1 1 1 l 1,1 1,1 1,-2 h 1 l 1,-1 1,-1 h 1 l 1,1 1,1 1,-1 h 1 1 1 l 1,-1 1,1 h 1 l 1,-2 1,1 h 1 1 l 1,-1 h 1 l 1,1 1,1 1,-1 1,-3 h 1 1 1 1 l 1,1 1,2 1,-1 1,-1 1,-1 1,-2 h 1 l 1,-1 1,1 h 1 1 1 l 1,-1 1,2 h 1 l 1,-2 h 1 1 l 1,-1 h 1 l 1,1 1,1 h 1 1 l 1,1 1,2 h 1 l 1,-1 1,-2 1,1 1,-2 1,-1 h 1 1 l 1,-1 h 1 l 1,1 h 1 1 l 1,-2 1,-1 1,-1 h 1 l 1,-1 1,1 1,-1 h 1 1 l 1,-1 1,1 1,1 1,-1 h 1 l 1,-1 h 1 1 1 l 1,-1 h 1 1 1 1 1 1 1 1 l 1,-1 1,-1 h 1 1 1 1 1 l 1,1 h 1 1 l 1,-1 1,-1 1,1 1,2 h 1 1 1 1 l 1,-1 h 1 1 1 l 1,1 h 1 1 1 1 1 l 1,-1 h 1 l 1,1 h 1 1 1 1 1 1 1 1 1 1 1 1 1 1 l 1,-1 h 1 l 1,1 h 1 l 1,1 1,-1 1,1 1,1 h 1 1 l 1,-2 h 1 l 1,1 h 1 l 1,1 1,1 h 1 l 1,1 h 1 l 1,-1 1,2 1,1 h 1 1 l 1,-3 h 1 l 1,-1 h 1 l 1,2 h 1 l 1,2 1,1 h 1 l 1,-1 1,-2 1,-2 1,-2 1,1 1,2 h 1 l 1,-2 1,1 1,-1 1,-1 h 1 l 1,1 1,1 1,-2 1,-1 1,-1 h 1 l 1,-1 1,-1 1,-1 1,-2 1,-1 1,1 h 1 l 1,-1 1,1 h 1 l 1,-1 1,1 1,-2 h 1 1 l 1,-1 1,-1 1,1 h 1 l 1,-2 h 1 1 l 1,-1 1,-2 h 1 l 1,1 1,-1 h 1 l 1,1 1,1 h 1 1 1 l 1,-1 1,1 1,1 h 1 1 1 l 1,-1 1,1 1,1 1,2 h 1 1 1 l 1,-1 1,-1 1,-1 h 1 l 1,2 h 1 l 1,-1 1,1 h 1 1 l 1,1 h 1 l 1,2 1,-2 1,-1 1,1 1,1 1,1 1,1 h 1 1 l 1,1 h 1 1 l 1,1 h 1 1 l 1,1 1,1 h 1 1 l 1,-2 1,1 1,1 1,-1 1,2 1,1 h 1 l 1,1 1,1 1,-1 1,-1 h 1 l 1,1 h 1 l 1,-1 h 1 l 1,1 1,2 1,2 1,-2 1,-1 1,2 1,2 1,2 h 1 1 l 1,1 1,2 1,1 1,-2 1,-2 1,-3 1,-4 1,-1 h 1 l 1,-2 1,-1 h 1 l 1,1 1,1 1,1 1,-1 1,-1 h 1 l 1,-1 1,1 1,-1 1,-2 1,-2 1,-2 h 1 1 1 1 l 1,-2 1,-3 h 1 l 1,-1 h 1 l 1,1 h 1 l 1,-1 h 1 l 1,1 h 1 l 1,-1 1,1 h 1 1 l 1,1 1,1 h 1 l 1,-1 1,-1 h 1 l 1,-1 h 1 1 l 1,1 1,-2 h 1 l 1,1 1,1 h 1 1 1 1 l 1,1 h 1 1 l 1,1 h 1 l 1,1 1,1 h 1 l 1,-1 h 1 1 1 l 1,2 1,2 h 1 l 1,-1 1,1 1,-1 h 1 l 1,1 1,1 1,-1 1,1 h 1 1 1 1 l 1,1 1,1 h 1 l 1,1 h 1 1 l 1,1 1,1 h 1 1 1 1 l 1,1 h 1 1 l 1,1 h 1 l 1,1 h 1 1 l 1,-1 1,1 1,1 1,2 1,-1 1,-1 h 1 l 1,-2 h 1 l 1,1 1,1 1,1 1,-1 1,1 1,-1 1,1 h 1 1 l 1,1 1,3 1,-1 h 1 l 1,1 1,1 1,2 1,1 1,-1 1,-1 1,-2 h 1 l 1,2 1,2 1,-1 1,-1 1,-1 1,-3 1,-1 1,1 1,1 1,2 1,2 1,1 1,-3 1,-2 h 1 1 1 l 1,-1 1,-2 1,-3 h 1 l 1,2 h 1 l 1,-1 1,-2 1,-3 1,1 1,-1 h 1 1 1 l 1,-1 1,-1 1,1 h 1 1 l 1,-1 h 1 l 1,-1 1,-1 1,-1 h 1 1 1 l 1,-1 1,-1 1,2 1,1 1,1 h 1 l 1,-1 h 1 l 1,-2 1,-1 1,1 h 1 l 1,2 h 1 l 1,1 1,1 h 1 1 1 1 1 1 1 l 1,1 1,1 h 1 l 1,-1 1,1 1,1 h 1 l 1,-1 1,1 1,-2 1,-1 1,1 1,-1 1,-1 1,1 1,1 1,1 1,2 h 1 l 1,-1 h 1 1 l 1,-1 1,-1 h 1 1 l 1,2 h 1 1 l 1,1 h 1 1 l 1,1 1,2 1,1 1,1 1,-1 1,-1 1,-2 h 1 l 1,3 1,2 1,2 1,1 1,-1 1,-2 h 1 l 1,-2 1,-1 1,-2 1,1 h 1 l 1,-1 1,1 1,4 1,1 1,-2 1,-2 1,-2 1,-1 1,-1 1,-2 1,-2 h 1 1 l 1,-1 1,-1 1,-1 1,-1 1,1 h 1 1 l 1,-1 1,-2 1,-1 h 1 1 l 1,2 1,1 1,-1 1,-1 1,-2 h 1 1 1 1 l 1,-1 h 1 1 l 1,-2 h 1 l 1,1 h 1 l 1,2 1,1 1,-1 1,1 1,-1 1,-2 1,1 h 1 1 l 1,1 h 1 l 1,1 1,1 1,1 h 1 1 1 l 1,1 1,1 h 1 1 l 1,1 h 1 l 1,1 h 1 l 1,-1 1,1 1,1 h 1 l 1,1 1,-1 h 1 l 1,1 1,1 1,-1 1,1 h 1 l 1,1 1,1 h 1 l 1,1 h 1 1 1 l 1,-1 1,-1 1,1 h 1 l 1,1 h 1 1 l 1,1 h 1 1 1 1 1 l 1,1 1,1 h 1 l 1,-1 1,-1 1,1 h 1 1 1 l 1,-1 1,1 1,2 1,-1 h 1 1 1 l 1,2 h 1 1 l 1,-1 h 1 l 1,1 1,1 1,1 h 1 l 1,-1 1,-1 h 1 l 1,1 h 1 l 1,-1 1,-1 1,-2 1,-1 h 1 1 1 1 l 1,1 1,-1 h 1 1 1 1 l 1,-2 1,-1 1,3 h 1 l 1,1 1,-1 1,-1 h 1 l 1,-1 1,-1 1,-1 1,1 h 1 1 1 l 1,2 1,-1 1,1 1,1 h 1 l 1,-2 1,1 1,-1 1,1 1,1 h 1 1 l 1,2 1,2 h 1 l 1,-2 h 1 l 1,1 1,-1 1,-1 1,1 1,1 1,1 1,2 h 1 l 1,-1 1,-2 1,-1 h 1 l 1,1 1,1 1,1 h 1 1 l 1,-1 1,1 1,1 1,2 h 1 l 1,-2 h 1 l 1,-1 h 1 1 1 1 1 1 l 1,1 1,-1 1,-1 h 1 1 1 l 1,1 1,2 1,1 1,-1 1,-2 h 1 1 1 l 1,3 1,1 1,1 h 1 l 1,-1 1,-1 1,2 1,1 1,1 h 1 l 1,-2 1,-2 1,-1 h 1 l 1,-1 h 1 l 1,1 1,1 1,1 h 1 l 1,1 1,1 h 1 l 1,-1 1,-1 1,-3 1,-2 h 1 1 l 1,1 1,1 h 1 1 l 1,1 h 1 l 1,-1 1,-3 h 1 l 1,-1 1,1 1,-1 1,-1 1,-3 1,-4 1,-1 1,2 h 1 l 1,-1 1,2 h 1 l 1,1 h 1 l 1,-1 1,-3 1,-3 1,-1 1,-3 1,-1 1,-2 h 1 l 1,-1 1,1 h 1 l 1,1 h 1 l 1,1 1,-1 1,-1 1,-1 h 1 l 1,1 h 1 l 1,-1 1,-1 h 1 1 1 1 1 1 l 1,1 h 1 1 l 1,-1 1,-1 1,-1 h 1 l 1,-2 1,1 h 1 1 1 1 1 1 1 l 1,1 1,1 1,-1 1,-1 1,2 h 1 l 1,-1 h 1 l 1,-1 1,2 h 1 l 1,-1 1,1 h 1 l 1,-2 1,-1 1,1 1,-1 1,-1 h 1 1 l 1,1 h 1 l 1,-1 1,2 h 1 1 1 1 1 l 1,1 1,1 h 1 l 1,2 1,-1 h 1 1 l 1,1 1,2 1,3 1,4 h 1 l 1,-2 1,-4 1,-2 h 1 1 1 l 1,1 1,-1 1,1 1,-2 1,1 1,-1 h 1 l 1,2 1,5 1,2 1,-2 1,-2 1,-2 1,-4 1,-1 h 1 1 l 1,2 1,2 1,2 1,-1 1,-4 1,-3 h 1 1 1 l 1,-2 h 1 l 1,-1 h 1 l 1,-1 h 1 l 1,1 h 1 1 l 1,1 h 1 l 1,-1 h 1 l 1,-1 1,-2 1,-1 h 1 l 1,1 h 1 l 1,-1 1,-1 1,2 1,-2 1,-1 h 1 l 1,-1 h 1 1 1 l 1,1 1,2 1,2 1,1 1,-1 1,1 1,1 1,-1 1,1 1,-1 1,1 1,1 h 1 l 1,-1 1,1 h 1 1 l 1,-1 1,1 1,1 1,1 h 1 l 1,1 1,1 1,1 h 1 1 l 1,1 1,1 h 1 l 1,1 1,1 1,1 1,-1 h 1 l 1,1 1,1 1,1 1,-1 h 1 l 1,1 1,2 1,2 1,3 1,2 1,2 1,1 1,-1 1,-1 h 1 1 1 l 1,-1 h 1 l 1,1 1,1 h 1 l 1,1 1,1 h 1 l 1,1 h 1 l 1,-1 1,-1 h 1 1 1 1 l 1,2 1,3 h 1 1 l 1,2 h 1 l 1,-2 1,-2 1,-3 h 1 1 1 1 l 1,-2 h 1 1 1 l 1,2 1,-2 1,1 h 1 l 1,-2 h 1 1 1 1 l 1,-1 1,1 1,1 1,-1 1,-1 1,1 1,1 h 1 l 1,-1 h 1 1 1 l 1,2 1,-1 h 1 l 1,1 h 1 l 1,1 1,-1 1,-1 h 1 1 l 1,-1 h 1 1 l 1,1 h 1 1 l 1,-1 h 1 l 1,1 1,-1 h 1 l 1,1 h 1 l 1,-1 h 1 1 1 1 l 1,2 h 1 l 1,1 1,-2 h 1 1 l 1,1 h 1 1 1 l 1,1 1,-1 h 1 l 1,-1 1,1 h 1 l 1,1 h 1 1 1 l 1,2 1,2 1,1 h 1 l 1,1 1,-2 1,1 h 1 l 1,-2 1,-2 1,-1 1,1 h 1 1 l 1,-1 h 1 l 1,-1 1,1 1,1 h 1 l 1,-1 1,-1 1,-1 1,2 h 1 l 1,3 h 1 l 1,1 1,-1 1,-1 h 1 l 1,-1 h 1 l 1,2 1,2 1,1 1,-1 1,-2 1,-1 1,1 1,2 1,1 1,3 h 1 l 1,1 1,-2 1,-3 1,-2 1,-1 1,-2 1,-1 1,-1 h 1 l 1,-1 h 1 1 1 1 1 1 1 1 l 1,1 1,-2 1,-1 1,-2 h 1 l 1,-2 1,-1 h 1 1 l 1,-1 1,-1 1,1 1,2 h 1 l 1,1 1,-2 1,-1 1,-1 1,1 1,-1 1,-2 h 1 l 1,-1 1,-1 1,-1 h 1 l 1,-1 1,-1 h 1 1 1 l 1,1 h 1 l 1,1 1,-1 1,-1 h 1 l 1,1 1,-1 1,2 h 1 1 1 l 1,1 h 1 l 1,-1 1,1 1,1 h 1 l 1,-1 1,-1 h 1 1 1 l 1,2 1,2 h 1 l 1,-1 1,1 1,-1 1,-1 1,1 h 1 l 1,1 h 1 l 1,-1 h 1 1 1 l 1,-1 h 1 l 1,2 1,1 1,-1 h 1 1 l 1,1 1,1 h 1 l 1,1 h 1 l 1,1 1,-1 1,1 1,1 h 1 l 1,1 1,1 h 1 l 1,-1 1,1 1,1 h 1 l 1,1 1,-1 1,1 h 1 1 l 1,1 h 1 l 1,1 1,1 1,1 h 1 1 1 1 1 1 1 1 l 1,1 h 1 l 1,2 1,1 h 1 l 1,-1 1,-1 1,-1 1,-1 1,-1 1,1 h 1 1 l 1,1 1,1 1,-1 1,-1 h 1 l 1,2 h 1 1 l 1,-2 1,1 1,1 1,-1 1,-3 1,-3 h 1 l 1,2 1,2 1,-1 h 1 l 1,1 h 1 1 l 1,-1 1,-1 1,-1 1,-1 1,-1 h 1 l 1,2 1,-1 1,-1 1,-1 1,-1 1,-1 1,-1 1,-2 h 1 l 1,-1 h 1 l 1,1 1,-1 1,2 1,1 1,-1 1,2 1,1 1,-2 1,-3 1,-1 h 1 l 1,-1 1,-2 h 1 1 l 1,2 1,1 1,-2 1,1 1,-1 h 1 1 l 1,-1 1,-1 h 1 1 l 1,-1 h 1 1 l 1,-1 h 1 1 1 l 1,1 1,2 1,-2 1,-1 1,1 1,1 1,1 h 1 l 1,-1 1,-1 1,1 1,-2 1,2 1,2 h 1 1 l 1,-1 1,-1 1,2 1,1 1,1 h 1 l 1,-2 1,-1 1,1 1,-2 1,-1 1,-2 h 1 l 1,1 h 1 1 1 l 1,-1 1,1 h 1 1 l 1,1 1,-1 h 1 l 1,-1 h 1 l 1,1 1,2 1,1 1,-1 1,-1 h 1 l 1,2 h 1 l 1,1 1,-1 1,-2 1,-2 1,-2 1,-1 1,-2 h 1 l 1,-1 1,-1 1,-1 1,-1 1,-1 1,1 h 1 1 1 l 1,1 h 1 l 1,-1 1,-1 h 1 1 1 1 1 1 l 1,-1 1,-1 1,-2 1,-1 h 1 l 1,1 1,1 h 1 1 l 1,1 1,1 1,1 1,1 1,1 1,1 1,1 h 1 l 1,-1 h 1 l 1,-1 h 1 1 l 1,1 h 1 1 l 1,1 1,1 1,1 h 1 l 1,2 1,-1 h 1 l 1,1 h 1 l 1,2 h 1 l 1,-1 h 1 l 1,1 1,1 h 1 1 l 1,1 h 1 1 l 1,1 1,-1 1,1 h 1 1 l 1,1 1,1 h 1 1 l 1,-1 h 1 l 1,1 h 1 l 1,1 h 1 l 1,1 1,1 1,1 1,1 h 1 l 1,-1 1,1 1,1 h 1 l 1,-1 1,1 1,2 1,1 h 1 1 l 1,-1 1,-1 h 1 l 1,1 1,1 1,2 1,2 1,3 1,-1 1,-4 1,-1 h 1 1 l 1,1 1,2 1,3 h 1 l 1,-3 1,-4 1,-3 1,-1 1,-1 h 1 l 1,3 1,1 1,1 1,1 h 1 l 1,-1 h 1 1 l 1,-2 1,-1 1,-2 h 1 l 1,-1 1,-1 1,-1 h 1 l 1,-2 1,-1 1,-1 h 1 l 1,-2 1,-2 1,-1 1,1 h 1 l 1,1 h 1 1 l 1,-2 1,1 1,-1 h 1 1 l 1,1 h 1 l 1,-1 h 1 l 1,2 1,2 1,-1 1,-3 1,-4 1,-2 h 1 l 1,1 h 1 l 1,-1 1,1 h 1 l 1,3 1,-1 1,-1 1,1 1,-1 1,-1 h 1 l 1,-1 h 1 l 1,1 1,-1 h 1 l 1,1 1,-2 1,1 1,-1 1,-1 1,1 h 1 1 l 1,-1 1,2 1,1 1,-1 1,1 h 1 1 l 1,1 1,-1 1,-1 1,1 h 1 l 1,1 1,1 1,-1 1,-1 1,1 h 1 1 1 1 l 1,1 1,-1 h 1 1 l 1,1 1,1 1,1 1,2 h 1 l 1,-1 1,-1 h 1 l 1,1 1,2 1,-1 h 1 1 1 1 1 l 1,1 h 1 l 1,1 h 1 l 1,-1 h 1 l 1,1 h 1 l 1,1 1,2 1,3 1,4 1,2 1,-3 1,-4 1,-2 1,-1 h 1 l 1,-1 1,1 1,1 1,2 h 1 l 1,-2 1,-1 h 1 l 1,2 1,1 1,-1 1,-2 1,-2 1,-1 1,2 1,-1 h 1 l 1,2 1,2 1,1 1,-1 1,-1 1,-2 1,-3 h 1 l 1,-1 h 1 l 1,1 h 1 l 1,-1 h 1 l 1,-2 1,-1 1,-2 h 1 1 1 l 1,-1 h 1 l 1,1 h 1 l 1,-1 1,-1 1,-1 h 1 l 1,-1 1,1 1,1 1,-1 1,1 h 1 l 1,-1 h 1 l 1,1 h 1 1 l 1,3 1,-1 1,1 h 1 l 1,-1 1,2 h 1 1 1 l 1,1 1,-1 1,1 1,-1 1,1 1,-1 1,1 h 1 1 l 1,1 1,-1 h 1 1 1 1 l 1,1 h 1 1 l 1,1 h 1 1 1 1 1 l 1,-1 h 1 1 1 l 1,-1 1,1 1,2 1,-1 h 1 1 1 l 1,-1 h 1 l 1,-1 1,1 h 1 1 1 1 l 1,-1 h 1 1 l 1,1 h 1 l 1,1 1,-1 h 1 l 1,-1 h 1 1 1 l 1,-1 1,1 h 1 1 1 1 l 1,1 1,1 h 1 l 1,-2 1,1 1,1 1,1 h 1 1 l 1,-1 h 1 l 1,-1 1,1 h 1 1 l 1,1 h 1 l 1,1 h 1 l 1,-1 h 1 l 1,1 1,-1 h 1 1 1 l 1,1 h 1 l 1,1 1,-1 1,1 1,-1 1,1 1,-1 h 1 l 1,-1 h 1 1 l 1,1 h 1 1 1 1 1 l 1,-1 1,1 1,-1 h 1 l 1,-1 1,1 h 1 l 1,-2 h 1 1 1 1 l 1,-1 1,1 h 1 l 1,1 1,-1 h 1 1 l 1,1 1,-2 1,1 1,1 1,-1 1,1 1,-1 1,-1 h 1 l 1,1 1,-1 1,1 1,-1 h 1 l 1,1 h 1 l 1,-1 h 1 1 1 l 1,-1 1,1 1,-1 h 1 l 1,-2 1,2 h 1 l 1,1 h 1 1 l 1,1 1,-1 1,-1 h 1 1 1 l 1,-2 1,-1 1,1 1,-1 1,1 1,-1 1,1 1,1 h 1 1 1 1 1 1 l 1,-1 h 1 l 1,-1 1,-1 h 1 1 l 1,1 h 1 1 1 1 l 1,-1 h 1 1 1 1 1 1 l 1,-1 h 1 1 l 1,-1 h 1 1 1 1 l 1,-1 h 1 1 1 1 l 1,1 h 1 1 1 1 1 1 1 l 1,1 1,1 1,-1 h 1 1 l 1,-1 h 1 l 1,-1 h 1 l 1,-1 1,1 1,1 1,-1 1,-1 h 1 1 1 l 1,1 1,-1 h 1 l 1,-1 1,-1 h 1 l 1,-1 h 1 l 1,1 h 1 l 1,-1 1,-1 h 1 1 l 1,1 1,-1 h 1 1 l 1,-1 h 1 1 l 1,-1 1,1 1,-1 h 1 l 1,1 h 1 l 1,-1 1,1 h 1 l 1,-1 h 1 1 l 1,1 h 1 1 l 1,-1 1,-1 h 1 l 1,-1 h 1 1 1 l 1,-1 1,1 h 1 l 1,1 h 1 1 l 1,-2 h 1 l 1,-1 1,1 h 1 l 1,-1 h 1 1 1 l 1,-1 1,1 h 1 l 1,-2 h 1 l 1,1 h 1 1 l 1,-1 1,-1 h 1 1 l 1,-1 1,1 h 1 1 l 1,-2 1,-1 h 1 1 1 1 1 l 1,1 h 1 1 l 1,-1 h 1 l 1,1 1,-1 h 1 1 1 1 l 1,1 1,-1 h 1 1 1 l 1,1 h 1 1 l 1,-1 1,1 1,1 h 1 l 1,-2 1,1 1,-1 h 1 1 1 l 1,-1 h 1 1 l 1,1 1,1 h 1 l 1,-1 h 1 1 l 1,-1 h 1 1 l 1,1 1,1 h 1 1 1 1 1 l 1,-2 1,1 h 1 1 1 1 l 1,1 h 1 l 1,-1 1,1 1,1 1,-1 1,1 h 1 l 1,-1 1,1 h 1 1 1 l 1,2 h 1 1 1 l 1,1 1,-1 h 1 l 1,1 1,-1 h 1 l 1,1 1,1 h 1 l 1,2 1,-1 1,-1 h 1 l 1,-1 1,-1 1,1 h 1 l 1,-1 h 1 l 1,1 h 1 l 1,1 1,-1 h 1 l 1,-1 1,1 h 1 1 1 1 l 1,-1 1,1 h 1 1 l 1,1 h 1 l 1,-1 h 1 1 l 1,-1 1,1 1,1 h 1 l 1,1 h 1 1 l 1,-1 h 1 1 1 1 l 1,-1 h 1 l 1,-1 h 1 l 1,1 h 1 l 1,1 h 1 l 1,-2 h 1 1 1 1 1 1 1 l 1,1 h 1 1 1 l 1,-1 h 1 l 1,-1 h 1 1 1 l 1,-1 1,1 h 1 1 l 1,-1 1,-1 1,1 h 1 1 1 1 l 1,-1 1,1 1,-1 h 1 l 1,-1 1,1 h 1 l 1,1 1,-1 h 1 l 1,1 h 1 1 1 1 1 1 l 1,-1 h 1 1 l 1,2 1,-2 h 1 l 1,1 h 1 1 l 1,-1 1,-1 1,-1 h 1 l 1,1 h 1 1 l 1,1 1,1 h 1 l 1,-1 h 1 1 1 l 1,1 h 1 l 1,1 h 1 l 1,-2 1,1 h 1 1 l 1,1 1,-1 1,1 h 1 l 1,1 1,-1 h 1 1 l 1,1 h 1 l 1,-1 h 1 1 1 l 1,-1 1,1 h 1 1 1 l 1,1 h 1 l 1,-1 h 1 l 1,1 h 1 1 l 1,1 h 1 l 1,-1 h 1 l 1,2 1,-1 h 1 1 l 1,-1 h 1 1 1 l 1,1 1,-1 h 1 l 1,1 1,-2 1,1 1,-1 h 1 1 1 1 1 l 1,-1 h 1 l 1,1 h 1 1 l 1,1 1,1 h 1 l 1,-1 h 1 1 1 1 1 1 1 l 1,1 h 1 l 1,-2 1,1 1,-1 h 1 1 1 1 1 l 1,-1 1,1 1,-2 1,1 h 1 1 1 l 1,-1 1,1 h 1 l 1,-1 h 1 1 1 l 1,1 h 1 l 1,-1 1,-1 1,2 1,-1 1,-1 1,1 h 1 1 1 1 1 1 l 1,-2 1,1 h 1 1 1 l 1,1 1,-2 h 1 1 1 1 l 1,1 h 1 l 1,1 h 1 l 1,-1 1,-1 1,1 h 1 l 1,1 h 1 1 1 1 l 1,1 h 1 1 1 1 1 l 1,-1 h 1 l 1,-1 1,1 h 1 l 1,1 h 1 l 1,-1 h 1 1 l 1,-1 h 1 l 1,1 h 1 1 1 l 1,1 1,-1 1,1 h 1 l 1,-1 1,-1 1,-1 1,2 h 1 l 1,-1 1,-1 1,1 h 1 1 1 1 1 1 1 1 1 l 1,-1 h 1 l 1,1 h 1 l 1,-1 1,1 h 1 l 1,1 1,-1 1,1 h 1 l 1,-1 h 1 1 1 l 1,-1 1,1 1,1 1,-2 h 1 1 1 l 1,1 1,1 h 1 1 l 1,-1 1,1 h 1 l 1,-1 h 1 l 1,2 1,-1 h 1 l 1,-1 h 1 1 l 1,1 1,-1 h 1 1 1 1 l 1,1 h 1 l 1,-1 1,-1 h 1 l 1,1 1,1 h 1 l 1,-1 1,-1 h 1 1 1 1 1 l 1,-1 h 1 1 1 1 1 l 1,-1 1,1 h 1 l 1,1 h 1 l 1,-1 h 1 1 l 1,-1 1,1 1,1 h 1 l 1,-1 1,1 h 1 1 l 1,1 1,-1 1,2 h 1 l 1,1 h 1 l 1,-1 1,-1 h 1 l 1,1 1,-1 h 1 l 1,1 1,-1 h 1 l 1,1 1,-1 1,1 h 1 1 l 1,1 1,-2 h 1 1 l 1,1 1,1 1,1 1,1 h 1 1 1 1 1 l 1,1 h 1 l 1,1 h 1 1 l 1,-1 1,1 h 1 l 1,1 1,1 h 1 1 1 l 1,1 h 1 l 1,1 1,1 1,-1 1,1 1,1 1,-1 h 1 1 1 1 l 1,2 h 1 1 l 1,1 h 1 1 l 1,1 h 1 1 l 1,-1 h 1 1 1 1 1 1 l 1,1 1,-1 1,1 h 1 1 1 l 1,1 1,1 1,-1 1,-1 1,1 1,-1 h 1 1 l 1,1 h 1 1 l 1,1 1,-1 h 1 l 1,1 1,1 1,-1 h 1 1 l 1,1 1,-1 1,-1 1,-1 h 1 1 l 1,-1 1,1 h 1 l 1,-1 h 1 l 1,1 h 1 l 1,1 h 1 1 l 1,1 h 1 l 1,1 h 1 1 l 1,-1 h 1 1 l 1,-1 1,-1 1,1 1,-1 1,1 h 1 1 1 1 l 1,-1 1,-1 h 1 1 1 l 1,1 h 1 1 1 1 l 1,-1 1,1 1,2 h 1 1 1 l 1,-1 h 1 1 1 1 1 l 1,-1 h 1 l 1,-1 1,2 1,-1 1,-2 h 1 1 l 1,1 1,-1 h 1 l 1,1 h 1 1 l 1,-1 h 1 l 1,1 1,1 1,-1 h 1 1 1 1 1 l 1,1 h 1 1 l 1,-1 1,-1 1,2 h 1 1 l 1,-1 1,1 h 1 l 1,1 h 1 1 l 1,1 h 1 l 1,-1 h 1 l 1,-1 1,1 h 1 l 1,1 1,1 h 1 l 1,1 1,1 h 1 1 1 l 1,-1 h 1 1 1 l 1,1 h 1 1 1 1 l 1,1 h 1 1 l 1,1 1,1 1,-1 h 1 l 1,1 h 1 l 1,-1 h 1 l 1,1 h 1 1 l 1,2 1,1 1,1 h 1 1 1 l 1,-1 h 1 1 l 1,1 h 1 l 1,-1 1,2 h 1 1 1 1 1 l 1,-1 h 1 l 1,1 1,1 h 1 1 1 l 1,1 1,1 h 1 1 1 1 l 1,-2 1,-1 1,2 h 1 1 l 1,1 1,1 h 1 l 1,1 1,-1 h 1 l 1,1 h 1 1 1 l 1,1 1,1 1,-1 h 1 1 1 l 1,1 h 1 l 1,-1 h 1 1 l 1,-1 1,1 h 1 l 1,1 h 1 l 1,1 h 1 l 1,-1 h 1 l 1,1 1,-1 1,1 h 1 l 1,-1 h 1 l 1,-2 h 1 l 1,1 h 1 l 1,1 h 1 l 1,1 1,1 h 1 1 1 l 1,1 1,1 h 1 1 l 1,1 h 1 l 1,-1 h 1 1 l 1,2 h 1 1 1 1 1 1 1 1 1 1 1 1 l 1,-1 1,1 h 1 l 1,1 h 1 1 1 1 1 l 1,1 1,1 1,1 h 1 1 1 1 1 1 1 l 1,1 1,-1 1,1 h 1 l 1,1 h 1 l 1,1 h 1 1 1 1 l 1,-1 1,-1 h 1 1 1 1 l 1,1 h 1 1 l 1,1 h 1 l 1,1 1,-1 h 1 l 1,2 h 1 1 1 l 1,1 h 1 l 1,-1 h 1 1 l 1,-1 1,1 h 1 l 1,1 1,-1 1,1 1,-1 h 1 1 1 1 1 1 l 1,1 h 1 1 l 1,-1 1,-1 1,1 h 1 1 1 1 l 1,1 1,-2 h 1 l 1,1 h 1 l 1,1 1,-1 1,1 1,-1 1,1 h 1 l 1,-1 h 1 l 1,-2 1,1 1,1 1,1 h 1 l 1,-2 1,1 h 1 1 l 1,1 h 1 1 1 1 1 1 1 1 l 1,-2 1,1 1,1 h 1 1 1 1 l 1,-1 h 1 1 1 l 1,1 h 1 1 1 1 1 1 1 l 1,1 1,-1 1,1 1,-1 h 1 1 1 l 1,-1 1,1 h 1 1 1 1 l 1,-1 1,1 1,2 h 1 1 1 1 l 1,1 h 1 l 1,-1 1,1 1,1 1,-1 h 1 1 l 1,1 h 1 l 1,1 1,-1 h 1 l 1,2 1,1 1,-1 1,-1 1,-1 h 1 l 1,1 1,-1 h 1 l 1,-1 1,-1 1,1 h 1 l 1,1 h 1 l 1,-1 h 1 l 1,1 h 1 l 1,-1 h 1 l 1,1 h 1 1 1 l 1,1 1,-1 1,-1 1,1 1,1 h 1 l 1,1 h 1 1 l 1,-1 1,1 1,1 1,-2 1,1 1,1 1,-1 h 1 l 1,-1 1,-1 1,1 h 1 1 l 1,-2 h 1 l 1,1 1,-1 h 1 l 1,1 h 1 1 l 1,-1 h 1 1 l 1,-1 1,-1 1,1 1,-1 h 1 l 1,1 1,1 h 1 1 l 1,1 h 1 1 1 1 1 1 l 1,-1 1,1 h 1 l 1,-1 h 1 l 1,-1 h 1 1 1 l 1,2 1,-1 h 1 l 1,1 1,-1 h 1 1 l 1,3 h 1 1 l 1,-1 h 1 1 l 1,1 1,1 h 1 l 1,-1 h 1 1 1 l 1,-1 1,-1 1,-2 1,1 1,1 h 1 l 1,1 1,-1 1,-1 h 1 l 1,1 1,-1 h 1 1 l 1,-1 h 1 l 1,1 h 1 1 l 1,1 h 1 l 1,1 h 1 1 1 l 1,1 h 1 l 1,1 1,-1 1,-1 h 1 1 l 1,1 1,-1 h 1 l 1,-1 1,1 h 1 l 1,2 h 1 l 1,-1 1,-1 h 1 l 1,1 1,1 h 1 1 1 1 1 l 1,1 h 1 1 1 1 1 1 l 1,1 h 1 l 1,1 1,-1 h 1 l 1,-1 1,-1 h 1 l 1,2 1,-1 1,1 h 1 l 1,1 1,-1 h 1 l 1,1 1,1 h 1 l 1,-1 h 1 l 1,1 1,1 h 1 1 1 l 1,1 1,1 1,-1 h 1 1 l 1,2 h 1 l 1,1 1,-1 h 1 l 1,1 h 1 1 l 1,-1 h 1 l 1,2 1,-1 h 1 l 1,1 1,1 1,1 h 1 1 l 1,1 h 1 l 1,-1 1,1 1,1 1,1 1,-1 1,1 1,-1 h 1 l 1,1 1,-1 h 1 l 1,1 1,-1 h 1 l 1,1 1,-1 1,1 1,-1 1,-1 h 1 1 1 1 1 1 l 1,1 h 1 l 1,-1 1,1 h 1 l 1,-1 1,1 1,-1 h 1 1 l 1,-2 1,1 h 1 l 1,1 1,-1 1,-1 1,1 h 1 1 l 1,-1 1,1 1,-1 h 1 1 l 1,-1 1,1 h 1 1 l 1,1 h 1 1 l 1,1 1,-1 h 1 l 1,-1 h 1 l 1,1 h 1 1 1 1 1 l 1,2 1,2 1,-2 h 1 1 l 1,-1 1,1 h 1 1 1 1 1 1 l 1,1 1,1 h 1 1 1 l 1,-1 1,-1 h 1 l 1,-1 1,-1 h 1 1 l 1,-1 1,1 1,-1 1,1 h 1 l 1,1 h 1 1 1 1 1 1 l 1,1 h 1 l 1,-1 h 1 1 l 1,1 1,1 1,1 h 1 l 1,1 1,1 1,-2 1,1 1,-1 h 1 l 1,-1 h 1 l 1,1 h 1 1 l 1,1 1,1 h 1 1 l 1,-1 1,1 h 1 1 l 1,-1 h 1 l 1,1 h 1 l 1,1 1,1 h 1 l 1,-1 1,1 h 1 l 1,-1 1,-1 1,-1 h 1 1 l 1,1 h 1 1 1 1 1 l 1,-1 1,1 h 1 l 1,1 h 1 l 1,-2 1,-3 1,1 1,-1 h 1 l 1,-1 1,1 h 1 1 1 1 1 l 1,1 1,-1 1,-1 1,-1 h 1 l 1,1 h 1 1 1 1 l 1,1 h 1 1 l 1,-1 1,-1 h 1 l 1,-1 h 1 l 1,1 1,1 1,-1 1,-1 1,-1 1,-1 h 1 l 1,1 1,-1 1,1 1,-1 h 1 1 l 1,-1 1,1 h 1 1 1 1 1 1 l 1,1 1,1 1,-1 h 1 l 1,1 h 1 l 1,-1 h 1 1 1 l 1,-1 1,1 h 1 l 1,1 h 1 1 l 1,-1 h 1 1 1 l 1,1 1,1 1,-1 1,-1 h 1 1 1 1 l 1,1 h 1 1 l 1,-1 h 1 l 1,1 1,-1 h 1 l 1,-1 1,1 1,1 h 1 l 1,1 1,-1 1,1 1,1 1,-1 1,1 1,2 1,-1 h 1 l 1,2 h 1 1 l 1,-2 1,-3 1,-2 h 1 1 1 l 1,-1 1,2 1,2 1,1 h 1 l 1,-3 1,-2 h 1 1 l 1,1 1,1 h 1 l 1,-1 1,1 h 1 l 1,-1 h 1 1 l 1,1 1,-1 h 1 l 1,-1 h 1 l 1,-1 1,1 1,1 h 1 1 l 1,-1 h 1 l 1,1 h 1 l 1,1 1,-1 1,-2 h 1 1 1 l 1,1 h 1 l 1,-1 1,1 h 1 1 1 l 1,-1 h 1 1 1 l 1,1 1,1 1,-1 1,-1 h 1 1 l 1,-1 h 1 1 1 l 1,-1 h 1 1 l 1,-1 h 1 1 l 1,1 1,-2 h 1 l 1,-1 h 1 1 l 1,-1 h 1 l 1,-1 h 1 l 1,1 1,-2 1,-2 1,1 h 1 1 1 l 1,1 1,-2 h 1 l 1,-1 1,-1 h 1 l 1,1 h 1 1 l 1,-1 h 1 1 l 1,-1 h 1 l 1,-1 h 1 1 1 1 l 1,-1 h 1 l 1,-1 h 1 l 1,1 1,1 h 1 l 1,-1 1,-1 h 1 1 1 1 l 1,-1 h 1 1 l 1,-2 1,-1 1,1 1,1 1,1 h 1 1 1 1 1 1 l 1,-2 1,1 1,-1 h 1 1 l 1,1 1,-1 h 1 1 l 1,1 h 1 1 1 1 1 l 1,-2 h 1 1 1 l 1,1 h 1 1 l 1,-1 h 1 l 1,2 1,1 h 1 1 l 1,-2 h 1 l 1,-1 1,1 h 1 l 1,2 1,1 h 1 l 1,-2 1,1 h 1 l 1,-1 h 1 1 l 1,1 h 1 1 l 1,1 1,-1 1,-1 1,1 h 1 1 l 1,-1 h 1 l 1,1 h 1 l 1,-1 h 1 l 1,-2 h 1 1 l 1,1 1,-1 h 1 l 1,1 1,2 1,2 1,-1 1,-2 1,-2 h 1 l 1,1 h 1 l 1,-1 1,-1 1,1 h 1 l 1,1 1,2 1,1 1,-1 1,1 1,-1 1,-3 1,-1 h 1 l 1,-1 h 1 l 1,-1 h 1 l 1,1 h 1 l 1,-1 h 1 l 1,-1 h 1 l 1,-1 1,-1 1,-1 h 1 1 1 1 1 l 1,1 1,1 1,-1 1,-2 1,-1 1,-1 h 1 l 1,1 1,-1 1,-1 1,-1 h 1 1 1 1 1 1 l 1,-1 h 1 l 1,-1 1,-2 1,-1 h 1 l 1,1 1,-1 1,2 1,-1 1,-1 1,-1 1,-1 h 1 1 1 l 1,-1 1,-1 h 1 l 1,-1 h 1 l 1,-1 1,-1 1,1 h 1 1 1 l 1,1 h 1 l 1,-1 1,-1 1,-1 1,-1 1,-1 1,-2 1,-1 1,1 1,2 1,-2 1,-4 1,1 1,-1 1,-1 1,-1 h 1 l 1,1 1,-1 h 1 1 1 l 1,-1 1,-1 h 1 l 1,2 1,1 1,-1 h 1 1 1 1 l 1,-1 h 1 1 l 1,1 h 1 l 1,-1 1,-2 h 1 l 1,1 1,1 h 1 l 1,-3 h 1 l 1,1 h 1 l 1,-1 1,-1 1,-2 1,-2 h 1 l 1,1 1,1 h 1 l 1,1 1,-1 h 1 l 1,1 1,-1 h 1 1 1 l 1,1 h 1 l 1,-2 h 1 1 l 1,1 1,1 h 1 l 1,2 h 1 l 1,1 1,1 1,2 1,1 h 1 l 1,-2 1,-1 h 1 l 1,2 1,1 1,2 h 1 1 l 1,1 1,-1 h 1 l 1,2 1,1 h 1 1 l 1,2 1,2 h 1 l 1,2 1,2 1,1 h 1 l 1,-2 h 1 l 1,-1 h 1 l 1,1 1,-1 h 1 l 1,-1 1,2 h 1 1 l 1,1 1,2 1,1 1,1 h 1 l 1,3 1,1 1,-1 1,1 1,-2 h 1 l 1,1 h 1 l 1,-1 1,-1 h 1 l 1,3 h 1 l 1,2 1,-1 h 1 1 1 l 1,2 1,1 1,1 h 1 l 1,-1 1,2 1,1 1,1 1,-1 1,-1 1,-1 1,-1 1,1 1,-1 1,1 h 1 l 1,-2 h 1 l 1,2 h 1 1 l 1,-1 h 1 l 1,-1 1,-1 1,1 h 1 1 1 l 1,1 h 1 l 1,1 1,-1 1,-1 h 1 l 1,1 h 1 l 1,2 1,1 h 1 l 1,1 h 1 l 1,1 1,-2 1,1 1,1 1,1 h 1 1 l 1,1 h 1 l 1,-1 1,1 h 1 1 l 1,1 1,1 1,2 h 1 l 1,-1 1,1 1,1 1,-1 1,1 h 1 1 1 1 l 1,2 1,-1 1,1 h 1 l 1,1 h 1 1 1 l 1,1 1,1 h 1 l 1,1 1,2 h 1 l 1,1 h 1 l 1,1 h 1 l 1,1 1,-1 h 1 l 1,1 h 1 1 l 1,1 1,2 1,2 1,1 1,1 h 1 1 l 1,-4 h 1 1 l 1,1 1,1 h 1 1 1 l 1,1 1,-1 1,-2 1,-1 h 1 1 l 1,1 h 1 1 l 1,-1 1,1 1,2 1,2 h 1 l 1,-1 1,-3 1,-3 1,-2 1,-1 h 1 l 1,2 1,-1 1,-2 1,-3 1,-2 1,-1 1,1 h 1 l 1,-1 h 1 1 l 1,1 1,-1 1,1 1,-2 1,-2 1,-1 h 1 l 1,1 h 1 1 1 l 1,1 1,2 h 1 l 1,1 1,-1 1,-1 h 1 l 1,3 h 1 1 1 l 1,1 h 1 1 l 1,-1 h 1 l 1,1 h 1 l 1,-1 h 1 1 l 1,1 h 1 1 l 1,1 h 1 1 1 1 1 1 1 l 1,1 1,-1 1,2 h 1 l 1,1 1,1 1,1 h 1 l 1,1 h 1 l 1,1 1,-1 1,1 h 1 1 1 1 l 1,2 1,-1 1,1 h 1 1 l 1,1 h 1 l 1,1 h 1 1 1 l 1,2 1,1 1,1 h 1 l 1,1 1,1 1,1 h 1 l 1,1 h 1 1 1 l 1,1 h 1 l 1,-1 1,1 1,1 1,1 1,1 1,2 1,1 1,1 h 1 l 1,-1 1,-2 h 1 l 1,1 1,1 1,4 1,2 1,-1 1,-1 1,-1 1,-3 1,-1 h 1 l 1,-1 1,-1 1,-2 1,-1 1,1 h 1 l 1,-3 1,1 h 1 l 1,-1 h 1 l 1,-1 1,-1 1,-2 1,-1 1,-2 1,-2 1,-1 1,-1 h 1 1 1 1 1 l 1,-2 1,-2 1,-1 h 1 1 1 l 1,1 h 1 1 l 1,1 h 1 l 1,1 1,-2 1,-1 h 1 1 1 l 1,-2 1,1 1,-1 1,1 h 1 1 l 1,1 1,-1 1,1 1,1 h 1 1 1 l 1,-1 1,1 1,1 1,1 h 1 l 1,1 h 1 l 1,-1 h 1 1 l 1,1 h 1 1 l 1,2 1,1 1,-1 h 1 l 1,1 h 1 l 1,1 h 1 l 1,1 1,-1 1,1 1,1 1,1 h 1 1 l 1,1 h 1 1 1 l 1,-1 h 1 l 1,1 1,-1 1,1 1,2 1,1 1,-1 1,1 1,1 1,-1 1,1 h 1 1 1 l 1,1 1,-1 h 1 l 1,1 1,1 h 1 1 1 l 1,1 h 1 l 1,-1 1,1 1,1 1,1 1,1 h 1 1 1 l 1,-1 h 1 l 1,1 h 1 1 l 1,1 h 1 l 1,1 1,1 h 1 l 1,1 h 1 l 1,1 h 1 l 1,-1 h 1 1 1 1 l 1,1 1,1 1,1 h 1 l 1,-1 h 1 l 1,-1 1,2 h 1 l 1,4 1,3 h 1 l 1,2 1,-1 1,-2 1,-2 1,-2 1,-1 h 1 l 1,1 1,-1 h 1 l 1,1 h 1 l 1,-1 1,-1 1,-1 1,1 1,1 1,-1 1,-1 1,-1 1,-2 1,-1 1,2 1,1 h 1 l 1,1 1,1 1,2 1,1 1,-1 1,-3 1,-4 1,-2 1,-1 1,-1 h 1 l 1,-1 h 1 l 1,2 1,2 1,1 h 1 l 1,-1 1,-3 1,-2 1,-2 1,-1 1,1 1,3 1,-1 h 1 l 1,-1 1,-1 h 1 1 l 1,-1 1,-1 h 1 l 1,-2 1,-1 1,1 1,-1 1,-1 1,-1 h 1 1 l 1,1 h 1 1 l 1,1 1,-1 h 1 l 1,1 1,-1 1,1 h 1 1 1 1 l 1,1 h 1 l 1,-1 h 1 l 1,-1 1,-1 1,1 h 1 1 l 1,1 1,1 h 1 1 1 l 1,1 h 1 l 1,1 1,1 1,-1 h 1 l 1,1 1,-1 1,1 1,-1 h 1 l 1,1 1,1 1,1 1,1 h 1 l 1,-1 h 1 1 l 1,1 h 1 l 1,2 1,1 h 1 1 l 1,-1 h 1 l 1,2 1,-1 h 1 1 l 1,1 1,1 1,1 h 1 l 1,1 1,1 h 1 l 1,-1 1,-1 1,-2 1,-1 h 1 l 1,1 1,-1 h 1 1 1 1 l 1,1 1,2 1,-1 1,-2 1,-2 1,-1 h 1 1 l 1,-3 1,-1 h 1 l 1,1 1,3 1,1 1,1 h 1 l 1,-1 1,-1 1,-1 1,2 1,1 1,-1 1,-4 1,-3 1,-2 1,-2 h 1 l 1,-1 h 1 1 l 1,1 h 1 1 l 1,1 1,1 1,-1 1,1 1,-1 1,-1 1,-1 1,1 h 1 l 1,1 h 1 l 1,-1 h 1 l 1,-1 h 1 1 1 1 l 1,1 1,1 1,1 1,1 1,1 1,1 1,1 h 1 l 1,2 h 1 1 1 l 1,2 h 1 1 l 1,2 h 1 l 1,1 1,1 h 1 l 1,1 h 1 1 l 1,1 h 1 1 l 1,2 h 1 l 1,-1 h 1 1 l 1,1 h 1 l 1,1 h 1 1 1 l 1,1 1,-1 1,1 1,1 1,-1 1,2 h 1 1 l 1,1 h 1 l 1,-1 h 1 l 1,1 h 1 l 1,-1 1,1 h 1 1 l 1,1 h 1 l 1,1 1,1 1,-1 1,2 1,-1 h 1 1 l 1,1 h 1 1 l 1,-2 h 1 1 l 1,1 h 1 1 1 l 1,1 1,2 1,-1 h 1 l 1,1 h 1 1 1 1 l 1,-1 1,2 h 1 1 1 1 1 l 1,-1 1,1 1,2 1,2 1,1 1,-2 h 1 l 1,-2 h 1 1 l 1,-1 1,-1 1,-2 1,-1 h 1 1 1 1 l 1,-1 1,-1 1,2 h 1 l 1,-1 1,1 h 1 l 1,-2 1,-3 1,-1 1,1 1,-3 1,-1 h 1 l 1,1 1,1 1,-1 1,1 h 1 l 1,-1 1,-1 1,-1 1,-1 h 1 l 1,-1 1,-1 1,-1 1,2 1,1 h 1 1 l 1,-3 1,-3 1,-2 1,-1 h 1 l 1,1 1,-1 1,1 h 1 1 l 1,1 h 1 1 l 1,-1 h 1 1 l 1,1 h 1 1 l 1,-1 1,1 h 1 1 l 1,1 h 1 l 1,1 h 1 1 1 1 l 1,-1 h 1 l 1,-1 h 1 l 1,-1 1,1 1,1 h 1 1 l 1,1 1,1 1,-1 1,2 1,-1 h 1 1 l 1,-1 h 1 1 l 1,1 h 1 l 1,1 h 1 l 1,-2 1,-1 1,2 h 1 1 1 l 1,1 1,1 1,1 h 1 l 1,-1 1,-1 1,1 1,1 h 1 1 1 1 l 1,1 1,-1 h 1 1 l 1,2 1,1 h 1 l 1,1 h 1 1 l 1,-1 1,1 1,1 1,-1 h 1 l 1,2 1,-1 h 1 1 l 1,2 h 1 l 1,1 h 1 1 1 l 1,-1 1,1 h 1 l 1,1 h 1 l 1,1 1,-1 h 1 1 l 1,1 h 1 1 1 l 1,1 h 1 1 l 1,2 1,2 1,1 1,-1 1,-2 1,-2 1,1 h 1 l 1,1 h 1 l 1,-2 1,-3 1,-1 h 1 1 1 l 1,2 1,2 1,-1 1,-2 1,-2 1,-1 1,-1 h 1 l 1,-1 1,1 h 1 1 l 1,-2 1,-2 h 1 l 1,1 1,-2 1,-2 1,-2 1,1 h 1 1 l 1,-1 h 1 l 1,-1 h 1 1 1 1 l 1,-1 h 1 l 1,-1 1,-1 1,1 1,1 h 1 l 1,1 h 1 l 1,1 1,-1 h 1 l 1,-1 1,-1 h 1 1 l 1,1 h 1 1 l 1,-1 h 1 l 1,-1 h 1 l 1,-1 1,1 h 1 l 1,-1 1,1 1,-1 h 1 l 1,-1 1,1 h 1 l 1,1 h 1 1 l 1,1 1,-1 1,-1 1,1 1,1 h 1 l 1,-1 1,1 h 1 l 1,-1 h 1 l 1,2 h 1 l 1,1 h 1 l 1,-1 1,1 1,-1 h 1 l 1,1 1,-1 1,-1 h 1 1 l 1,1 1,1 h 1 1 l 1,1 h 1 l 1,1 1,-1 h 1 l 1,-1 1,1 1,1 h 1 l 1,-2 1,1 1,1 h 1 l 1,1 h 1 1 l 1,1 h 1 l 1,-1 1,1 1,1 1,1 1,-1 1,1 h 1 1 1 l 1,1 h 1 1 l 1,1 1,-1 1,2 h 1 l 1,-1 h 1 1 1 1 l 1,1 1,-1 1,1 h 1 1 l 1,1 1,1 1,-1 1,1 1,-1 h 1 1 l 1,-1 h 1 l 1,-1 1,1 1,1 h 1 1 l 1,-1 1,1 1,1 1,1 h 1 1 l 1,-2 h 1 1 1 l 1,1 1,1 h 1 l 1,-1 1,1 h 1 l 1,-1 h 1 l 1,-1 h 1 1 l 1,-1 1,1 h 1 l 1,-1 1,1 h 1 1 1 1 1 l 1,-1 1,1 1,-1 1,-1 1,1 1,-1 h 1 l 1,1 h 1 l 1,-1 h 1 1 l 1,-1 1,-1 1,1 1,1 h 1 l 1,-1 h 1 l 1,-2 h 1 l 1,1 h 1 1 1 l 1,-1 1,1 1,-1 1,1 h 1 l 1,-1 h 1 l 1,1 1,-1 1,-1 h 1 l 1,-1 1,1 h 1 l 1,-1 h 1 l 1,1 1,-1 1,1 h 1 l 1,-1 h 1 l 1,1 1,-2 h 1 l 1,-1 1,1 1,-1 1,-1 h 1 1 1 l 1,1 1,-1 h 1 1 l 1,-1 h 1 1 1 1 l 1,-1 h 1 1 1 1 1 l 1,-1 h 1 l 1,-1 h 1 l 1,-1 1,-1 h 1 l 1,-1 h 1 1 l 1,-1 h 1 l 1,-1 1,-1 h 1 l 1,1 h 1 l 1,-1 1,-1 h 1 l 1,-1 1,-1 h 1 1 1 l 1,-1 1,-1 1,-1 1,1 h 1 1 1 l 1,-1 h 1 1 l 1,-1 1,-1 h 1 l 1,-1 h 1 l 1,1 1,-1 h 1 1 l 1,1 h 1 l 1,-2 h 1 1 1 1 1 1 1 1 1 1 l 1,-1 h 1 l 1,1 h 1 1 l 1,-1 1,1 h 1 1 l 1,-1 h 1 1 l 1,-1 h 1 l 1,-1 h 1 1 1 1 l 1,-2 h 1 1 1 1 l 1,-1 h 1 l 1,1 1,-1 1,1 h 1 l 1,-1 1,2 h 1 1 1 l 1,-1 h 1 1 1 1 l 1,-1 h 1 l 1,-1 h 1 l 1,1 h 1 1 l 1,-1 1,1 1,-1 1,1 h 1 l 1,-1 1,1 1,-1 1,-1 1,1 h 1 l 1,-1 1,1 1,-1 h 1 1 1 1 1 1 1 l 1,1 1,1 h 1 l 1,-1 h 1 l 1,-1 h 1 1 1 1 l 1,1 h 1 l 1,-2 1,1 h 1 l 1,1 h 1 1 1 1 l 1,1 h 1 1 l 1,-1 1,-1 1,1 h 1 l 1,-1 h 1 l 1,-1 1,1 h 1 1 1 l 1,1 1,-1 1,-1 h 1 l 1,1 1,1 1,-1 h 1 l 1,1 1,1 1,-1 h 1 1 1 l 1,-1 h 1 1 l 1,-1 h 1 1 l 1,-1 1,2 1,-1 1,1 h 1 l 1,-1 1,-1 1,1 1,1 1,-1 h 1 1 1 1 l 1,1 1,-1 1,-1 1,1 1,1 h 1 1 l 1,-1 h 1 1 1 l 1,-1 1,-1 h 1 1 1 1 1 l 1,-1 h 1 1 1 l 1,1 h 1 l 1,-2 1,1 h 1 1 1 1 1 l 1,1 h 1 1 1 1 l 1,1 1,-2 1,1 1,-1 h 1 l 1,-1 1,-1 1,1 1,1 1,-1 h 1 l 1,-1 1,1 1,1 h 1 l 1,1 1,-2 h 1 l 1,-1 1,1 h 1 l 1,-1 1,1 1,-1 h 1 1 l 1,1 1,-1 h 1 1 l 1,1 1,1 h 1 1 l 1,-1 h 1 l 1,1 1,-1 1,2 h 1 1 l 1,1 1,-1 1,-1 1,-1 h 1 1 1 1 l 1,1 1,1 1,-1 h 1 l 1,1 1,-1 h 1 1 l 1,-1 h 1 l 1,1 1,1 h 1 l 1,1 h 1 l 1,-1 h 1 l 1,-1 1,1 1,-1 1,-1 1,-1 1,1 h 1 l 1,2 h 1 1 l 1,-1 h 1 1 1 l 1,1 1,-1 h 1 l 1,-1 h 1 l 1,-1 h 1 1 l 1,-1 1,-1 1,1 1,1 1,-1 1,1 h 1 l 1,-1 h 1 1 1 l 1,1 h 1 1 1 1 l 1,1 1,-1 h 1 l 1,1 1,1 1,-1 1,-1 h 1 l 1,1 h 1 l 1,1 h 1 1 l 1,1 h 1 l 1,-1 1,-1 h 1 l 1,-1 h 1 1 1 l 1,1 1,1 1,-1 h 1 1 l 1,1 h 1 l 1,1 h 1 1 l 1,-1 1,-1 h 1 l 1,1 1,1 1,-1 1,1 h 1 l 1,-1 1,1 1,1 1,1 1,-1 h 1 l 1,1 1,-1 h 1 l 1,1 h 1 1 1 1 1 1 l 1,-1 1,1 1,-1 h 1 1 1 1 l 1,1 1,-1 1,-1 h 1 l 1,1 h 1 1 l 1,1 1,1 h 1 l 1,-1 h 1 l 1,-2 1,1 1,1 h 1 l 1,1 1,-1 h 1 1 l 1,-1 h 1 l 1,-1 h 1 1 1 1 l 1,1 h 1 l 1,-2 h 1 l 1,1 1,1 1,-1 h 1 1 1 l 1,-2 h 1 l 1,2 h 1 l 1,-1 1,-1 1,-1 h 1 l 1,-1 h 1 l 1,-1 h 1 1 1 l 1,-1 h 1 1 l 1,-1 h 1 l 1,-1 h 1 1 1 l 1,-1 1,-1 h 1 1 l 1,1 1,-1 h 1 1 l 1,-2 h 1 l 1,-1 h 1 l 1,-1 h 1 1 1 1 l 1,-1 h 1 1 l 1,-1 h 1 1 l 1,-1 h 1 1 l 1,-1 h 1 l 1,-1 h 1 l 1,-1 1,-2 1,1 1,1 1,-1 1,-1 h 1 1 1 1 l 1,-2 1,1 1,-1 1,-1 1,1 h 1 l 1,-1 h 1 1 1 1 l 1,-1 h 1 1 l 1,1 h 1 l 1,-1 1,-1 1,1 h 1 1 l 1,1 1,-1 1,-1 h 1 l 1,1 h 1 1 l 1,-1 h 1 1 l 1,1 h 1 1 l 1,1 h 1 1 1 l 1,-1 h 1 l 1,1 h 1 1 1 1 l 1,1 1,1 1,-1 h 1 l 1,1 1,-1 h 1 1 1 l 1,1 1,-1 1,1 1,1 1,1 h 1 l 1,-1 1,1 1,1 h 1 1 1 l 1,2 h 1 1 l 1,1 1,1 1,-2 1,1 h 1 1 1 l 1,1 h 1 1 l 1,1 h 1 1 l 1,-1 1,1 1,1 h 1 l 1,-1 h 1 l 1,1 h 1 l 1,1 h 1 1 l 1,-1 1,2 h 1 1 1 1 l 1,-1 1,2 h 1 1 1 l 1,1 1,-1 1,1 1,1 h 1 1 l 1,-1 h 1 1 l 1,1 h 1 l 1,1 h 1 1 l 1,-1 h 1 1 l 1,-1 1,2 h 1 1 1 l 1,1 h 1 1 l 1,1 h 1 1 1 1 l 1,-1 h 1 l 1,1 h 1 l 1,1 h 1 l 1,-1 h 1 l 1,1 1,-1 h 1 1 1 l 1,-1 1,1 1,1 h 1 l 1,2 h 1 1 l 1,2 1,1 1,-2 1,-1 h 1 l 1,1 h 1 1 l 1,2 h 1 1 l 1,-1 h 1 1 1 1 l 1,-1 1,2 h 1 1 1 l 1,1 h 1 l 1,-2 h 1 l 1,1 1,1 1,1 1,2 1,1 h 1 1 l 1,-1 1,-1 1,1 h 1 1 1 l 1,1 h 1 1 l 1,-1 h 1 l 1,1 1,-1 h 1 l 1,1 1,1 1,-1 h 1 1 l 1,1 1,1 h 1 1 1 1 1 1 1 1 l 1,1 1,-1 h 1 1 l 1,1 1,-1 h 1 l 1,1 h 1 1 1 l 1,-1 h 1 1 l 1,1 1,1 h 1 l 1,1 h 1 1 l 1,1 h 1 l 1,-1 1,-1 1,-1 h 1 1 1 l 1,-1 1,2 h 1 1 l 1,2 1,-1 h 1 1 l 1,-1 1,1 h 1 l 1,-1 1,1 1,-2 1,1 h 1 1 1 1 l 1,1 1,-1 1,-1 1,1 1,-1 h 1 l 1,2 h 1 l 1,-1 h 1 l 1,1 h 1 1 1 l 1,1 h 1 1 1 1 l 1,2 1,-1 h 1 1 l 1,1 h 1 l 1,-1 1,-1 1,1 1,-1 h 1 1 1 1 1 1 1 1 1 l 1,3 1,1 1,-1 1,-1 1,-1 h 1 1 l 1,-1 h 1 l 1,1 h 1 l 1,-1 1,1 1,-1 1,2 1,1 1,1 1,1 1,-1 1,1 1,-1 1,-2 1,-2 h 1 1 1 l 1,2 h 1 l 1,1 h 1 l 1,1 1,1 1,-2 h 1 1 l 1,2 1,-2 1,1 h 1 1 1 l 1,-1 h 1 1 1 1 1 1 l 1,1 1,1 h 1 l 1,-1 h 1 l 1,1 h 1 1 1 1 l 1,2 1,1 h 1 l 1,-1 1,1 1,1 1,1 1,-1 1,1 1,3 1,4 h 1 l 1,-3 1,-1 h 1 l 1,-1 1,-1 h 1 1 1 1 l 1,1 h 1 1 l 1,-1 1,1 h 1 l 1,1 h 1 l 1,-1 h 1 1 1 1 l 1,2 1,2 1,1 1,-1 h 1 l 1,-2 1,-2 1,-1 h 1 1 1 l 1,2 h 1 l 1,1 h 1 1 l 1,1 1,-1 1,-2 1,-1 1,1 h 1 1 l 1,1 h 1 l 1,1 1,-1 1,1 1,-1 1,1 h 1 1 1 l 1,1 1,-1 h 1 1 l 1,1 h 1 1 l 1,1 h 1 l 1,-1 h 1 1 1 1 l 1,1 h 1 l 1,1 1,1 1,-1 h 1 1 l 1,1 1,-1 1,-1 h 1 l 1,1 h 1 l 1,1 h 1 l 1,-1 1,-1 1,1 h 1 l 1,-1 h 1 l 1,1 1,1 h 1 1 1 l 1,-1 h 1 1 l 1,1 1,1 h 1 1 l 1,-1 1,1 1,-1 h 1 1 1 l 1,-1 1,1 1,1 1,-2 1,-1 1,2 h 1 l 1,-1 h 1 l 1,-1 h 1 l 1,1 1,-1 1,-1 1,1 h 1 1 l 1,-1 1,1 h 1 l 1,-1 1,-1 h 1 1 l 1,1 1,-1 1,1 1,-1 h 1 l 1,-1 h 1 l 1,-1 1,-1 1,1 1,-1 h 1 l 1,-1 h 1 l 1,1 1,-1 h 1 1 l 1,1 1,-1 h 1 l 1,-1 1,-1 h 1 1 l 1,-2 1,1 h 1 l 1,-1 1,-1 1,-1 h 1 l 1,1 h 1 1 l 1,-1 1,-1 h 1 l 1,-1 1,1 h 1 l 1,-1 h 1 l 1,-2 h 1 1 1 1 1 1 1 l 1,-1 1,1 h 1 l 1,-1 1,1 h 1 1 l 1,-1 h 1 l 1,-1 h 1 l 1,-1 h 1 1 1 1 l 1,1 1,-1 1,-1 1,-2 1,2 h 1 l 1,1 1,-1 h 1 1 1 l 1,-1 h 1 1 1 l 1,2 h 1 l 1,2 1,-2 1,-1 h 1 l 1,1 1,-1 1,1 h 1 1 l 1,-1 1,1 h 1 1 l 1,2 h 1 l 1,1 h 1 l 1,-2 h 1 l 1,1 h 1 l 1,-1 1,-1 1,1 1,-1 1,1 1,1 h 1 1 1 1 1 l 1,1 h 1 1 1 1 l 1,1 1,-1 h 1 l 1,2 1,-1 h 1 1 l 1,-1 1,1 1,1 1,2 1,1 h 1 1 l 1,-2 1,-1 1,-1 1,1 1,2 1,1 1,2 1,1 h 1 l 1,-1 1,-1 h 1 1 l 1,-1 1,-1 1,2 1,1 1,1 h 1 1 1 1 1 l 1,1 h 1 l 1,1 h 1 l 1,1 1,1 1,-1 1,1 1,-1 1,1 1,1 h 1 l 1,1 1,1 h 1 l 1,-1 1,-1 1,-1 h 1 1 1 l 1,1 1,1 1,1 h 1 l 1,-1 1,1 1,1 1,-1 1,2 h 1 l 1,1 1,-1 h 1 l 1,-1 h 1 1 l 1,1 1,1 h 1 1 1 l 1,1 1,-1 h 1 l 1,1 1,1 1,1 1,2 h 1 1 l 1,-1 h 1 l 1,2 1,1 h 1 l 1,1 1,-1 1,1 h 1 l 1,-1 1,-1 1,1 1,2 1,1 1,-1 h 1 l 1,1 1,-1 1,-1 1,1 1,-1 1,-1 1,1 h 1 l 1,2 1,1 h 1 l 1,-2 h 1 l 1,1 1,1 h 1 1 1 l 1,-2 h 1 l 1,1 h 1 l 1,1 1,1 h 1 1 l 1,-1 1,-2 h 1 l 1,1 1,-2 h 1 l 1,1 1,2 h 1 1 1 1 l 1,1 1,1 1,-1 h 1 l 1,-1 h 1 l 1,-2 1,-1 h 1 l 1,1 h 1 1 1 l 1,1 h 1 l 1,1 h 1 l 1,1 h 1 l 1,-1 h 1 1 1 1 1 1 1 1 1 l 1,-1 1,1 1,-1 h 1 1 l 1,1 h 1 1 l 1,1 1,-1 h 1 1 l 1,1 1,-1 h 1 l 1,1 h 1 l 1,1 h 1 1 1 1 l 1,-1 1,2 h 1 l 1,1 1,-1 1,-2 h 1 1 1 1 l 1,1 1,1 1,1 1,-2 h 1 l 1,-1 h 1 1 1 1 1 l 1,1 1,-1 h 1 1 l 1,1 1,1 1,-1 1,1 h 1 l 1,-1 h 1 1 l 1,-1 h 1 1 l 1,2 h 1 1 l 1,-1 1,1 1,-1 1,-1 1,-1 1,-1 h 1 l 1,1 h 1 1 l 1,2 1,-1 h 1 1 l 1,1 h 1 1 1 1 1 l 1,-2 h 1 l 1,2 h 1 1 1 l 1,-1 1,-1 1,-1 1,-2 1,2 1,-1 h 1 1 1 l 1,1 1,1 1,1 h 1 l 1,-1 1,-2 1,-2 1,-1 h 1 1 1 l 1,1 h 1 l 1,-1 1,-2 h 1 l 1,-1 h 1 1 l 1,1 1,1 h 1 1 l 1,-1 h 1 l 1,-2 1,2 1,2 1,1 1,2 h 1 l 1,-2 1,-5 1,-3 1,-1 1,-1 1,1 1,-1 h 1 l 1,1 1,2 h 1 1 l 1,-2 1,-2 1,-1 h 1 l 1,-2 1,-1 1,-1 1,-1 1,2 h 1 1 1 1 l 1,-1 h 1 1 1 l 1,-1 h 1 l 1,-1 h 1 l 1,1 h 1 l 1,-1 1,1 1,-1 1,1 1,-1 h 1 1 1 l 1,-1 h 1 1 l 1,1 1,1 h 1 1 l 1,-1 h 1 1 l 1,-1 1,1 h 1 l 1,1 1,-1 1,-1 1,1 h 1 1 l 1,1 1,-1 h 1 l 1,1 h 1 1 1 1 1 1 l 1,-1 1,-1 h 1 1 l 1,1 h 1 1 l 1,-1 1,1 1,1 1,-1 1,1 1,1 1,1 h 1 l 1,-2 h 1 l 1,-1 1,2 h 1 1 1 l 1,-1 h 1 l 1,2 1,1 h 1 l 1,-1 1,-1 h 1 1 l 1,1 1,-1 1,-1 1,1 h 1 l 1,1 1,-1 h 1 1 l 1,1 1,-1 1,-1 h 1 l 1,-1 1,2 h 1 1 l 1,-1 1,-1 h 1 l 1,-1 1,1 h 1 l 1,-1 h 1 l 1,1 1,-1 h 1 1 l 1,1 1,2 1,2 h 1 1 l 1,-1 1,-2 1,-2 1,-1 h 1 l 1,-1 1,-1 1,1 h 1 1 l 1,2 h 1 1 l 1,-2 1,1 h 1 l 1,1 1,1 1,-2 1,-1 1,-1 h 1 1 l 1,-2 1,-1 h 1 1 1 l 1,-1 1,1 h 1 l 1,2 1,-1 1,-1 h 1 1 l 1,1 1,2 1,3 1,-1 1,-2 1,-3 1,-2 1,-2 1,-2 h 1 1 l 1,-1 1,1 1,-1 h 1 1 l 1,3 1,2 h 1 l 1,-3 1,-1 h 1 1 l 1,-1 h 1 1 l 1,1 h 1 l 1,-1 1,1 h 1 l 1,1 1,-2 1,-1 1,-1 h 1 1 l 1,-2 1,1 h 1 l 1,1 1,-1 1,1 1,-1 h 1 1 1 1 1 l 1,1 1,-1 1,1 1,1 1,-1 h 1 1 l 1,-1 h 1 1 l 1,1 1,-1 1,1 1,1 h 1 1 l 1,1 h 1 l 1,-1 1,1 1,1 1,-2 1,1 h 1 l 1,2 h 1 l 1,1 1,1 1,1 h 1 l 1,-1 h 1 l 1,1 1,1 h 1 l 1,1 h 1 1 1 l 1,1 h 1 1 1 l 1,2 h 1 1 l 1,1 1,1 1,-1 h 1 1 1 l 1,1 1,1 h 1 l 1,1 1,1 1,-1 1,1 h 1 1 1 1 l 1,-1 h 1 l 1,1 1,1 1,1 1,2 1,1 h 1 1 1 l 1,-1 1,-1 h 1 l 1,1 1,-2 1,1 1,1 h 1 l 1,-1 1,2 h 1 1 l 1,-2 1,-1 h 1 l 1,-1 1,2 h 1 1 1 1 l 1,1 1,3 h 1 l 1,-2 1,-3 1,-1 1,-1 h 1 1 1 l 1,-1 h 1 l 1,-2 1,-1 1,-1 h 1 l 1,-1 1,-1 h 1 1 1 1 1 l 1,1 h 1 1 l 1,-1 1,-1 h 1 1 1 1 1 1 l 1,1 h 1 1 l 1,1 1,1 1,-1 1,-2 h 1 1 1 1 1 1 1 1 1 l 1,-1 h 1 1 l 1,1 h 1 1 l 1,1 1,1 h 1 1 l 1,1 1,-1 1,2 1,-1 h 1 l 1,2 1,-1 1,1 1,-1 1,-1 1,1 h 1 l 1,2 1,1 h 1 1 1 l 1,-1 1,-1 1,2 1,1 h 1 l 1,-1 h 1 l 1,2 1,1 1,1 1,1 1,1 1,3 1,1 1,1 1,3 h 1 l 1,1 1,1 1,1 1,-2 1,-1 1,-3 1,-2 1,-2 1,1 1,1 1,-1 h 1 1 l 1,2 h 1 1 l 1,-2 1,-1 h 1 l 1,1 h 1 1 l 1,1 1,4 1,2 h 1 l 1,-3 1,-3 1,-3 1,-2 1,-2 h 1 l 1,1 1,-1 1,-3 1,-2 1,-1 h 1 l 1,1 h 1 l 1,-2 h 1 l 1,1 1,1 1,-1 1,-2 h 1 l 1,1 1,-2 h 1 l 1,-1 1,-1 1,-1 1,-2 1,-2 h 1 l 1,-1 1,1 h 1 1 l 1,1 1,1 h 1 1 l 1,-1 h 1 1 l 1,1 h 1 l 1,1 h 1 l 1,-2 h 1 l 1,1 h 1 1 l 1,1 1,1 1,1 h 1 l 1,2 h 1 1 l 1,1 h 1 l 1,1 h 1 1 1 l 1,1 1,1 1,1 h 1 1 1 1 l 1,-2 1,1 1,3 h 1 l 1,2 1,1 1,1 1,1 1,-1 1,1 1,1 1,1 1,2 h 1 l 1,-1 1,-2 1,1 1,1 1,1 1,1 1,-2 h 1 l 1,1 1,2 1,4 h 1 l 1,-2 1,-2 1,-2 1,-3 h 1 l 1,-2 h 1 l 1,-4 h 1 l 1,1 1,3 1,1 h 1 l 1,-1 1,-1 1,-2 1,-3 1,-1 1,-2 1,-1 1,-1 h 1 l 1,-2 h 1 l 1,-1 h 1 l 1,-2 h 1 l 1,-2 1,-3 1,-3 1,-3 1,-2 1,-2 1,-2 h 1 1 l 1,1 h 1 l 1,1 1,-1 h 1 1 l 1,-1 1,-1 1,-1 h 1 l 1,-1 1,2 1,2 1,-1 1,1 1,-1 h 1 l 1,-1 h 1 1 l 1,2 h 1 1 l 1,1 h 1 l 1,1 1,1 h 1 l 1,1 h 1 l 1,1 1,1 1,1 h 1 l 1,1 1,2 1,2 1,1 h 1 l 1,1 1,3 1,1 h 1 l 1,1 1,-1 h 1 1 l 1,1 1,2 h 1 1 1 1 1 1 l 1,1 h 1 1 l 1,1 1,1 1,1 1,-1 h 1 l 1,2 1,2 h 1 l 1,-1 1,-1 h 1 1 l 1,-3 1,-2 h 1 l 1,-1 1,-2 1,-2 1,1 1,-1 1,1 1,-1 1,1 1,-1 1,-2 h 1 l 1,-2 1,-3 1,-2 1,-2 1,-1 1,1 1,-1 1,1 h 1 l 1,-2 1,-1 1,-1 h 1 1 l 1,-1 1,-2 1,-1 1,1 1,-1 1,-3 1,-2 1,-2 h 1 1 l 1,-1 1,-1 1,1 h 1 l 1,1 h 1 l 1,-1 1,-2 1,3 1,1 1,2 1,2 1,1 1,2 1,1 1,-1 h 1 l 1,-2 1,-1 h 1 l 1,-1 1,1 1,1 1,2 1,1 1,2 1,1 1,-1 1,-1 1,-1 1,1 1,3 1,3 1,4 1,1 1,-2 1,-3 1,-2 1,-1 1,-1 1,2 1,1 1,1 1,-1 1,1 1,2 1,3 1,2 1,-3 1,-3 1,-2 1,-2 1,-1 1,1 1,2 1,1 1,-1 1,-2 1,-2 1,-2 h 1 1 l 1,-1 1,-1 1,-1 1,-3 1,-2 h 1 l 1,-1 1,2 1,1 1,1 1,-2 h 1 l 1,-2 1,-2 h 1 l 1,-2 1,-1 1,1 h 1 l 1,-1 h 1 l 1,-1 1,-1 1,-1 1,-2 1,-1 h 1 l 1,-1 1,1 h 1 1 l 1,1 h 1 1 l 1,-1 1,1 1,-1 1,-1 h 1 l 1,1 1,-1 1,-1 1,1 h 1 l 1,-2 1,1 h 1 l 1,2 1,1 1,1 1,-1 h 1 l 1,1 1,1 1,1 1,1 h 1 l 1,1 1,1 1,1 1,1 1,1 1,2 h 1 1 1 1 l 1,1 1,1 1,1 h 1 l 1,1 1,2 1,-1 1,1 h 1 l 1,1 1,3 1,2 1,3 1,-1 1,-2 h 1 l 1,-1 h 1 l 1,1 1,2 1,1 1,-1 1,-2 1,1 1,1 h 1 l 1,1 1,1 1,-1 h 1 l 1,1 1,1 1,-1 1,1 1,-1 h 1 1 l 1,1 1,2 h 1 l 1,-2 1,-1 1,-3 1,-1 h 1 1 1 l 1,1 1,1 1,-1 h 1 l 1,-1 h 1 l 1,-1 1,2 h 1 1 l 1,1 1,1 h 1 1 l 1,1 1,-1 h 1 1 l 1,-1 1,1 1,1 1,-1 1,1 1,1 h 1 l 1,2 1,1 1,1 1,1 1,-1 1,-2 1,-1 1,2 h 1 1 1 l 1,2 h 1 1 1 l 1,1 h 1 l 1,1 1,1 h 1 l 1,-1 1,1 h 1 l 1,1 h 1 l 1,-1 h 1 l 1,1 1,-1 1,1 1,1 1,1 1,-1 1,1 h 1 l 1,1 1,1 h 1 1 l 1,-1 h 1 1 l 1,-1 1,1 1,1 h 1 l 1,1 h 1 1 l 1,-1 1,1 h 1 l 1,1 h 1 l 1,-1 h 1 l 1,1 h 1 1 1 1 1 l 1,1 h 1 1 l 1,-1 1,1 1,1 1,-1 h 1 1 1 l 1,-1 h 1 l 1,1 1,1 h 1 l 1,1 1,-1 1,-1 h 1 l 1,-1 1,1 h 1 1 1 1 1 1 1 l 1,1 h 1 l 1,-1 1,1 1,-1 h 1 l 1,1 h 1 1 l 1,2 1,-1 1,1 h 1 l 1,-1 h 1 1 1 1 1 1 1 1 l 1,-1 1,1 h 1 l 1,-1 1,1 1,1 h 1 1 1 1 1 1 l 1,1 h 1 1 l 1,1 h 1 l 1,-1 1,1 h 1 l 1,-1 1,-1 h 1 l 1,1 h 1 1 1 1 l 1,-1 1,1 1,1 1,-1 1,1 h 1 l 1,-1 1,1 1,-2 1,1 1,-1 h 1 1 l 1,1 1,1 h 1 l 1,1 h 1 l 1,-2 1,1 h 1 1 l 1,-1 1,1 h 1 l 1,1 1,-2 h 1 l 1,-1 h 1 l 1,2 h 1 1 l 1,-1 h 1 l 1,-1 h 1 l 1,1 h 1 l 1,1 1,-1 1,2 h 1 1 l 1,1 h 1 1 1 l 1,1 1,-1 h 1 1 1 l 1,-1 h 1 l 1,-1 1,1 h 1 l 1,2 h 1 l 1,-1 h 1 l 1,2 1,1 1,-2 h 1 l 1,-1 1,-1 h 1 1 1 1 1 l 1,-1 h 1 1 1 1 1 l 1,1 1,-1 h 1 1 1 1 l 1,-1 1,-1 1,1 h 1 l 1,1 h 1 l 1,-1 1,-1 1,1 h 1 l 1,-1 h 1 1 1 1 1 1 l 1,1 1,-1 h 1 l 1,1 1,-1 1,1 1,-1 1,1 h 1 l 1,1 1,-1 1,1 1,-1 h 1 1 l 1,-2 1,-1 1,1 h 1 1 1 1 1 l 1,1 h 1 1 1 l 1,-1 1,1 1,1 1,-1 1,1 h 1 l 1,-1 h 1 1 l 1,1 1,-1 h 1 1 1 1 l 1,-1 1,2 1,1 1,-1 1,1 h 1 l 1,1 1,-1 1,1 h 1 l 1,-1 h 1 1 1 1 1 l 1,1 h 1 l 1,1 1,-1 h 1 l 1,-1 1,-1 h 1 l 1,2 h 1 1 l 1,1 h 1 l 1,-1 h 1 l 1,1 1,-1 h 1 l 1,-1 h 1 1 1 l 1,-1 h 1 l 1,-1 1,1 h 1 1 1 l 1,-1 h 1 l 1,1 h 1 1 1 1 1 l 1,1 1,-1 h 1 1 l 1,-1 1,1 h 1 l 1,-2 1,1 1,1 h 1 1 l 1,-1 h 1 1 l 1,-1 h 1 1 l 1,-1 h 1 l 1,-1 h 1 1 1 l 1,1 1,-1 h 1 l 1,1 h 1 1 1 l 1,-1 1,1 1,-1 1,-1 h 1 1 l 1,-1 1,1 h 1 1 1 l 1,-1 h 1 l 1,-1 1,2 1,-1 1,-1 h 1 l 1,1 1,-1 1,-1 1,1 1,-1 h 1 1 l 1,-1 1,1 h 1 l 1,-1 h 1 l 1,-1 1,1 h 1 l 1,-1 h 1 l 1,-1 h 1 1 l 1,1 h 1 l 1,1 h 1 1 l 1,-1 h 1 l 1,1 1,-1 h 1 1 l 1,1 1,-2 h 1 l 1,1 1,-1 1,-1 1,-1 h 1 1 1 l 1,-1 h 1 1 1 1 l 1,1 h 1 1 1 1 l 1,-1 h 1 1 l 1,-1 h 1 1 l 1,1 h 1 1 l 1,-1 h 1 1 l 1,-1 h 1 l 1,-1 h 1 l 1,1 h 1 1 l 1,-2 1,2 h 1 l 1,-1 h 1 1 1 l 1,-1 h 1 1 1 1 1 l 1,1 1,-1 1,1 1,-1 1,-1 h 1 1 l 1,-1 h 1 1 l 1,-1 h 1 1 1 1 1 1 l 1,-1 h 1 1 l 1,-1 1,1 1,-1 h 1 l 1,-1 h 1 1 1 l 1,1 h 1 l 1,-1 h 1 1 1 l 1,-1 1,-1 h 1 l 1,-1 1,1 h 1 1 l 1,-1 1,-1 1,1 h 1 l 1,-1 h 1 1 l 1,1 h 1 l 1,-2 1,1 h 1 1 1 l 1,1 h 1 1 l 1,1 h 1 1 l 1,-1 1,-1 1,1 h 1 1 1 1 l 1,1 1,-1 h 1 l 1,-1 h 1 l 1,1 1,1 h 1 l 1,-1 h 1 1 l 1,-1 h 1 l 1,-2 h 1 l 1,1 h 1 l 1,1 h 1 1 1 1 1 1 l 1,-1 1,-1 1,1 h 1 l 1,1 1,-1 h 1 l 1,1 h 1 l 1,-2 h 1 l 1,1 h 1 1 1 l 1,-1 h 1 l 1,-1 h 1 1 l 1,1 1,1 h 1 1 l 1,-1 h 1 1 1 l 1,-1 h 1 1 l 1,-1 h 1 l 1,-1 h 1 l 1,1 h 1 1 1 l 1,-1 1,1 1,-1 1,-1 h 1 1 1 1 1 l 1,-1 1,1 1,-2 1,1 1,-1 1,1 1,-1 1,-1 h 1 l 1,2 h 1 1 1 l 1,-1 1,1 h 1 l 1,-1 h 1 1 1 l 1,-1 1,1 1,-2 1,1 1,-2 h 1 1 l 1,-1 h 1 l 1,1 1,-1 h 1 1 1 l 1,1 1,-1 1,1 h 1 1 l 1,1 h 1 1 1 l 1,-1 h 1 l 1,-2 h 1 l 1,1 1,-2 h 1 1 l 1,1 h 1 1 l 1,-1 h 1 l 1,-1 1,-1 h 1 1 1 l 1,-1 h 1 1 l 1,-1 1,-1 h 1 1 l 1,-1 1,1 1,1 1,-2 1,-1 1,1 h 1 1 1 1 l 1,-1 1,1 1,-1 h 1 l 1,-1 h 1 l 1,1 1,-1 h 1 1 1 1 1 1 l 1,1 h 1 1 1 l 1,-2 h 1 l 1,-1 h 1 1 1 1 1 l 1,1 1,1 h 1 1 1 1 l 1,-1 h 1 1 l 1,-1 1,-1 h 1 1 1 l 1,-2 1,1 h 1 l 1,1 h 1 l 1,-1 h 1 l 1,-1 h 1 1 1 1 1 1 l 1,-1 1,1 1,-1 1,1 1,-1 h 1 1 1 l 1,-1 h 1 l 1,-1 h 1 l 1,1 1,-1 h 1 1 1 1 l 1,1 1,-1 1,-1 h 1 l 1,-1 1,1 h 1 1 1 l 1,-1 h 1 l 1,1 1,1 h 1 l 1,-1 1,-2 h 1 l 1,1 h 1 1 1 1 l 1,-1 h 1 1 l 1,1 h 1 l 1,-1 h 1 l 1,1 h 1 l 1,1 1,-1 h 1 1 1 l 1,-1 1,-1 1,1 h 1 l 1,1 1,-1 1,1 1,1 1,-1 1,1 h 1 1 l 1,-1 1,1 1,-1 h 1 1 l 1,1 1,-1 h 1 1 1 1 1 l 1,-2 h 1 1 1 l 1,1 h 1 1 l 1,-1 h 1 1 l 1,1 1,1 h 1 l 1,-1 h 1 1 l 1,-1 1,1 1,1 h 1 1 l 1,-1 1,1 1,-1 h 1 1 1 1 l 1,-1 h 1 1 1 1 l 1,1 h 1 1 l 1,-1 h 1 l 1,-1 1,1 1,1 1,-1 1,1 1,-1 1,-1 1,1 1,1 1,-1 1,-2 1,1 1,1 h 1 1 l 1,-1 h 1 1 1 l 1,1 1,-1 h 1 1 1 1 1 1 1 1 l 1,-1 1,1 h 1 1 1 1 l 1,-1 h 1 1 l 1,-1 h 1 1 l 1,-1 1,1 h 1 1 l 1,-1 1,1 1,1 h 1 l 1,1 h 1 l 1,-1 h 1 l 1,-1 1,1 h 1 l 1,-1 1,1 h 1 1 l 1,-1 h 1 l 1,-1 1,1 1,-1 h 1 l 1,1 1,1 1,-1 h 1 1 l 1,-1 1,1 1,-1 1,-1 1,1 1,1 h 1 1 l 1,-1 1,-2 1,1 h 1 1 1 l 1,1 h 1 1 1 l 1,-1 h 1 l 1,-1 1,1 h 1 l 1,1 h 1 l 1,1 1,-2 1,1 1,-1 1,1 h 1 1 1 1 l 1,1 h 1 l 1,1 h 1 1 l 1,-1 h 1 1 1 l 1,-1 h 1 1 1 l 1,1 1,1 h 1 1 l 1,-1 1,1 h 1 1 1 1 l 1,-1 h 1 1 l 1,1 1,1 1,1 h 1 l 1,-1 1,1 1,1 h 1 l 1,-1 h 1 l 1,-1 h 1 l 1,1 h 1 1 1 l 1,1 h 1 1 l 1,1 h 1 1 1 l 1,-1 h 1 l 1,1 h 1 1 l 1,1 h 1 l 1,2 h 1 1 l 1,1 1,1 h 1 1 1 1 1 1 1 1 l 1,2 h 1 l 1,-1 h 1 1 l 1,1 1,1 h 1 1 l 1,-1 1,1 h 1 1 1 1 l 1,1 h 1 l 1,1 h 1 1 1 l 1,1 h 1 l 1,2 h 1 l 1,-1 1,1 1,1 h 1 1 l 1,2 1,1 1,2 1,-1 1,-2 1,1 h 1 1 l 1,1 1,1 h 1 l 1,1 1,-1 1,1 h 1 1 1 1 l 1,1 h 1 l 1,1 1,1 h 1 l 1,-1 1,1 1,-1 h 1 1 l 1,1 h 1 1 1 l 1,1 1,-1 1,1 1,1 h 1 l 1,1 1,1 h 1 l 1,1 1,-1 h 1 l 1,1 1,-1 1,2 h 1 1 1 l 1,1 h 1 l 1,-1 1,-1 h 1 1 l 1,1 1,1 1,1 h 1 1 1 l 1,1 h 1 l 1,1 h 1 l 1,-1 h 1 l 1,2 1,-1 1,1 h 1 1 l 1,1 1,1 h 1 1 1 l 1,-1 1,1 h 1 l 1,1 1,-1 1,1 h 1 l 1,1 h 1 1 l 1,1 1,-1 h 1 1 1 1 l 1,2 h 1 1 1 1 l 1,-1 1,1 1,1 h 1 l 1,1 1,-1 1,1 h 1 1 1 l 1,1 h 1 1 1 1 1 l 1,1 h 1 1 1 1 l 1,1 h 1 1 l 1,-1 1,1 h 1 1 l 1,2 h 1 l 1,-1 1,1 h 1 1 l 1,-1 1,2 h 1 l 1,-1 1,1 1,-1 h 1 l 1,-1 1,1 h 1 1 l 1,1 1,-1 1,2 h 1 l 1,1 h 1 1 1 1 l 1,-1 1,1 h 1 1 l 1,-1 h 1 l 1,1 1,-1 h 1 1 1 1 1 l 1,1 h 1 1 l 1,1 1,-1 h 1 1 l 1,-1 1,1 1,1 1,-1 h 1 1 l 1,-1 1,1 h 1 1 1 1 1 l 1,-1 h 1 l 1,1 1,-1 1,2 h 1 l 1,1 h 1 l 1,-1 h 1 l 1,1 h 1 l 1,1 1,-1 1,-1 1,-1 1,1 1,1 1,1 1,-1 h 1 l 1,-2 1,1 h 1 l 1,1 h 1 l 1,-1 h 1 l 1,1 h 1 l 1,-1 1,-1 1,2 h 1 l 1,-1 1,1 h 1 l 1,1 1,-1 h 1 l 1,1 1,-1 h 1 1 1 1 l 1,-1 h 1 l 1,1 h 1 l 1,-1 h 1 1 1 1 1 l 1,1 1,-1 1,1 h 1 1 1 1 l 1,1 1,-1 1,-1 1,1 1,-1 h 1 1 l 1,1 h 1 l 1,-1 1,1 1,1 1,-1 h 1 l 1,1 h 1 1 l 1,-1 1,1 h 1 1 1 l 1,-1 1,1 h 1 1 l 1,-1 h 1 l 1,1 1,-1 h 1 1 l 1,-1 h 1 1 1 1 1 1 1 l 1,1 h 1 1 l 1,-1 h 1 1 l 1,-1 1,1 1,-1 1,-1 h 1 l 1,1 h 1 l 1,-1 h 1 l 1,1 h 1 l 1,1 h 1 l 1,-1 h 1 1 1 l 1,-1 h 1 1 1 l 1,-1 1,1 h 1 1 l 1,-1 h 1 1 1 1 l 1,-1 h 1 l 1,-1 h 1 1 l 1,-1 1,1 1,1 1,1 1,1 h 1 l 1,-1 h 1 l 1,-1 h 1 l 1,-2 1,1 h 1 l 1,-1 h 1 1 l 1,1 1,1 1,-1 1,1 h 1 l 1,1 1,-1 1,2 h 1 l 1,-1 1,-1 1,-1 1,1 h 1 1 l 1,1 h 1 1 1 1 1 l 1,1 h 1 1 l 1,-1 1,-1 1,1 1,-1 1,1 1,1 h 1 1 l 1,-1 1,-2 h 1 1 l 1,-1 1,-1 h 1 l 1,1 h 1 l 1,-1 h 1 1 l 1,-1 h 1 l 1,-1 1,1 h 1 l 1,1 1,-1 h 1 1 1 l 1,1 h 1 1 1 l 1,-1 h 1 l 1,1 1,-1 1,-1 1,1 1,-1 h 1 1 1 1 1 l 1,-1 h 1 1 1 l 1,-1 h 1 l 1,1 1,-1 1,1 h 1 l 1,1 1,-1 h 1 l 1,1 1,2 h 1 l 1,1 h 1 1 l 1,-2 h 1 1 1 1 l 1,1 h 1 l 1,-1 h 1 l 1,1 1,-1 1,-1 1,1 h 1 l 1,1 h 1 l 1,1 1,1 1,-1 1,-1 1,1 h 1 l 1,-1 h 1 l 1,-1 1,1 h 1 1 l 1,-1 1,-1 h 1 1 1 1 1 l 1,1 1,1 h 1 1 l 1,-2 1,1 h 1 l 1,-1 h 1 1 l 1,-1 1,1 h 1 l 1,-1 1,1 h 1 l 1,-1 1,1 h 1 l 1,-1 1,1 h 1 1 l 1,-1 h 1 1 l 1,2 h 1 l 1,-1 h 1 1 l 1,1 1,-2 1,2 1,1 h 1 l 1,-1 1,1 h 1 l 1,-1 1,1 h 1 1 1 l 1,1 h 1 l 1,-1 h 1 1 1 1 l 1,-1 h 1 1 1 1 1 1 l 1,-1 h 1 1 l 1,1 h 1 l 1,1 h 1 l 1,1 h 1 1 1 l 1,1 h 1 l 1,-1 h 1 1 1 1 l 1,-1 1,1 1,-2 h 1 l 1,1 h 1 1 1 l 1,-1 h 1 1 l 1,1 h 1 l 1,1 h 1 l 1,1 1,-1 h 1 1 1 1 1 l 1,-1 h 1 1 l 1,1 h 1 1 1 1 l 1,-1 1,1 1,1 1,-1 1,-1 h 1 1 1 l 1,1 1,1 h 1 1 1 1 1 1 l 1,-1 h 1 1 1 l 1,-1 h 1 1 l 1,-1 1,1 h 1 l 1,1 h 1 l 1,-1 1,1 1,1 h 1 l 1,1 h 1 l 1,-1 h 1 1 1 1 l 1,1 1,-1 1,1 1,-1 1,-1 1,1 h 1 1 1 1 l 1,-1 1,1 h 1 1 1 1 l 1,-1 1,1 1,1 1,-1 h 1 1 l 1,2 1,1 h 1 l 1,-1 h 1 1 1 l 1,1 h 1 1 1 l 1,-1 h 1 1 l 1,-1 1,2 1,1 1,1 1,-1 1,-1 1,1 h 1 1 l 1,-1 1,-1 h 1 l 1,1 1,-1 1,1 1,1 1,1 1,-1 h 1 l 1,-1 1,1 1,-1 h 1 l 1,-1 1,1 h 1 l 1,1 1,2 1,-1 h 1 1 l 1,-1 h 1 l 1,-1 1,1 1,1 1,1 1,-1 h 1 l 1,1 h 1 l 1,-1 1,-1 h 1 1 1 l 1,1 1,1 1,-1 h 1 l 1,1 h 1 1 1 l 1,1 1,-1 h 1 l 1,1 1,-1 h 1 1 l 1,-1 1,1 1,-1 1,1 h 1 1 l 1,-1 h 1 1 1 l 1,1 h 1 1 l 1,1 h 1 1 1 1 1 1 1 1 1 1 1 1 l 1,1 1,-1 h 1 1 1 1 1 1 1 1 1 1 1 1 1 1 1 1 1 l 1,-1 h 1 1 l 1,-1 1,1 h 1 l 1,1 h 1 l 1,-1 1,1 h 1 1 1 l 1,-1 h 1 1 1 1 l 1,1 h 1 1 l 1,1 1,-1 h 1 1 l 1,-1 1,1 h 1 1 1 1 1 1 1 1 l 1,1 1,1 h 1 1 1 l 1,-1 1,-1 h 1 1 1 1 l 1,1 h 1 1 1 l 1,1 h 1 l 1,1 1,1 1,-1 h 1 l 1,-1 1,1 h 1 l 1,-1 1,1 1,1 1,-1 1,-1 h 1 1 l 1,1 h 1 1 l 1,1 1,-1 1,1 h 1 1 l 1,-1 h 1 l 1,-1 1,1 h 1 l 1,-1 1,1 h 1 1 1 1 1 l 1,-1 h 1 1 l 1,1 1,-1 1,1 h 1 1 1 1 l 1,-1 h 1 l 1,1 h 1 l 1,2 h 1 1 l 1,-1 h 1 1 1 1 l 1,-1 h 1 l 1,1 1,-1 h 1 1 l 1,2 h 1 1 l 1,1 1,-1 1,-1 1,1 1,-1 h 1 l 1,1 h 1 1 l 1,-1 h 1 1 1 l 1,1 1,1 h 1 l 1,-1 1,-1 1,1 1,-1 h 1 l 1,1 1,1 h 1 l 1,1 1,-1 h 1 l 1,-1 h 1 1 l 1,1 1,2 h 1 1 l 1,-1 1,1 1,1 h 1 l 1,2 h 1 l 1,-1 h 1 l 1,-1 1,-1 1,1 h 1 1 l 1,1 1,-1 1,1 h 1 l 1,-1 h 1 1 1 1 l 1,1 h 1 l 1,1 1,-1 1,1 h 1 1 l 1,-1 h 1 l 1,-1 1,-1 1,-1 1,2 h 1 1 l 1,1 1,-1 1,1 1,2 1,-1 h 1 l 1,1 1,-1 1,1 1,1 1,-1 h 1 l 1,1 h 1 l 1,-1 1,1 h 1 1 1 1 l 1,1 1,-1 1,-1 1,1 h 1 l 1,-1 h 1 1 1 l 1,-2 1,-1 1,1 1,-1 h 1 l 1,1 h 1 1 l 1,-1 1,1 1,-2 1,1 1,-1 h 1 l 1,-1 1,1 h 1 l 1,-1 1,1 h 1 l 1,-1 1,1 1,1 1,-1 1,-1 h 1 l 1,2 1,-1 h 1 l 1,-1 h 1 1 1 1 1 l 1,-1 h 1 1 l 1,1 1,1 1,-1 1,1 1,1 h 1 l 1,1 h 1 l 1,1 h 1 l 1,-2 1,-1 h 1 l 1,1 h 1 l 1,1 h 1 l 1,-2 h 1 l 1,-1 1,2 1,1 h 1 l 1,1 1,1 1,-2 1,1 1,2 h 1 1 1 l 1,-1 1,1 1,-1 h 1 l 1,1 1,1 h 1 1 1 l 1,1 1,-1 1,1 1,-1 h 1 l 1,1 1,2 1,-1 h 1 1 l 1,-1 1,1 h 1 1 1 1 l 1,-1 1,1 h 1 1 1 l 1,1 h 1 1 1 l 1,1 1,-1 1,1 1,-1 1,1 1,1 h 1 l 1,1 1,-1 1,1 h 1 1 1 l 1,1 h 1 l 1,-1 h 1 l 1,1 h 1 l 1,1 1,-1 1,-1 1,-1 h 1 1 l 1,1 h 1 1 1 l 1,1 h 1 1 1 1 l 1,1 h 1 1 l 1,1 1,-1 h 1 l 1,-1 h 1 l 1,-1 h 1 l 1,-1 1,2 h 1 l 1,1 h 1 1 l 1,1 1,-1 h 1 1 1 1 l 1,1 h 1 1 l 1,1 1,-1 h 1 l 1,-1 1,-1 1,1 1,1 h 1 1 l 1,1 h 1 l 1,-1 h 1 1 1 1 1 l 1,1 1,2 1,-1 1,1 1,1 1,1 h 1 l 1,-1 1,-1 h 1 l 1,1 h 1 1 1 1 1 1 l 1,1 h 1 l 1,-1 h 1 l 1,1 h 1 1 1 l 1,-1 h 1 1 1 l 1,1 h 1 1 l 1,-1 1,1 h 1 l 1,-1 1,1 h 1 l 1,-1 1,-1 h 1 1 1 l 1,-2 h 1 l 1,-1 1,-1 1,1 1,-1 h 1 1 1 1 l 1,1 1,-1 h 1 l 1,-1 1,1 h 1 1 l 1,1 h 1 1 l 1,1 h 1 1 1 1 l 1,-1 h 1 1 l 1,1 1,-1 1,-1 h 1 1 1 l 1,-1 h 1 1 l 1,-1 1,1 h 1 l 1,1 1,1 1,-2 h 1 1 l 1,1 h 1 l 1,-1 h 1 1 1 l 1,-1 1,1 1,1 h 1 1 1 l 1,1 h 1 1 1 1 1 1 l 1,1 h 1 1 1 1 l 1,-1 1,-1 h 1 l 1,-1 1,1 h 1 l 1,1 1,-1 1,-1 h 1 1 l 1,1 1,-2 1,1 h 1 l 1,-1 h 1 1 1 1 1 l 1,-1 1,-1 1,1 h 1 l 1,1 h 1 l 1,-1 1,1 h 1 l 1,-1 h 1 l 1,1 1,-1 1,-1 h 1 1 l 1,-1 1,1 1,-1 h 1 l 1,-1 h 1 1 1 l 1,-2 1,1 h 1 l 1,-2 1,-1 1,1 1,-1 h 1 1 1 1 l 1,1 h 1 l 1,-2 h 1 1 1 1 l 1,-1 h 1 1 1 l 1,1 1,-1 h 1 1 1 l 1,1 1,-1 1,-1 h 1 l 1,1 h 1 l 1,-1 h 1 l 1,-1 h 1 1 1 l 1,-1 h 1 1 l 1,-1 h 1 l 1,1 1,1 h 1 l 1,1 h 1 1 1 1 1 l 1,-1 1,-1 h 1 1 l 1,1 h 1 l 1,1 1,1 1,-1 h 1 1 1 l 1,-1 1,-1 1,1 h 1 l 1,-1 1,1 h 1 l 1,1 1,1 h 1 l 1,-1 h 1 l 1,-2 h 1 l 1,1 1,-1 h 1 l 1,1 1,1 1,-1 1,1 h 1 l 1,1 1,1 1,-1 h 1 l 1,-1 1,1 h 1 l 1,1 h 1 1 l 1,-1 1,1 h 1 l 1,1 1,-2 h 1 l 1,1 1,1 h 1 1 l 1,-1 h 1 1 1 l 1,-2 1,-1 1,1 h 1 1 l 1,1 1,1 1,-1 h 1 l 1,2 h 1 l 1,-1 h 1 1 l 1,-1 h 1 l 1,-1 1,1 h 1 l 1,-1 1,1 h 1 1 1 l 1,1 1,-1 h 1 l 1,-1 1,1 1,-1 1,1 1,-1 1,-1 1,1 1,-1 1,1 h 1 l 1,-1 h 1 l 1,-1 h 1 1 l 1,-1 1,1 h 1 1 1 l 1,-1 h 1 l 1,1 1,-1 h 1 1 1 1 l 1,1 1,-1 h 1 l 1,1 h 1 l 1,-1 1,1 1,1 h 1 l 1,-1 h 1 l 1,-1 1,-1 1,2 h 1 1 l 1,-1 1,1 1,1 1,-1 1,2 h 1 1 l 1,1 h 1 l 1,-1 h 1 l 1,-1 h 1 l 1,1 h 1 l 1,1 1,-1 1,1 h 1 l 1,2 h 1 1 l 1,-2 1,-1 h 1 l 1,-2 h 1 l 1,1 1,-2 1,-2 h 1 l 1,1 1,-1 h 1 1 l 1,-1 h 1 l 1,-1 1,-1 h 1 1 1 1 l 1,-1 h 1 l 1,-1 1,1 h 1 1 l 1,1 h 1 l 1,1 h 1 l 1,-2 1,-1 1,-1 1,-1 1,-1 h 1 1 l 1,1 h 1 1 1 l 1,-1 1,-1 1,1 h 1 l 1,-1 1,-1 1,-1 h 1 l 1,-1 1,1 1,1 1,-1 h 1 1 l 1,1 h 1 l 1,-1 1,-1 1,-2 1,1 h 1 l 1,-1 1,1 h 1 l 1,-1 h 1 1 l 1,-2 h 1 l 1,-1 1,1 1,-2 h 1 l 1,1 h 1 l 1,-1 1,1 h 1 1 l 1,1 1,-1 1,-1 h 1 1 1 1 1 1 l 1,1 1,-1 1,-1 h 1 l 1,-1 1,1 1,2 1,1 h 1 1 l 1,-1 1,-1 h 1 l 1,-2 1,1 1,-1 1,1 1,1 1,-1 h 1 l 1,-1 h 1 1 l 1,1 h 1 l 1,1 1,1 1,1 h 1 1 1 1 1 l 1,-1 1,-2 1,-1 1,-1 1,1 h 1 1 1 l 1,-1 h 1 l 1,-1 1,1 h 1 l 1,-1 h 1 l 1,-1 1,-1 h 1 1 l 1,1 h 1 1 l 1,1 h 1 1 l 1,-1 h 1 l 1,2 1,1 1,-1 1,-3 1,-1 h 1 1 1 1 1 l 1,-1 1,1 h 1 l 1,-1 h 1 1 1 1 l 1,-1 1,1 1,-1 h 1 1 1 l 1,-2 1,-1 1,1 1,1 1,-1 h 1 l 1,1 1,1 1,1 1,1 h 1 l 1,1 1,-1 1,-1 1,1 1,1 1,-1 h 1 1 l 1,-1 h 1 1 l 1,-1 h 1 l 1,-1 1,1 1,2 h 1 l 1,1 1,2 1,1 h 1 l 1,-1 1,-1 h 1 l 1,-1 1,1 1,1 1,1 1,-1 1,-1 1,1 1,1 h 1 l 1,-1 1,1 h 1 1 l 1,1 h 1 1 l 1,-1 h 1 l 1,1 1,1 h 1 1 1 l 1,-1 1,-1 1,1 1,2 1,1 h 1 l 1,-1 1,1 h 1 l 1,1 h 1 l 1,1 1,-1 1,1 h 1 1 l 1,1 1,1 h 1 1 l 1,-1 1,1 h 1 l 1,1 h 1 1 l 1,1 1,-1 1,1 1,1 1,1 1,-1 h 1 l 1,1 1,-1 1,1 1,1 1,1 h 1 l 1,-1 h 1 l 1,1 1,1 1,2 h 1 1 1 1 1 1 1 1 l 1,-1 h 1 l 1,1 h 1 1 1 l 1,-1 h 1 l 1,1 h 1 1 1 1 l 1,1 1,1 1,-1 1,-1 1,1 1,-1 h 1 1 l 1,-1 1,1 h 1 l 1,1 h 1 1 1 1 l 1,-1 h 1 1 1 1 1 1 l 1,2 h 1 1 1 l 1,-1 h 1 l 1,1 1,1 h 1 1 1 l 1,-1 1,1 h 1 l 1,1 h 1 l 1,1 1,-1 h 1 l 1,1 1,1 1,1 1,-1"
       style="fill:none;stroke:#aaffff;stroke-width:14.1118;stroke-linecap:square;stroke-linejoin:bevel;stroke-miterlimit:10;stroke-dasharray:none;stroke-opacity:1"
       transform="matrix(0.0507,0,0,0.51958974,26.227566,540.76568)"
       clip-path="url(#clipPath4)" /></g></svg>
